<svg width="798" height="464" viewBox="0 0 798 464" fill="none" xmlns="http://www.w3.org/2000/svg">
<rect x="3" y="15" width="792" height="433" rx="16" fill="black" stroke="#50A0FF" stroke-width="6"/>
<path d="M4 56.8136V28C4 22.4771 8.47715 18 14 18H42.8136C43.1341 19.8793 43.2951 21.7824 43.2947 23.6889C43.2947 28.1022 42.4254 32.4723 40.7365 36.5497C39.0475 40.627 36.572 44.3318 33.4512 47.4524C30.3305 50.573 26.6256 53.0483 22.5482 54.7371C18.4708 56.4258 14.1006 57.2949 9.68731 57.2947C7.78136 57.295 5.87881 57.134 4 56.8136Z" fill="#50A0FF"/>
<path d="M20.8823 28.3495L22.3707 32.8874H27.2561L23.3049 35.7351L24.8126 40.3311L20.8743 37.4865L16.9264 40.3319L18.4444 35.7319L14.5085 32.8874H19.3835L20.8823 28.3495Z" fill="#F2E2C9"/>
<path d="M794.295 56.815V28C794.295 22.4771 789.818 18 784.295 18L755.481 18C755.161 19.8794 755 21.7826 755 23.6891C755.004 28.5828 756.077 33.4165 758.142 37.853C760.207 42.2896 763.215 46.2221 766.956 49.3762C770.698 52.5303 775.082 54.8299 779.804 56.1147C784.526 57.3995 789.471 57.6385 794.295 56.815Z" fill="#50A0FF"/>
<path d="M777.412 28.3499L775.924 32.8879H771.039L774.99 35.7358L773.482 40.3319L777.42 37.4873L781.368 40.3327L779.847 35.7334L783.786 32.8879H778.911L777.412 28.3499Z" fill="#F2E2C9"/>
<path d="M4 406.48V435.295C4 440.818 8.47715 445.295 14 445.295H42.8136C43.1341 443.415 43.2951 441.512 43.2947 439.606C43.2903 434.712 42.2182 429.878 40.1531 425.442C38.0881 421.005 35.0799 417.073 31.3385 413.919C27.5971 410.764 23.2125 408.465 18.4907 407.18C13.7689 405.895 8.82366 405.656 4 406.48Z" fill="#50A0FF"/>
<path d="M21.8823 434.945L23.3707 430.407H28.2561L24.3049 427.559L25.8134 422.96L21.8751 425.805L17.9272 422.96L19.4452 427.561L15.5085 430.405H20.3835L21.8823 434.945Z" fill="#F2E2C9"/>
<path d="M794.295 406.481V435.295C794.295 440.818 789.818 445.295 784.295 445.295H755.481C755.161 443.415 755 441.512 755 439.606C755 435.193 755.869 430.822 757.558 426.745C759.247 422.668 761.723 418.963 764.843 415.842C767.964 412.722 771.669 410.246 775.746 408.558C779.824 406.869 784.194 406 788.607 406C790.513 406 792.416 406.161 794.295 406.481Z" fill="#50A0FF"/>
<path d="M777.412 434.945L775.924 430.407H771.039L774.99 427.56L773.481 422.961L777.42 425.806L781.371 422.961L779.847 427.561L783.784 430.406H778.909L777.412 434.945Z" fill="#F2E2C9"/>
<path d="M784 67L784 397" stroke="#50A0FF" stroke-width="5" stroke-linecap="round"/>
<path d="M15 67L15 397" stroke="#50A0FF" stroke-width="5" stroke-linecap="round"/>
<path d="M63 3H745" stroke="#50A0FF" stroke-width="5" stroke-linecap="round"/>
<path d="M63 461H745" stroke="#50A0FF" stroke-width="5" stroke-linecap="round"/>
</svg>
