<svg width="572" height="659" viewBox="0 0 572 659" fill="none" xmlns="http://www.w3.org/2000/svg">
<rect x="3" y="16" width="566" height="628" rx="16" fill="black" stroke="#50A0FF" stroke-width="6"/>
<path d="M4 57.8136V29C4 23.4771 8.47715 19 14 19H42.8136C43.1341 20.8793 43.2951 22.7824 43.2947 24.6889C43.2947 29.1022 42.4254 33.4723 40.7365 37.5497C39.0475 41.627 36.572 45.3318 33.4512 48.4524C30.3305 51.573 26.6256 54.0483 22.5482 55.7371C18.4708 57.4258 14.1006 58.2949 9.68731 58.2947C7.78136 58.295 5.87881 58.134 4 57.8136Z" fill="#50A0FF"/>
<path d="M20.8826 29.3495L22.3709 33.8874H27.2563L23.3052 36.7351L24.8128 41.3311L20.8745 38.4866L16.9266 41.3319L18.4447 36.7319L14.5088 33.8874H19.3837L20.8826 29.3495Z" fill="#F2E2C9"/>
<path d="M566.295 57.8151V29C566.295 23.4772 561.818 19 556.295 19L527.481 19C527.161 20.8794 527 22.7826 527 24.6892C527.005 29.5828 528.077 34.4165 530.142 38.8531C532.207 43.2896 535.215 47.2221 538.956 50.3762C542.698 53.5303 547.082 55.83 551.804 57.1148C556.526 58.3996 561.471 58.6386 566.295 57.8151Z" fill="#50A0FF"/>
<path d="M549.412 29.3499L547.923 33.8879H543.038L546.989 36.7358L545.482 41.3319L549.42 38.4873L553.368 41.3327L551.847 36.7334L555.786 33.8879H550.911L549.412 29.3499Z" fill="#F2E2C9"/>
<path d="M5 602.48V631.295C5 636.818 9.47715 641.295 15 641.295H43.8136C44.1341 639.415 44.2951 637.512 44.2947 635.606C44.2903 630.712 43.2182 625.878 41.1531 621.442C39.0881 617.005 36.0799 613.073 32.3385 609.919C28.5971 606.764 24.2125 604.465 19.4907 603.18C14.7689 601.895 9.82366 601.656 5 602.48Z" fill="#50A0FF"/>
<path d="M22.8826 630.945L24.3709 626.407H29.2563L25.3052 623.559L26.8136 618.96L22.8753 621.805L18.9274 618.96L20.4455 623.56L16.5088 626.405H21.3837L22.8826 630.945Z" fill="#F2E2C9"/>
<path d="M566.295 602.481V631.295C566.295 636.818 561.818 641.295 556.295 641.295H527.481C527.161 639.415 527 637.512 527 635.606C527 631.192 527.87 626.822 529.558 622.745C531.247 618.668 533.723 614.963 536.844 611.842C539.964 608.722 543.669 606.246 547.747 604.558C551.824 602.869 556.194 602 560.608 602C562.514 602 564.416 602.161 566.295 602.481Z" fill="#50A0FF"/>
<path d="M549.412 630.945L547.923 626.407H543.038L546.989 623.56L545.481 618.961L549.419 621.806L553.37 618.961L551.846 623.561L555.783 626.406H550.908L549.412 630.945Z" fill="#F2E2C9"/>
<path d="M555 70L555 590" stroke="#50A0FF" stroke-width="5" stroke-linecap="round"/>
<path d="M15 70L15 590" stroke="#50A0FF" stroke-width="5" stroke-linecap="round"/>
<path d="M62 3H507" stroke="#50A0FF" stroke-width="5" stroke-linecap="round"/>
<path d="M63 656H508" stroke="#50A0FF" stroke-width="5" stroke-linecap="round"/>
</svg>
