<svg width="814" height="531" viewBox="0 0 814 531" fill="none" xmlns="http://www.w3.org/2000/svg">
<rect x="7" y="23" width="800" height="480" rx="27" fill="black" stroke="#50A0FF" stroke-width="14"/>
<path d="M10 85.2653V26H69.2653C69.7548 28.8696 70.0006 31.7755 70 34.6865C70 41.4253 68.6727 48.0981 66.0938 54.3239C63.5149 60.5497 59.7349 66.2066 54.9698 70.9715C50.2046 75.7364 44.5476 79.5161 38.3216 82.0947C32.0957 84.6733 25.4229 86.0003 18.6841 86C15.7739 86.0004 12.8688 85.7546 10 85.2653H10Z" fill="#50A0FF"/>
<path d="M35.778 41.803L38.0507 48.7319H45.5103L39.4772 53.0802L41.7792 60.0979L35.7658 55.7545L29.7376 60.0991L32.0556 53.0753L26.0458 48.7319H33.4894L35.778 41.803Z" fill="#F2E2C9"/>
<path d="M804 85.2676V26L744.735 26C744.245 28.8697 743.999 31.7757 744 34.6869C744.007 42.1591 745.644 49.5398 748.797 56.3141C751.95 63.0884 756.543 69.093 762.256 73.909C767.969 78.7251 774.664 82.2365 781.874 84.1983C789.084 86.1601 796.635 86.525 804 85.2676Z" fill="#50A0FF"/>
<path d="M778.222 41.8035L775.949 48.7327H768.49L774.523 53.0811L772.221 60.0991L778.234 55.7555L784.262 60.1003L781.94 53.0774L787.954 48.7327H780.511L778.222 41.8035Z" fill="#F2E2C9"/>
<path d="M10 440.732V500H69.2653C69.7548 497.13 70.0006 494.224 70 491.313C69.9933 483.841 68.3562 476.46 65.2031 469.686C62.0499 462.912 57.4567 456.907 51.7438 452.091C46.0309 447.275 39.336 443.764 32.1262 441.802C24.9164 439.84 17.3654 439.475 10 440.732Z" fill="#50A0FF"/>
<path d="M35.778 484.196L38.0507 477.267H45.5103L39.4772 472.919L41.7804 465.897L35.767 470.241L29.7388 465.897L32.0568 472.921L26.0458 477.265H33.4894L35.778 484.196Z" fill="#F2E2C9"/>
<path d="M804 440.735V500H744.735C744.245 497.13 743.999 494.225 744 491.313C744 484.575 745.327 477.902 747.906 471.676C750.485 465.45 754.265 459.793 759.03 455.029C763.795 450.264 769.452 446.484 775.678 443.905C781.904 441.327 788.577 440 795.316 440C798.226 440 801.131 440.245 804 440.735V440.735Z" fill="#50A0FF"/>
<path d="M778.222 484.197L775.949 477.268H768.49L774.523 472.92L772.22 465.899L778.233 470.242L784.266 465.899L781.94 472.922L787.951 477.266H780.507L778.222 484.197Z" fill="#F2E2C9"/>
<path d="M26 96L26 429" stroke="#50A0FF" stroke-width="7" stroke-linecap="round"/>
<path d="M788 99L788 432" stroke="#50A0FF" stroke-width="7" stroke-linecap="round"/>
<path d="M71 4H753" stroke="#50A0FF" stroke-width="7" stroke-linecap="round"/>
<path d="M67 527H749" stroke="#50A0FF" stroke-width="7" stroke-linecap="round"/>
</svg>
