<svg width="1428" height="18" viewBox="0 0 1428 18" fill="none" xmlns="http://www.w3.org/2000/svg">
<rect width="14" height="18" fill="#FF0A0A"/>
<rect x="28" width="14" height="18" fill="#FF0A0A"/>
<rect x="56" width="14" height="18" fill="#FF0A0A"/>
<rect x="84" width="14" height="18" fill="#FF0A0A"/>
<rect x="112" width="14" height="18" fill="#FF0A0A"/>
<rect x="140" width="14" height="18" fill="#FF0A0A"/>
<rect x="168" width="14" height="18" fill="#FF0A0A"/>
<rect x="196" width="14" height="18" fill="#FF0A0A"/>
<rect x="224" width="14" height="18" fill="#FF0A0A"/>
<rect x="252" width="14" height="18" fill="#FF0A0A"/>
<rect x="280" width="14" height="18" fill="#FF0A0A"/>
<rect x="308" width="14" height="18" fill="#FF0A0A"/>
<rect x="336" width="14" height="18" fill="#FF0A0A"/>
<rect x="364" width="14" height="18" fill="#FF0A0A"/>
<rect x="392" width="14" height="18" fill="#FF0A0A"/>
<rect x="420" width="14" height="18" fill="#FF0A0A"/>
<rect x="448" width="14" height="18" fill="#FF0A0A"/>
<rect x="476" width="14" height="18" fill="#FF0A0A"/>
<rect x="504" width="14" height="18" fill="#FF0A0A"/>
<rect x="532" width="14" height="18" fill="#FF0A0A"/>
<rect x="560" width="14" height="18" fill="#FF0A0A"/>
<rect x="588" width="14" height="18" fill="#FF0A0A"/>
<rect x="616" width="14" height="18" fill="#FF0A0A"/>
<rect x="644" width="14" height="18" fill="#FF0A0A"/>
<rect x="672" width="14" height="18" fill="#FF0A0A"/>
<rect x="700" width="14" height="18" fill="#FF0A0A"/>
<rect x="728" width="14" height="18" fill="#FF0A0A"/>
<rect x="756" width="14" height="18" fill="#FF0A0A"/>
<rect x="784" width="14" height="18" fill="#FF0A0A"/>
<rect x="812" width="14" height="18" fill="#FF0A0A"/>
<rect x="840" width="14" height="18" fill="#FF0A0A"/>
<rect x="868" width="14" height="18" fill="#FF0A0A"/>
<rect x="896" width="14" height="18" fill="#FF0A0A"/>
<rect x="924" width="14" height="18" fill="#FF0A0A"/>
<rect x="952" width="14" height="18" fill="#FF0A0A"/>
<rect x="980" width="14" height="18" fill="#FF0A0A"/>
<rect x="1008" width="14" height="18" fill="#FF0A0A"/>
<rect x="1036" width="14" height="18" fill="#FF0A0A"/>
<rect x="1064" width="14" height="18" fill="#FF0A0A"/>
<rect x="1092" width="14" height="18" fill="#FF0A0A"/>
<rect x="1120" width="14" height="18" fill="#FF0A0A"/>
<rect x="1148" width="14" height="18" fill="#FF0A0A"/>
<rect x="1176" width="14" height="18" fill="#FF0A0A"/>
<rect x="1204" width="14" height="18" fill="#FF0A0A"/>
<rect x="1232" width="14" height="18" fill="#FF0A0A"/>
<rect x="1260" width="14" height="18" fill="#FF0A0A"/>
<rect x="1288" width="14" height="18" fill="#FF0A0A"/>
<rect x="1316" width="14" height="18" fill="#FF0A0A"/>
<rect x="1344" width="14" height="18" fill="#FF0A0A"/>
<rect x="1372" width="14" height="18" fill="#FF0A0A"/>
<rect x="1400" width="14" height="18" fill="#FF0A0A"/>
<rect x="14" width="14" height="18" fill="#FFE297"/>
<rect x="42" width="14" height="18" fill="#FFE297"/>
<rect x="70" width="14" height="18" fill="#FFE297"/>
<rect x="98" width="14" height="18" fill="#FFE297"/>
<rect x="126" width="14" height="18" fill="#FFE297"/>
<rect x="154" width="14" height="18" fill="#FFE297"/>
<rect x="182" width="14" height="18" fill="#FFE297"/>
<rect x="210" width="14" height="18" fill="#FFE297"/>
<rect x="238" width="14" height="18" fill="#FFE297"/>
<rect x="266" width="14" height="18" fill="#FFE297"/>
<rect x="294" width="14" height="18" fill="#FFE297"/>
<rect x="322" width="14" height="18" fill="#FFE297"/>
<rect x="350" width="14" height="18" fill="#FFE297"/>
<rect x="378" width="14" height="18" fill="#FFE297"/>
<rect x="406" width="14" height="18" fill="#FFE297"/>
<rect x="434" width="14" height="18" fill="#FFE297"/>
<rect x="462" width="14" height="18" fill="#FFE297"/>
<rect x="490" width="14" height="18" fill="#FFE297"/>
<rect x="518" width="14" height="18" fill="#FFE297"/>
<rect x="546" width="14" height="18" fill="#FFE297"/>
<rect x="574" width="14" height="18" fill="#FFE297"/>
<rect x="602" width="14" height="18" fill="#FFE297"/>
<rect x="630" width="14" height="18" fill="#FFE297"/>
<rect x="658" width="14" height="18" fill="#FFE297"/>
<rect x="686" width="14" height="18" fill="#FFE297"/>
<rect x="714" width="14" height="18" fill="#FFE297"/>
<rect x="742" width="14" height="18" fill="#FFE297"/>
<rect x="770" width="14" height="18" fill="#FFE297"/>
<rect x="798" width="14" height="18" fill="#FFE297"/>
<rect x="826" width="14" height="18" fill="#FFE297"/>
<rect x="854" width="14" height="18" fill="#FFE297"/>
<rect x="882" width="14" height="18" fill="#FFE297"/>
<rect x="910" width="14" height="18" fill="#FFE297"/>
<rect x="938" width="14" height="18" fill="#FFE297"/>
<rect x="966" width="14" height="18" fill="#FFE297"/>
<rect x="994" width="14" height="18" fill="#FFE297"/>
<rect x="1022" width="14" height="18" fill="#FFE297"/>
<rect x="1050" width="14" height="18" fill="#FFE297"/>
<rect x="1078" width="14" height="18" fill="#FFE297"/>
<rect x="1106" width="14" height="18" fill="#FFE297"/>
<rect x="1134" width="14" height="18" fill="#FFE297"/>
<rect x="1162" width="14" height="18" fill="#FFE297"/>
<rect x="1190" width="14" height="18" fill="#FFE297"/>
<rect x="1218" width="14" height="18" fill="#FFE297"/>
<rect x="1246" width="14" height="18" fill="#FFE297"/>
<rect x="1274" width="14" height="18" fill="#FFE297"/>
<rect x="1302" width="14" height="18" fill="#FFE297"/>
<rect x="1330" width="14" height="18" fill="#FFE297"/>
<rect x="1358" width="14" height="18" fill="#FFE297"/>
<rect x="1386" width="14" height="18" fill="#FFE297"/>
<rect x="1414" width="14" height="18" fill="#FFE297"/>
</svg>
