<svg width="728" height="543" viewBox="0 0 728 543" fill="none" xmlns="http://www.w3.org/2000/svg">
<rect x="3" y="15" width="722" height="512" rx="16" fill="black" stroke="#50A0FF" stroke-width="6"/>
<path d="M4 56.8136V28C4 22.4771 8.47715 18 14 18H42.8136C43.1341 19.8793 43.2951 21.7824 43.2947 23.6889C43.2947 28.1022 42.4254 32.4723 40.7365 36.5497C39.0475 40.627 36.572 44.3318 33.4512 47.4524C30.3305 50.573 26.6256 53.0483 22.5482 54.7371C18.4708 56.4258 14.1006 57.2949 9.68731 57.2947C7.78136 57.295 5.87881 57.134 4 56.8136Z" fill="#50A0FF"/>
<path d="M20.8826 28.3495L22.3709 32.8874H27.2563L23.3052 35.7351L24.8128 40.3311L20.8745 37.4865L16.9266 40.3319L18.4447 35.7319L14.5088 32.8874H19.3837L20.8826 28.3495Z" fill="#F2E2C9"/>
<path d="M722.295 56.815V28C722.295 22.4771 717.818 18 712.295 18L683.481 18C683.161 19.8794 683 21.7826 683 23.6891C683.005 28.5828 684.077 33.4165 686.142 37.853C688.207 42.2896 691.215 46.2221 694.956 49.3762C698.698 52.5303 703.082 54.8299 707.804 56.1147C712.526 57.3995 717.471 57.6385 722.295 56.815Z" fill="#50A0FF"/>
<path d="M705.412 28.3499L703.923 32.8879H699.038L702.989 35.7358L701.482 40.3319L705.42 37.4873L709.368 40.3327L707.847 35.7334L711.786 32.8879H706.911L705.412 28.3499Z" fill="#F2E2C9"/>
<path d="M5 485.48V514.295C5 519.818 9.47715 524.295 15 524.295H43.8136C44.1341 522.415 44.2951 520.512 44.2947 518.606C44.2903 513.712 43.2182 508.878 41.1531 504.442C39.0881 500.005 36.0799 496.073 32.3385 492.919C28.5971 489.764 24.2125 487.465 19.4907 486.18C14.7689 484.895 9.82366 484.656 5 485.48Z" fill="#50A0FF"/>
<path d="M22.8826 513.945L24.3709 509.407H29.2563L25.3052 506.559L26.8136 501.96L22.8753 504.805L18.9274 501.96L20.4455 506.561L16.5088 509.405H21.3837L22.8826 513.945Z" fill="#F2E2C9"/>
<path d="M723.295 485.481V514.295C723.295 519.818 718.818 524.295 713.295 524.295H684.481C684.161 522.415 684 520.512 684 518.606C684 514.192 684.87 509.822 686.558 505.745C688.247 501.668 690.723 497.963 693.844 494.842C696.964 491.722 700.669 489.246 704.747 487.558C708.824 485.869 713.194 485 717.608 485C719.514 485 721.416 485.161 723.295 485.481Z" fill="#50A0FF"/>
<path d="M706.412 513.945L704.923 509.407H700.038L703.989 506.56L702.481 501.961L706.419 504.806L710.37 501.961L708.846 506.561L712.783 509.406H707.908L706.412 513.945Z" fill="#F2E2C9"/>
<path d="M712 66L712 475" stroke="#50A0FF" stroke-width="5" stroke-linecap="round"/>
<path d="M15 66L15 475" stroke="#50A0FF" stroke-width="5" stroke-linecap="round"/>
<path d="M64 3H663" stroke="#50A0FF" stroke-width="5" stroke-linecap="round"/>
<path d="M65 540H664" stroke="#50A0FF" stroke-width="5" stroke-linecap="round"/>
</svg>
