<svg width="754" height="92" viewBox="0 0 754 92" fill="none" xmlns="http://www.w3.org/2000/svg">
<path d="M23.5421 79.1425C23.0449 79.6656 22.4326 80.0183 21.705 80.2005C20.9889 80.3799 20.2769 80.3589 19.5691 80.1375C19.0378 80.6692 18.5107 81.0005 17.9878 81.1315C17.4649 81.2624 17.0329 81.3223 16.6918 81.3111C16.3536 81.3112 16.0466 81.2673 15.7709 81.1793C15.2081 81.0061 14.8711 80.6979 14.7601 80.2546C14.7032 80.0272 14.7159 79.8126 14.7982 79.6108C15.0967 79.7414 15.4506 79.7555 15.8598 79.653C16.2804 79.5476 16.674 79.3343 17.0405 79.013C17.4184 78.6888 17.6583 78.2723 17.7605 77.7635L15.6808 69.4594C15.5498 68.9365 15.345 68.5771 15.0664 68.3811C14.6201 68.0459 13.9307 67.7776 12.9984 67.5762C13.6831 67.0302 14.105 66.5923 14.264 66.2625C14.5395 65.7224 14.6075 65.1738 14.468 64.6168L12.4865 56.7049C12.0772 56.6624 11.6111 56.7067 11.0882 56.8376C10.5767 56.9658 10.0709 57.2374 9.57082 57.6526C9.07076 58.0677 8.65886 58.5937 8.33511 59.2305C7.61947 60.6661 7.50079 62.3388 7.97907 64.2486C8.25522 65.3512 8.64066 66.1185 9.13538 66.5503C9.07014 66.8687 8.84996 67.0748 8.47482 67.1688C8.09969 67.2627 7.74299 67.2614 7.40473 67.1649C7.06646 67.0684 6.75233 66.8995 6.46232 66.658C5.87094 66.1779 5.48985 65.5968 5.31903 64.9148C5.14822 64.2327 5.12807 63.6216 5.25859 63.0816C4.71272 62.6867 4.36149 62.1767 4.20491 61.5515C4.04549 60.9149 4.08504 60.3493 4.32358 59.8546C3.71803 59.4626 3.30707 58.8347 3.0907 57.9707C2.84018 56.9704 3.1326 56.1844 3.96797 55.6128C4.21517 55.4421 4.44108 55.3312 4.6457 55.2799C5.0322 55.1831 5.34343 55.1958 5.57939 55.3179C5.56814 55.6107 5.57675 55.8139 5.60522 55.9276C5.7191 56.3823 5.93518 56.5698 6.25348 56.4901C6.42399 56.4473 6.5945 56.3805 6.76499 56.2895L7.4768 55.8756C8.71856 55.1901 9.78278 54.7364 10.6695 54.5143C11.5561 54.2922 12.3832 54.2905 13.1507 54.509C13.6337 53.9773 14.2446 53.619 14.9835 53.4339C15.7224 53.2489 16.4415 53.2741 17.1408 53.5097C17.6919 52.961 18.3142 52.5998 19.0077 52.4261C20.1103 52.1499 21.105 52.0216 21.9918 52.0412L23.6119 52.0703C23.8052 52.0703 23.9871 52.0489 24.1576 52.0062C24.4759 51.9264 24.5781 51.6592 24.4642 51.2045C24.4357 51.0908 24.3475 50.9076 24.1996 50.6547C24.3502 50.4358 24.5732 50.2893 24.8688 50.2153C25.1644 50.1412 25.4614 50.1212 25.7598 50.1552C26.0583 50.1892 26.334 50.2772 26.587 50.4192C27.13 50.706 27.4954 51.2246 27.6833 51.9749C27.8684 52.7138 27.7891 53.4101 27.4454 54.064C27.889 54.3878 28.189 54.8623 28.3456 55.4876C28.5022 56.1128 28.4285 56.7353 28.1247 57.355C28.5029 57.7556 28.7503 58.1889 28.867 58.655C28.9838 59.1211 29.0323 59.5559 29.0125 59.9595C28.9928 60.3631 28.9105 60.7341 28.7657 61.0723C28.4591 61.8256 27.9533 62.2906 27.2485 62.4671C26.862 62.5639 26.565 62.4872 26.3574 62.2372C26.5902 61.6232 26.5757 60.7933 26.3138 59.7475C26.049 58.6903 25.6777 57.8107 25.1999 57.1089C24.7307 56.3929 24.2018 55.8247 23.6133 55.4042C22.4249 54.5663 21.2055 54.3039 19.955 54.617C19.4776 54.7366 19.0797 54.9087 18.7615 55.1334L20.743 63.0453C20.8825 63.6023 21.1057 63.9874 21.4128 64.2004C21.8989 64.5498 22.5726 64.8039 23.4339 64.9627C22.7066 65.5798 22.2619 66.0475 22.1001 66.3659C21.8729 66.8577 21.8248 67.365 21.9557 67.8879L24.0354 76.192C24.3539 76.5955 24.7505 76.8526 25.2252 76.9632C25.7113 77.071 26.1646 77.0722 26.5852 76.9669C27.0058 76.8616 27.317 76.681 27.5186 76.4251C27.6864 76.5643 27.7987 76.7475 27.8557 76.9749C27.9098 77.1909 27.8928 77.4126 27.8048 77.64C27.7281 77.8646 27.5932 78.0735 27.4 78.2669C26.9568 78.7161 26.3828 79.029 25.678 79.2055C24.9846 79.3792 24.2726 79.3582 23.5421 79.1425ZM18.9874 75.7166C19.5017 75.3583 19.6279 74.5354 19.3659 73.248C19.1152 71.9577 18.708 70.1872 18.1444 67.9364C17.5807 65.6856 17.2006 64.1922 17.0042 63.4561C16.8163 62.7059 16.6597 62.1048 16.5345 61.6529C16.1644 60.3201 15.8316 59.5457 15.5359 59.3298C15.2487 59.0997 14.9972 58.9634 14.7811 58.9209C15.7719 62.8768 16.2673 65.1447 16.2676 65.7245C16.2223 66.2191 15.9169 66.6399 15.3515 66.9868C16.0933 67.0548 16.5524 67.2478 16.7288 67.5661C17.0018 68.0776 17.5697 70.0555 18.4323 73.4999L18.9874 75.7166Z" fill="#50A0FF"/>
<path d="M55.0662 66.4406C55.2076 65.9033 55.6152 65.5574 56.2892 65.403C56.7461 65.2983 57.1434 65.4056 57.4811 65.725C57.7547 65.9749 57.9413 66.3168 58.0407 66.7509C58.1376 67.1735 58.1272 67.6268 58.0097 68.1106C57.8921 68.5943 57.6854 69.0565 57.3896 69.497C57.0938 69.9374 56.7317 70.351 56.3033 70.7377C55.8864 71.1218 55.4247 71.468 54.9183 71.7764C53.8739 72.4125 52.7405 72.8706 51.5183 73.1507C50.2961 73.4307 49.1023 73.4939 47.9369 73.3401C46.7804 73.1723 45.7357 72.8106 44.8029 72.2549C42.9767 71.1585 41.61 69.3918 40.7029 66.9547C40.4947 66.4133 40.2718 66.0436 40.034 65.8456C39.5945 65.5015 38.9362 65.2256 38.059 65.0178C38.9507 64.3446 39.4211 63.4854 39.4701 62.4403C39.4873 62.1478 39.4873 61.8592 39.4701 61.5746C39.295 59.4988 39.919 57.5524 41.3421 55.7356C42.7186 53.9774 44.452 52.8589 46.5424 52.3799C48.7127 51.8826 50.7671 52.2173 52.7056 53.3842C54.7117 54.5836 55.9777 56.3313 56.5039 58.6272C56.5222 58.7072 56.5348 58.7885 56.5417 58.871C56.56 58.951 56.5827 59.0239 56.6099 59.0898C56.6667 59.2331 56.7777 59.2978 56.9429 59.284C57.2087 59.4996 57.3756 59.7559 57.4437 60.0529C57.6007 60.7383 57.3281 61.2276 56.6259 61.5207C56.451 61.5969 56.1759 61.708 55.8006 61.8541L46.4903 65.6105L46.8672 67.2554C47.1709 68.5804 47.8115 69.5397 48.789 70.1332C49.7131 70.703 50.7519 70.8556 51.9056 70.5913C53.1279 70.3112 54.0526 69.8348 54.6799 69.1621C55.2668 68.5227 55.4712 67.8146 55.2932 67.0378C55.2514 66.8551 55.1757 66.656 55.0662 66.4406ZM50.7996 61.5934L49.7003 56.7959C49.5275 56.042 49.2521 55.522 48.874 55.236C48.2098 54.751 47.6207 54.5674 47.1067 54.6851C46.5926 54.8029 46.1826 54.981 45.8766 55.2195C45.5679 55.4465 45.3259 55.7544 45.1505 56.1433C44.7847 56.9605 44.7707 58.1058 45.1083 59.5794L46.0153 63.5373L50.7996 61.5934ZM53.2373 60.584L53.1156 60.0528C52.6287 57.9282 52.1572 56.6837 51.701 56.3194C51.4966 56.1619 51.2869 56.0596 51.0717 56.0128L52.2142 60.9988L53.2373 60.584ZM44.4513 69.5402C44.5824 69.3779 44.6297 69.2168 44.593 69.0569C44.5354 68.8056 44.4108 68.4976 44.219 68.1328C43.3397 66.4467 42.8202 65.2553 42.6606 64.5585C42.4983 63.8503 42.3955 63.2968 42.3522 62.8979C42.3063 62.4877 42.2775 62.0735 42.2658 61.6554C42.2249 60.8472 42.2164 60.1278 42.2402 59.4972C42.254 59.0853 42.2452 58.8108 42.2138 58.6737C42.1509 58.3995 42.0252 58.218 41.8365 58.129C41.4876 58.81 41.2974 59.6591 41.266 60.6762C41.2346 61.6933 41.2227 62.5857 41.2302 63.3534C41.2438 63.6749 40.9749 64.0491 40.4235 64.476C41.1058 64.6202 41.5082 64.8286 41.6307 65.1011C42.4957 66.9346 43.1255 68.0828 43.52 68.5454C43.9146 69.008 44.225 69.3396 44.4513 69.5402Z" fill="#50A0FF"/>
<path d="M70.6564 68.2401C70.2061 68.7181 69.6427 69.0283 68.9661 69.1708C68.2896 69.3132 67.7639 69.2622 67.3891 69.0178C67.0233 68.7595 66.8103 68.487 66.7499 68.2003C66.6702 67.8219 66.6754 67.5334 66.7653 67.3348C67.0586 67.4767 67.4002 67.5065 67.7901 67.4244C68.524 67.2699 68.9251 66.8142 68.9933 66.0574L67.896 60.8455C67.7849 60.318 67.5996 59.9498 67.3401 59.741C66.879 59.371 66.1933 59.0723 65.2832 58.8448C66.547 57.908 67.0389 56.7746 66.7588 55.4444L66.3786 53.6383C66.1733 52.6635 65.7297 52.206 65.0477 52.2658C64.8479 52.2839 64.599 52.3244 64.3008 52.3871C64.0027 52.4499 63.748 52.6053 63.5367 52.8534C63.3303 52.6693 63.203 52.4626 63.1547 52.2332C63.104 51.9924 63.1058 51.7166 63.1601 51.4058C63.2235 51.0811 63.3535 50.7603 63.5503 50.4434C64.0162 49.6986 64.6448 49.243 65.4361 49.0764C66.2388 48.9074 66.9304 48.8935 67.5111 49.0347C67.9921 48.1909 68.5938 47.693 69.3162 47.5409C70.44 47.3043 71.1323 47.8052 71.3931 49.0437L71.8892 51.4002C72.442 48.3378 73.9684 46.5435 76.4682 46.0172C77.592 45.7805 78.5761 45.9326 79.4205 46.4734C80.2902 47.0208 80.8554 47.9137 81.1162 49.1522L81.1669 49.393C81.1838 49.4733 81.2073 49.642 81.2375 49.8991C81.2653 50.1447 81.3229 50.3901 81.4104 50.6351C81.5094 50.8778 81.6217 51.0697 81.7472 51.2109C81.9241 51.4252 82.199 51.5649 82.572 51.6301C82.5569 51.9566 82.4268 52.2774 82.1818 52.5924C81.9458 52.8936 81.6501 53.0816 81.2946 53.1564L80.9678 53.2253C80.6388 53.8813 80.0972 54.4085 79.3427 54.8069C79.1279 54.924 78.8828 55.0115 78.6076 55.0694C78.3439 55.1249 78.0967 55.1171 77.8662 55.0459C77.6447 54.9608 77.508 54.8519 77.4561 54.7191C77.6522 54.57 77.7177 54.3406 77.6525 54.031L77.6344 53.945C77.5475 53.9873 77.4696 54.0156 77.4008 54.0301L77.2288 54.0663C76.8504 54.146 76.4762 54.0751 76.1062 53.8536C75.7477 53.6297 75.4767 53.3095 75.2932 52.8931C75.9173 52.7856 76.408 52.4428 76.7653 51.8646C77.0888 51.3534 77.2034 50.8742 77.1093 50.427C76.8871 49.372 76.3174 48.941 75.4 49.1342C74.6088 49.3008 73.9446 50.0993 73.4074 51.5297C72.8944 52.8472 72.6708 54.1458 72.7366 55.4253L74.6959 64.731C74.9065 65.1058 75.1642 65.3629 75.469 65.5024C75.7738 65.6418 76.1556 65.6632 76.6142 65.5666C77.0729 65.47 77.4079 65.2977 77.6191 65.0497C77.7815 65.1951 77.8977 65.4341 77.9677 65.7667C78.0377 66.0992 77.9517 66.4586 77.7097 66.8449C77.4767 67.2173 76.999 67.4796 76.2766 67.6317C75.5656 67.7813 74.8423 67.7301 74.1065 67.4778C73.7299 67.9642 73.2148 68.2763 72.5612 68.4139C71.9075 68.5515 71.2726 68.4936 70.6564 68.2401ZM70.4191 59.7754C70.3485 59.3831 70.2854 59.055 70.2298 58.7913C70.1858 58.5251 70.1469 58.3118 70.1131 58.1512L70.0153 57.6868C69.9791 57.5148 69.9275 57.2981 69.8605 57.0368C69.8025 56.7616 69.7328 56.4589 69.6513 56.1287C69.5789 55.7847 69.5031 55.4534 69.4241 55.1347C69.1042 53.9566 68.8117 53.2218 68.5468 52.9303C68.2909 52.6249 68.0522 52.4296 67.8307 52.3445L68.0661 53.4626C68.4717 55.3891 68.6648 56.534 68.6455 56.8974C68.6353 57.2468 68.5508 57.5281 68.392 57.7411C68.2424 57.9403 67.9973 58.1416 67.6569 58.345C68.3957 58.441 68.8471 58.6513 69.0113 58.976C69.2648 59.4974 69.5943 60.7214 69.9999 62.648L70.2353 63.766C70.6904 63.3109 70.8413 62.5487 70.688 61.4792C70.5884 60.7217 70.4987 60.1538 70.4191 59.7754Z" fill="#50A0FF"/>
<path d="M108.436 42.4165C108.129 42.3084 107.699 42.3074 107.147 42.4135C106.606 42.5174 106.168 42.691 105.833 42.9344C105.507 43.164 105.294 43.5749 105.192 44.1671L104.76 46.6667C104.577 47.7041 104.53 48.453 104.618 48.9133C104.707 49.3737 104.816 49.6928 104.946 49.8708C105.073 50.0372 105.213 50.1774 105.366 50.2911C105.657 50.4979 105.934 50.6057 106.198 50.6147C104.786 51.0888 103.971 51.9433 103.755 53.1781L102.394 61.19C102.265 61.8831 101.946 62.3978 101.438 62.734C101.258 62.8522 101.052 62.9333 100.822 62.9776C100.604 63.0196 100.348 63.0268 100.057 62.9993L94.6085 55.0423C93.8988 54.0808 92.7386 53.5698 91.1279 53.5092C91.9354 52.8052 92.2768 52.1907 92.1521 51.6658C92.0725 51.2515 91.7569 50.6021 91.2051 49.7176L89.761 47.4175C89.3544 46.7915 89.0378 46.4168 88.8112 46.2933C88.4244 46.0812 88.0008 46.0193 87.5405 46.1077C87.0801 46.1961 86.7422 46.3625 86.5266 46.6068C86.3756 46.5045 86.2648 46.2692 86.1941 45.9009C86.1234 45.5327 86.2146 45.1691 86.4679 44.8102C86.7189 44.4398 87.1782 44.1905 87.8457 44.0623C88.5247 43.9319 89.1917 44.0185 89.8467 44.3223C90.2389 43.8174 90.7746 43.4997 91.4536 43.3693C92.1441 43.2367 92.779 43.3116 93.3583 43.5941C93.8262 43.1105 94.3767 42.8078 95.0096 42.6863C95.6541 42.5625 96.1903 42.6206 96.6183 42.8606C97.044 43.0891 97.3011 43.4335 97.3895 43.8938C97.4426 44.17 97.3994 44.411 97.2599 44.6168C96.9439 44.4627 96.642 44.4133 96.3543 44.4685C95.7329 44.5879 95.4785 44.941 95.5913 45.528C95.6399 45.7812 95.7312 46.0082 95.8653 46.2092L101.157 54.751L102.592 44.7919C102.499 43.7478 101.963 43.3197 100.985 43.5076C100.524 43.596 100.125 43.786 99.7875 44.0776C99.6212 43.8948 99.5048 43.6307 99.4385 43.2855C99.37 42.9287 99.4634 42.5766 99.7189 42.2292C99.9744 41.8819 100.373 41.6562 100.913 41.5523C101.466 41.4462 101.973 41.5397 102.435 41.8328C102.779 41.385 103.221 41.1091 103.762 41.0052C104.303 40.9013 104.808 40.9833 105.277 41.2512C105.648 40.822 106.081 40.5598 106.576 40.4648C107.082 40.3675 107.5 40.4305 107.829 40.6536C108.17 40.8746 108.377 41.1749 108.45 41.5547C108.523 41.9345 108.518 42.2217 108.436 42.4165ZM92.6099 47.2462C92.4501 47.4081 92.3978 47.633 92.453 47.9207C92.5083 48.2084 92.5561 48.4259 92.5963 48.5733C92.6458 48.707 92.7124 48.8673 92.796 49.0541C92.961 49.4162 93.2026 49.8351 93.5207 50.311C94.134 51.2672 94.4227 51.8382 94.3868 52.0241C94.3624 52.2078 94.3245 52.3523 94.2731 52.4576C94.1792 52.7143 94.0411 52.896 93.8587 53.0026C94.6953 53.009 95.2445 53.166 95.5065 53.4737C95.825 53.8898 96.0582 54.203 96.206 54.4133L97.5633 56.3542C97.9066 56.8372 98.2153 57.2015 98.4892 57.4473C98.7746 57.6908 99.1218 57.821 99.5308 57.8379L92.6099 47.2462Z" fill="#50A0FF"/>
<path d="M132.615 51.1865C132.785 50.6576 133.211 50.3342 133.892 50.2163C134.354 50.1364 134.745 50.265 135.065 50.6021C135.325 50.8663 135.492 51.2179 135.568 51.6567C135.642 52.0839 135.607 52.5359 135.464 53.0126C135.321 53.4894 135.089 53.9397 134.77 54.3636C134.451 54.7875 134.067 55.181 133.619 55.544C133.182 55.9051 132.702 56.2259 132.18 56.5066C131.102 57.0854 129.946 57.4818 128.71 57.6956C127.475 57.9093 126.279 57.9081 125.124 57.6917C123.978 57.4618 122.955 57.0443 122.053 56.4392C120.289 55.2459 119.019 53.4081 118.245 50.9257C118.066 50.3739 117.863 49.9927 117.637 49.7822C117.216 49.4149 116.574 49.1038 115.709 48.8491C116.636 48.2249 117.152 47.3923 117.257 46.3513C117.29 46.0602 117.305 45.7721 117.304 45.487C117.241 43.4047 117.969 41.4948 119.488 39.7573C120.957 38.0759 122.748 37.0524 124.861 36.6868C127.055 36.3072 129.089 36.7522 130.961 38.0218C132.9 39.3276 134.07 41.141 134.472 43.4619C134.485 43.5428 134.494 43.6246 134.496 43.7074C134.51 43.7883 134.529 43.8623 134.552 43.9296C134.601 44.0757 134.709 44.1463 134.875 44.1415C135.128 44.3711 135.281 44.636 135.333 44.9362C135.453 45.6291 135.154 46.1029 134.437 46.3578C134.259 46.4244 133.978 46.5206 133.595 46.6462L124.096 49.8954L124.384 51.5582C124.616 52.8977 125.204 53.8901 126.148 54.5354C127.04 55.1541 128.069 55.3626 129.235 55.1608C130.471 54.947 131.42 54.5211 132.082 53.8832C132.703 53.2763 132.945 52.5803 132.809 51.7951C132.777 51.6103 132.713 51.4075 132.615 51.1865ZM128.616 46.1164L127.777 41.2666C127.645 40.5045 127.398 39.9704 127.035 39.6644C126.398 39.1443 125.82 38.9292 125.3 39.0191C124.781 39.109 124.362 39.2648 124.043 39.4864C123.723 39.6964 123.465 39.9909 123.269 40.3697C122.859 41.166 122.783 42.3089 123.041 43.7985L123.734 47.7996L128.616 46.1164ZM131.104 45.2398L131.011 44.7029C130.64 42.5551 130.236 41.287 129.8 40.8986C129.604 40.7303 129.4 40.6169 129.188 40.5585L130.06 45.5988L131.104 45.2398ZM121.848 53.7095C121.988 53.5545 122.044 53.3962 122.016 53.2345C121.972 52.9805 121.864 52.6661 121.692 52.2915C120.905 50.5605 120.451 49.3428 120.329 48.6385C120.205 47.9225 120.132 47.3643 120.11 46.9637C120.086 46.5515 120.08 46.1364 120.091 45.7183C120.094 44.9091 120.124 44.1903 120.182 43.5619C120.218 43.1513 120.224 42.8767 120.2 42.7381C120.152 42.461 120.036 42.2729 119.852 42.1739C119.467 42.8351 119.232 43.6727 119.145 44.6866C119.059 45.7006 118.999 46.591 118.965 47.358C118.962 47.6798 118.673 48.0389 118.099 48.4355C118.773 48.6163 119.163 48.846 119.271 49.1247C120.036 51.0023 120.603 52.1827 120.972 52.6659C121.341 53.1491 121.633 53.497 121.848 53.7095Z" fill="#50A0FF"/>
<path d="M155.7 50.2558C155.884 49.9899 156.012 49.6733 156.086 49.3061C156.157 48.9272 156.163 48.5468 156.103 48.1647C156.041 47.771 155.962 47.4157 155.865 47.0988C155.919 46.9124 156.118 46.7449 156.463 46.5962C156.806 46.4359 157.035 46.3468 157.151 46.3287C157.591 46.26 157.97 46.3727 158.289 46.6669C158.606 46.9495 158.81 47.386 158.902 47.9765C158.993 48.5554 158.909 49.1557 158.65 49.7773C158.403 50.3971 158.03 50.9712 157.531 51.4998C156.423 52.6811 155.029 53.4029 153.351 53.6651C150.155 54.1643 147.847 53.2853 146.427 51.0282C145.906 50.1964 145.54 49.1089 145.33 47.7658L144.999 45.647C144.914 45.1028 144.229 44.6228 142.942 44.207C144.028 43.3376 144.48 42.324 144.299 41.1662L143.979 39.1168C143.773 37.7969 143.132 37.221 142.055 37.3892C141.661 37.4507 141.352 37.5997 141.128 37.8363C140.932 37.6417 140.816 37.4286 140.779 37.197C140.741 36.9538 140.741 36.687 140.779 36.3965C140.826 36.0925 140.942 35.8076 141.126 35.5417C141.588 34.8528 142.418 34.5096 143.616 34.5122L143.529 33.9565C143.339 32.7407 143.479 31.6218 143.948 30.5997C144.362 29.6811 144.777 29.1892 145.194 29.1241C145.622 29.0572 145.975 29.1503 146.252 29.4036C146.306 28.4582 146.463 27.7575 146.724 27.3017C146.985 26.8458 147.416 26.5708 148.018 26.4768L149.15 33.719L154.794 32.8374C154.916 33.0081 155.011 33.3135 155.08 33.7535C155.146 34.1819 155.033 34.5555 154.739 34.8742C154.443 35.1814 154.057 35.3721 153.583 35.4462L149.519 36.081L151.355 47.8388C151.67 49.8535 152.312 50.963 153.281 51.1675C153.561 51.2185 153.852 51.2205 154.153 51.1735C154.466 51.1247 154.753 51.0265 155.015 50.8788C155.286 50.7178 155.515 50.5102 155.7 50.2558ZM147.301 49.4505C147.791 49.0182 147.985 48.2466 147.883 47.1358C147.806 46.3413 147.733 45.724 147.665 45.284C147.608 44.8422 147.558 44.4882 147.517 44.2219C147.485 43.9422 147.457 43.7271 147.434 43.5766L147.325 42.8819C147.273 42.5461 147.2 42.1186 147.107 41.5994C147.024 41.0668 146.928 40.4946 146.821 39.8827C146.723 39.2575 146.619 38.663 146.507 38.0993C146.259 36.7385 146.076 35.913 145.96 35.6228C145.716 34.9729 145.377 34.5514 144.944 34.3582L145.79 39.7768C146.042 41.3862 146.146 42.2418 146.102 42.3434C146.07 42.4433 146.047 42.5596 146.032 42.6924C145.982 43.056 145.634 43.407 144.987 43.7452C145.72 43.8799 146.159 44.1136 146.306 44.4465C146.532 44.9806 146.805 46.2723 147.125 48.3217L147.301 49.4505Z" fill="#50A0FF"/>
<path d="M181.969 49.428C180.332 49.6545 179.293 48.6449 178.852 46.399C178.408 47.5488 177.724 48.5071 176.801 49.2737C175.889 50.0387 174.853 50.5016 173.692 50.6623C172.543 50.8213 171.587 50.794 170.824 50.5802C170.061 50.3664 169.4 49.9964 168.843 49.4703C167.753 48.438 167.061 46.8539 166.765 44.718L166.616 43.6385C166.429 42.2919 165.583 41.3917 164.077 40.9376C164.856 40.4157 165.343 39.9993 165.537 39.6886C165.825 39.2109 165.933 38.7051 165.859 38.1711L165.534 35.8204C165.397 34.8338 164.986 34.3464 164.302 34.3583C164.101 34.3624 163.85 34.3854 163.548 34.4271C163.247 34.4689 162.982 34.6061 162.754 34.8388C162.56 34.6408 162.448 34.4257 162.416 34.1935C162.382 33.9497 162.403 33.6747 162.479 33.3684C162.565 33.0489 162.717 32.738 162.936 32.4357C163.452 31.7253 164.111 31.3147 164.912 31.2038C165.713 31.093 166.486 31.122 167.231 31.291C167.641 30.489 168.194 30.0398 168.89 29.9434C170.086 29.7779 170.77 30.322 170.944 31.5756L172.513 42.9109C172.818 45.1165 173.512 46.3691 174.595 46.6688C174.939 46.7631 175.309 46.7829 175.703 46.7283C176.11 46.6721 176.464 46.5402 176.766 46.3327C177.067 46.1136 177.32 45.8421 177.523 45.5181C177.897 44.8867 178.08 44.0688 178.071 43.0644L176.851 34.2539C176.668 32.9305 176.037 32.3436 174.957 32.493C174.563 32.5477 174.251 32.6913 174.023 32.924C173.83 32.7259 173.718 32.5108 173.685 32.2787C173.652 32.0349 173.675 31.7773 173.756 31.5058C173.847 31.2212 174.004 30.9509 174.229 30.695C174.727 30.1055 175.383 29.7545 176.195 29.6421C177.019 29.528 177.804 29.5554 178.549 29.7244C178.959 28.9224 179.512 28.4732 180.208 28.3768C181.404 28.2113 182.088 28.7554 182.262 30.0091L183.062 35.7899C183.136 36.3238 183.295 36.7041 183.539 36.9305C183.973 37.3318 184.637 37.6778 185.529 37.9684C184.202 38.8144 183.632 39.9107 183.819 41.2573L184.441 45.7496C184.785 46.6129 185.329 46.9931 186.071 46.8903C186.466 46.8357 186.777 46.692 187.006 46.4593C187.199 46.6574 187.318 46.9247 187.365 47.2614C187.41 47.5864 187.285 47.9231 186.99 48.2715C186.707 48.6183 186.211 48.8407 185.503 48.9387C184.807 49.0351 184.119 48.941 183.441 48.6563C183.028 49.092 182.537 49.3493 181.969 49.428ZM179.976 44.6463C180.612 44.2861 180.789 42.9544 180.505 40.6512C180.438 40.1637 180.361 39.6065 180.274 38.9796C180.187 38.3528 180.107 37.8196 180.035 37.3801C179.972 36.9274 179.907 36.4987 179.839 36.094C179.59 34.6379 179.336 33.7857 179.077 33.5377C178.816 33.278 178.581 33.1154 178.371 33.0498L179.976 44.6463ZM168.761 40.2893L168.495 37.9837C168.352 36.9506 168.222 36.2705 168.106 35.9435C167.786 35.0886 167.441 34.6454 167.07 34.614L167.227 35.7458C167.498 37.7075 167.612 38.869 167.567 39.2301C167.532 39.578 167.428 39.8526 167.255 40.0541C167.092 40.2423 166.833 40.4259 166.48 40.605C167.21 40.7524 167.646 40.9938 167.787 41.3292C168.003 41.8671 168.247 43.1169 168.519 45.0787L168.675 46.2105C169.012 46.081 169.225 45.5251 169.314 44.5427C169.335 44.2677 169.274 43.6136 169.131 42.5805L168.761 40.2893Z" fill="#50A0FF"/>
<path d="M198.554 46.7365C198.064 47.1739 197.476 47.4343 196.79 47.5179C196.115 47.6001 195.591 47.5104 195.217 47.2491C194.854 46.9863 194.656 46.7153 194.622 46.4361C194.575 46.0522 194.62 45.7398 194.756 45.499C195.036 45.6656 195.373 45.7248 195.769 45.6766C196.444 45.5945 196.879 45.146 197.075 44.3312L196.421 38.9568C196.358 38.445 196.208 38.0855 195.97 37.8783C195.591 37.5704 194.938 37.2544 194.013 36.9302C194.782 36.4588 195.269 36.0926 195.473 35.8316C195.799 35.4024 195.928 34.9086 195.86 34.3502L194.659 24.4914C194.498 23.1653 193.876 22.568 192.794 22.6998C192.399 22.7479 192.085 22.8865 191.853 23.1154C191.663 22.9142 191.554 22.6973 191.526 22.4646C191.496 22.2203 191.526 21.9806 191.616 21.7454C191.717 21.5088 191.884 21.2818 192.117 21.0646C192.616 20.6025 193.284 20.3204 194.121 20.2185C194.959 20.1165 195.617 20.0895 196.095 20.1375C196.637 19.257 197.309 18.7678 198.112 18.6701C199.275 18.5285 199.933 19.0858 200.086 20.3422L201.705 33.6385C201.773 34.1969 201.944 34.5833 202.218 34.7979C202.624 35.1262 203.257 35.427 204.117 35.7001C203.296 36.2367 202.789 36.629 202.595 36.8769C202.313 37.2772 202.204 37.7333 202.266 38.2451L202.92 43.6195C203.294 44.3649 203.825 44.6958 204.511 44.6122C204.907 44.5641 205.22 44.4255 205.452 44.1966C205.642 44.3978 205.757 44.6671 205.798 45.0044C205.838 45.3302 205.708 45.6648 205.407 46.0083C205.118 46.3504 204.642 46.5619 203.979 46.6426C203.316 46.7233 202.677 46.6123 202.061 46.3094C201.63 46.7397 201.083 46.9953 200.419 47.076C199.768 47.1553 199.146 47.0421 198.554 46.7365ZM198.521 42.2427C199.003 41.8416 199.221 41.0654 199.176 39.9141C199.15 39.4096 199.105 38.8484 199.041 38.2304C198.978 37.6125 198.931 37.1755 198.9 36.9196C198.879 36.6507 198.86 36.4522 198.845 36.3242L198.654 34.7538C198.601 34.3234 198.536 33.8355 198.458 33.2902L198.249 31.5802C197.839 28.5017 197.572 26.7929 197.448 26.4539C197.196 25.7408 196.857 25.2804 196.43 25.0727L197.146 30.9531C197.439 33.3611 197.574 34.7082 197.549 34.9945C197.536 35.2677 197.519 35.4704 197.5 35.6026C197.439 35.976 197.079 36.3208 196.421 36.637C197.149 36.7963 197.58 37.039 197.714 37.365C197.922 37.9064 198.145 39.1542 198.382 41.1085L198.521 42.2427Z" fill="#50A0FF"/>
<path d="M216.824 42.8248C216.011 42.1561 215.336 41.3317 214.796 40.3514C214.269 39.37 213.92 38.517 213.75 37.7926C213.579 37.0682 213.448 36.6047 213.356 36.4023C213.276 36.1987 213.15 36.0116 212.979 35.841C212.635 35.4883 212.041 35.1561 211.195 34.8444C212.161 34.2832 212.731 33.4868 212.906 32.4551C212.958 32.1668 212.992 31.8804 213.01 31.5958C213.093 29.4777 213.918 27.6294 215.484 26.0507C217.049 24.4603 218.974 23.545 221.258 23.3048C223.636 23.0548 225.756 23.5506 227.618 24.7923C229.431 26.0039 230.598 27.6369 231.121 29.6911C231.303 30.4143 231.517 30.9339 231.762 31.2498C232.223 31.8258 232.826 32.2396 233.572 32.4912C232.819 32.9591 232.342 33.351 232.14 33.6669C231.868 34.1079 231.721 34.6124 231.698 35.1804C231.614 37.9701 230.879 40.1626 229.491 41.7578C228.102 43.3415 226.126 44.2681 223.562 44.5377C220.811 44.827 218.565 44.256 216.824 42.8248ZM224.984 29.824C224.677 26.9103 223.533 25.5577 221.552 25.7661C219.571 25.9744 218.734 27.5354 219.04 30.449L219.854 38.1934C220.149 40.9905 221.28 42.2855 223.25 42.0783C225.243 41.8688 226.092 40.3654 225.798 37.5684L224.984 29.824ZM227.644 38.9827C228.203 38.7 228.443 37.9029 228.364 36.5915C228.297 35.2788 228.23 34.3078 228.164 33.6785C228.097 33.0375 228.035 32.5078 227.979 32.0895C227.934 31.6583 227.882 31.216 227.822 30.7627C227.597 29.0661 227.358 28.0895 227.107 27.8331C226.857 27.5767 226.627 27.4123 226.419 27.3399L227.644 38.9827ZM217.172 40.0839C217.322 39.9386 217.388 39.7843 217.371 39.6211C217.344 39.3647 217.257 39.0439 217.111 38.6587C216.44 36.8792 216.068 35.634 215.993 34.9231C215.917 34.2005 215.882 33.6386 215.887 33.2375C215.89 32.8247 215.906 32.4106 215.933 31.9954C216.001 31.1869 216.085 30.4711 216.184 29.8479C216.247 29.4406 216.272 29.1671 216.257 29.0272C216.227 28.7475 216.124 28.5521 215.948 28.4411C215.52 29.0753 215.229 29.8954 215.075 30.9013C214.922 31.9072 214.803 32.7917 214.718 33.5548C214.693 33.8756 214.381 34.2148 213.782 34.5723C214.442 34.7975 214.817 35.0527 214.906 35.3379C215.544 37.2622 216.031 38.4777 216.367 38.9843C216.703 39.491 216.972 39.8576 217.172 40.0839Z" fill="#50A0FF"/>
<path d="M254.884 39.4576C253.941 40.9493 252.407 41.7856 250.282 41.9667C247.689 42.1875 245.679 41.5766 244.251 40.1341C243.634 39.5163 243.185 38.8076 242.905 38.0082C242.747 37.5277 242.511 37.1715 242.197 36.9395C241.882 36.6958 241.5 36.4872 241.05 36.3139C241.858 35.8569 242.397 35.0818 242.669 33.9884C242.958 32.8346 243.532 31.9684 244.388 31.3897C245.312 30.7817 246.357 30.4163 247.523 30.2935C248.688 30.159 249.548 30.0445 250.105 29.95C250.661 29.8556 251.151 29.7374 251.574 29.5955C252.364 29.3401 252.965 28.9419 253.378 28.401L253.154 25.7738C253.055 24.6178 252.744 23.7917 252.219 23.2954C251.706 22.798 250.966 22.5906 249.996 22.6732C249.039 22.7548 248.342 22.9964 247.906 23.3982C247.48 23.7873 247.293 24.2796 247.344 24.8751C247.421 25.7858 247.926 26.1897 248.858 26.0868C248.749 27.0135 248.297 27.5107 247.503 27.5783C247.27 27.5982 247.039 27.5767 246.81 27.5139L246.814 27.5664C246.84 27.87 246.997 28.0507 247.284 28.1086C247.03 28.5772 246.558 28.835 245.868 28.882C245.178 28.929 244.609 28.6069 244.163 27.9158C243.991 27.9774 243.789 28.0182 243.555 28.0381C243.334 28.057 243.076 28.0025 242.783 27.8746C242.501 27.7456 242.268 27.5539 242.081 27.2992C242.635 26.8992 242.945 26.3259 243.011 25.5794C243.074 24.6683 243.715 23.6964 244.932 22.6635C246.403 21.421 248.352 20.6963 250.781 20.4894C254.809 20.1462 257.372 21.1745 258.471 23.5743C258.833 24.3785 259.063 25.3469 259.159 26.4795L259.28 27.8982C259.329 28.4703 259.509 28.9255 259.82 29.2636C260.142 29.6007 260.658 29.8566 261.367 30.0315C260.66 30.4328 260.213 30.7766 260.026 31.0631C259.746 31.4986 259.628 31.9791 259.672 32.5046L260.12 37.759C260.533 38.6059 261.055 39.0024 261.686 38.9487C262.083 38.9149 262.401 38.7878 262.641 38.5674C262.823 38.7753 262.929 39.0486 262.958 39.3872C262.986 39.7142 262.843 40.0439 262.531 40.3763C262.23 40.7077 261.746 40.9018 261.081 40.9585C260.415 41.0152 259.78 40.8811 259.176 40.5562C258.706 40.9726 258.272 41.1977 257.875 41.2315C257.49 41.2644 257.148 41.2524 256.849 41.1955C256.563 41.1493 256.29 41.0549 256.031 40.9123C255.452 40.5971 255.069 40.1122 254.884 39.4576ZM255.734 36.3861C256.388 36.0598 256.634 34.7392 256.472 32.4243C256.431 31.9339 256.383 31.3734 256.329 30.7429C256.275 30.1124 256.224 29.5758 256.174 29.1331C256.136 28.6777 256.093 28.2461 256.046 27.8385C255.874 26.3712 255.666 25.5069 255.42 25.2456C255.173 24.9726 254.947 24.7978 254.74 24.7213L255.734 36.3861ZM249.165 35.6931C249.207 36.1835 249.3 36.6578 249.445 37.1159C249.59 37.574 249.782 37.9692 250.022 38.3016C250.552 38.9975 251.243 39.3091 252.095 39.2364C252.738 39.1817 253.246 38.8738 253.622 38.3125C253.975 37.7649 254.118 37.0883 254.049 36.2826L253.563 30.5728C252.852 31.0685 251.92 31.4478 250.766 31.7108C249.499 32.0187 248.965 33.3461 249.165 35.6931ZM246.873 39.8577C246.983 39.766 247.033 39.656 247.022 39.5275C247.007 39.3524 246.904 39.1141 246.714 38.8128C246.039 37.7883 245.671 36.9316 245.613 36.2427C245.554 35.5538 245.535 35.0555 245.556 34.748C245.589 34.4394 245.637 34.1766 245.701 33.9594C245.775 33.7296 245.858 33.5285 245.949 33.3561C246.052 33.1827 246.139 33.0282 246.21 32.8928C246.338 32.6113 246.399 32.4239 246.391 32.3305C246.382 32.2254 246.322 32.1423 246.211 32.0812C245.751 32.3438 245.423 32.6364 245.227 32.9589C244.876 33.5298 244.643 34.2494 244.529 35.1177C244.503 35.3669 244.12 35.6995 243.379 36.1154C244.155 36.3904 244.589 36.6533 244.681 36.9042C245.197 38.2599 245.927 39.2444 246.873 39.8577Z" fill="#50A0FF"/>
<path d="M288.073 38.3099C287.321 39.1162 286.577 39.5407 285.84 39.5833C285.43 39.6069 285.141 39.4711 284.971 39.1757C285.225 38.891 285.344 38.6142 285.328 38.3451C285.313 38.076 285.26 37.8736 285.17 37.738L284.918 37.3475L285.23 37.8578C284.941 37.7453 284.713 37.5414 284.543 37.246C284.373 36.9506 284.276 36.5864 284.251 36.1536C284.225 35.709 284.442 35.1917 284.901 34.6018C284.648 34.2877 284.51 33.9318 284.487 33.534C284.464 33.1363 284.509 32.805 284.623 32.5401C284.748 32.263 284.91 32.013 285.108 31.7902C285.551 31.3186 286.035 31.0676 286.561 31.0372C286.912 31.017 287.171 31.1253 287.337 31.3622C287.041 31.7197 286.914 32.267 286.957 33.0041C286.999 33.7294 287.157 34.3424 287.433 34.843C287.72 35.3429 288.09 35.7617 288.544 36.0993C289.501 36.8188 290.647 37.14 291.98 37.063C293.466 36.9772 294.464 36.3738 294.975 35.2526C295.119 34.9156 295.182 34.5833 295.164 34.2557C295.144 33.9164 295.051 33.6225 294.884 33.3739C294.716 33.1136 294.502 32.8677 294.242 32.6362C293.81 32.262 293.158 31.8419 292.286 31.3758C291.445 30.8491 290.475 30.6176 289.376 30.6811C288.662 30.7223 288.186 30.8085 287.947 30.9396C288.079 30.5799 288.134 30.2245 288.114 29.8735C288.094 29.5226 287.838 29.1558 287.346 28.7734C286.854 28.3792 286.408 27.9824 286.01 27.5828C285.623 27.1826 285.306 26.7783 285.059 26.37C284.569 25.6001 284.298 24.7706 284.247 23.8814C284.195 22.9923 284.331 22.198 284.655 21.4985C284.989 20.7866 285.476 20.1657 286.114 19.6359C287.446 18.5142 289.2 17.8906 291.377 17.7649C292.429 17.7041 293.152 17.7094 293.543 17.7807C293.946 17.8513 294.267 17.9208 294.506 17.9892C294.829 18.088 295.218 18.1242 295.674 18.0978C296.131 18.0715 296.441 17.9538 296.605 17.7448C296.78 17.5351 296.864 17.3483 296.854 17.1845C296.844 17.009 296.819 16.8755 296.778 16.7839C296.847 16.7565 296.952 16.7387 297.092 16.7306C297.232 16.7225 297.393 16.7543 297.573 16.8261C297.765 16.8972 297.935 16.9989 298.084 17.1312C298.383 17.4308 298.543 17.762 298.564 18.1247C298.584 18.4756 298.529 18.7488 298.4 18.9441C298.745 19.2293 298.933 19.6528 298.966 20.2143C298.998 20.7759 298.792 21.2632 298.346 21.6763C298.463 21.8808 298.531 22.1352 298.549 22.4393C298.566 22.7435 298.419 23.0455 298.108 23.3452C297.796 23.6449 297.495 23.8032 297.202 23.82C296.699 23.8491 296.356 23.8043 296.173 23.6858C296.304 23.3026 296.356 22.8946 296.331 22.4617C296.306 22.0172 296.164 21.6027 295.907 21.2185C295.65 20.8342 295.333 20.5297 294.957 20.305C294.251 19.8762 293.43 19.6888 292.494 19.7429C291.313 19.8111 290.539 20.2314 290.173 21.0038C290.057 21.2452 290.008 21.5063 290.024 21.7871C290.04 22.0562 290.089 22.3057 290.173 22.5356C290.268 22.7532 290.41 22.9739 290.599 23.1977C290.964 23.6344 291.469 24.0396 292.113 24.4133C292.95 24.8931 293.527 25.1239 293.843 25.1057C294.521 25.0665 295.103 24.8686 295.587 24.512C295.479 25.0816 295.431 25.4776 295.444 25.6999C295.464 26.0392 295.756 26.4156 296.319 26.8291C297.889 27.7831 298.973 28.6772 299.573 29.5112C300.148 30.3231 300.466 31.2439 300.525 32.2734C300.584 33.3029 300.407 34.1994 299.994 34.9628C299.579 35.7145 298.995 36.3762 298.242 36.948C296.678 38.1299 294.739 38.7877 292.422 38.9215C290.843 39.0127 289.393 38.8088 288.073 38.3099ZM286.531 22.2705C286.201 22.4539 286.057 22.92 286.101 23.6687C286.143 24.4058 286.424 25.0998 286.943 25.7506C287.461 26.3898 288.265 27.1005 289.355 27.8827C289.611 28.0557 289.745 28.2299 289.755 28.4054C289.77 28.6745 289.759 28.8923 289.722 29.0588C289.86 29.0156 290.104 28.9663 290.453 28.9109C291.302 28.7797 292.384 29.1164 293.698 29.9208C295.782 31.0448 296.864 32.2911 296.943 33.66C296.972 34.1747 296.925 34.5648 296.799 34.8303C297.215 34.7241 297.517 34.3487 297.702 33.7041C297.75 33.5136 297.768 33.3188 297.757 33.1199C297.702 32.1723 297.132 31.2427 296.046 30.3311C294.972 29.4071 293.449 28.5443 291.477 27.7425C288.202 26.3118 286.553 24.4878 286.531 22.2705Z" fill="#50A0FF"/>
<path d="M312.45 14.1842C311.853 14.2101 311.266 14.0772 310.691 13.7855C310.127 13.4932 309.687 13.09 309.371 12.5759C309.032 12.051 308.593 11.6595 308.054 11.4014C307.886 11.3265 307.695 11.2469 307.48 11.1623L308.061 10.7676C308.608 10.392 309.005 9.94668 309.253 9.43157C309.5 8.91646 309.887 8.50673 310.413 8.20238C310.951 7.88582 311.536 7.71383 312.168 7.68641C313.479 7.62954 314.451 8.13868 315.085 9.21381C315.514 9.92243 316.152 10.4343 316.999 10.7495C316.828 10.8625 316.656 10.9638 316.484 11.0533C316.324 11.1424 316.17 11.2429 316.022 11.3549C315.693 11.6038 315.403 11.9624 315.154 12.4306C314.916 12.8984 314.552 13.3013 314.063 13.6392C313.584 13.9766 313.047 14.1583 312.45 14.1842ZM311.426 12.0821C311.35 11.9563 311.285 11.8125 311.231 11.6506C311.189 11.4765 311.158 11.1729 311.139 10.7397C311.12 10.3065 311.319 9.74662 311.735 9.05999C311.302 9.07877 311.001 9.17393 310.832 9.34546C310.663 9.50527 310.535 9.64575 310.446 9.76689C310.369 9.87582 310.297 9.99034 310.232 10.1105C310.178 10.2184 310.107 10.3388 310.019 10.4716C309.81 10.7974 309.637 10.9984 309.5 11.0747C309.692 11.172 309.869 11.3344 310.031 11.5619C310.205 11.7773 310.402 12.0033 310.624 12.24C310.957 12.6127 311.381 12.7878 311.896 12.7655C311.82 12.6397 311.739 12.526 311.652 12.4242C311.577 12.3101 311.501 12.1961 311.426 12.0821ZM311.692 37.2837C311.17 37.6817 310.563 37.8956 309.873 37.9256C309.194 37.9551 308.678 37.8249 308.325 37.5353C307.984 37.2451 307.807 36.9595 307.795 36.6785C307.778 36.2922 307.847 35.9842 308.001 35.7546C308.268 35.9425 308.652 36.0255 309.156 36.0037C309.659 35.9819 310.078 35.6352 310.413 34.9639L310.17 29.3617C310.147 28.8466 310.026 28.4765 309.805 28.2515C309.45 27.915 308.824 27.5492 307.928 27.1541C308.731 26.7439 309.239 26.4227 309.452 26.1906C309.821 25.7875 309.994 25.305 309.969 24.743L309.858 22.179C309.815 21.1839 309.452 20.66 308.77 20.6075C308.57 20.5927 308.317 20.592 308.013 20.6052C307.709 20.6184 307.432 20.7301 307.183 20.9403C307.009 20.7249 306.918 20.5002 306.907 20.266C306.897 20.0202 306.944 19.7483 307.048 19.4506C307.164 19.1406 307.344 18.8454 307.59 18.5649C308.172 17.9063 308.86 17.5597 309.656 17.5252C310.453 17.4907 311.179 17.5999 311.835 17.853C312.376 17.0788 313.015 16.6757 313.753 16.6437C314.959 16.5914 315.589 17.1975 315.644 18.4619L315.905 24.4856C315.93 25.0475 316.07 25.4461 316.327 25.6813C316.705 26.0285 317.313 26.3717 318.148 26.7108C317.289 27.182 316.753 27.5337 316.54 27.7658C316.228 28.143 316.083 28.5891 316.106 29.1043L316.351 34.7591C316.764 35.3629 317.217 35.6541 317.708 35.6327C318.2 35.6114 318.57 35.4957 318.819 35.2855C318.993 35.5008 319.087 35.7782 319.102 36.1177C319.116 36.4456 318.96 36.769 318.634 37.0882C318.319 37.4068 317.828 37.5806 317.161 37.6095C316.493 37.6385 315.865 37.478 315.275 37.1283C314.811 37.5237 314.24 37.7362 313.561 37.7657C312.882 37.7951 312.259 37.6344 311.692 37.2837ZM312.841 28.8939C312.836 28.4954 312.827 28.1615 312.816 27.8922C312.816 27.6224 312.812 27.4055 312.805 27.2416L312.784 26.7675C312.777 26.5919 312.761 26.3638 312.737 26.0833C312.725 25.8023 312.706 25.4923 312.679 25.1533C312.665 24.8138 312.644 24.4804 312.618 24.1531C312.536 23.3473 312.454 22.7937 312.37 22.4923C312.2 21.8194 311.911 21.3627 311.502 21.1224L311.551 22.2639C311.637 24.2426 311.641 25.4095 311.562 25.7648C311.495 26.1079 311.366 26.3715 311.174 26.5558C310.994 26.7278 310.719 26.8864 310.35 27.0314C311.063 27.2468 311.474 27.5281 311.583 27.8752C311.748 28.4311 311.873 29.6984 311.959 31.677L312.009 32.8185C312.532 32.4439 312.805 31.7107 312.828 30.6188C312.854 29.867 312.859 29.292 312.841 28.8939Z" fill="#50A0FF"/>
<path d="M329.616 36.5878C329.088 36.9781 328.478 37.1832 327.787 37.203C327.096 37.2228 326.588 37.0791 326.262 36.7719C325.948 36.4527 325.787 36.1466 325.779 35.8538C325.768 35.4672 325.824 35.1842 325.948 35.0048C326.211 35.1966 326.542 35.2867 326.94 35.2753C327.69 35.2538 328.166 34.8767 328.367 34.1441L328.215 28.8201C328.199 28.2813 328.082 27.886 327.864 27.6343C327.476 27.1883 326.855 26.7723 326 26.3865C327.41 25.6895 328.095 24.6616 328.057 23.3028L328.004 21.4579C327.975 20.4622 327.62 19.9331 326.938 19.8706C326.738 19.8529 326.486 19.8484 326.182 19.8571C325.877 19.8658 325.599 19.9735 325.347 20.18C325.176 19.9621 325.088 19.7361 325.081 19.5018C325.074 19.2558 325.125 18.9847 325.234 18.6885C325.354 18.3802 325.539 18.0877 325.789 17.8109C326.38 17.1609 327.079 16.8243 327.888 16.8011C328.708 16.7776 329.391 16.887 329.937 17.1292C330.56 16.3845 331.241 16.0015 331.979 15.9804C333.127 15.9474 333.719 16.5635 333.755 17.8286L333.824 20.2358C334.913 17.3206 336.734 15.8264 339.288 15.7532C340.436 15.7202 341.377 16.045 342.112 16.7273C342.871 17.4207 343.268 18.3999 343.304 19.665L343.311 19.911C343.314 19.993 343.307 20.1632 343.291 20.4216C343.274 20.6683 343.287 20.9199 343.33 21.1766C343.384 21.433 343.461 21.6418 343.559 21.8032C343.695 22.0454 343.941 22.2318 344.296 22.3623C344.223 22.681 344.038 22.9735 343.741 23.2399C343.455 23.4943 343.131 23.6267 342.767 23.6371L342.434 23.6467C341.993 24.2338 341.366 24.6562 340.553 24.914C340.321 24.991 340.064 25.0336 339.783 25.0416C339.514 25.0494 339.272 24.9977 339.058 24.8866C338.855 24.7634 338.74 24.6319 338.712 24.492C338.932 24.3802 339.037 24.1662 339.028 23.8499L339.025 23.762C338.932 23.7882 338.851 23.8022 338.78 23.8042L338.605 23.8093C338.218 23.8204 337.862 23.684 337.538 23.4002C337.225 23.1161 337.015 22.7528 336.909 22.3104C337.542 22.3157 338.086 22.0656 338.54 21.5602C338.949 21.1147 339.148 20.6635 339.134 20.2067C339.104 19.129 338.62 18.6036 337.682 18.6305C336.874 18.6536 336.078 19.3212 335.295 20.6333C334.556 21.8386 334.105 23.0766 333.942 24.3474L334.215 33.8533C334.356 34.2596 334.563 34.5584 334.839 34.7498C335.114 34.9413 335.486 35.0302 335.954 35.0168C336.423 35.0034 336.783 34.8934 337.035 34.6869C337.169 34.8589 337.241 35.1147 337.25 35.4544C337.26 35.7941 337.112 36.1325 336.805 36.4696C336.509 36.7946 335.992 36.9677 335.255 36.9888C334.528 37.0097 333.826 36.8305 333.146 36.4514C332.689 36.8631 332.127 37.0785 331.459 37.0977C330.792 37.1168 330.177 36.9469 329.616 36.5878ZM330.888 28.2159C330.888 27.8173 330.885 27.4833 330.877 27.2138C330.881 26.9441 330.88 26.7272 330.876 26.5632L330.862 26.0888C330.857 25.9131 330.845 25.6907 330.825 25.4216C330.817 25.1405 330.803 24.8302 330.781 24.4908C330.771 24.1394 330.755 23.7999 330.734 23.4722C330.629 22.256 330.472 21.4809 330.263 21.1469C330.066 20.8009 329.866 20.5663 329.663 20.4431L329.695 21.5852C329.752 23.5532 329.738 24.7142 329.655 25.0683C329.582 25.4103 329.449 25.6721 329.255 25.8535C329.072 26.0229 328.795 26.1774 328.424 26.317C329.134 26.5428 329.541 26.8301 329.645 27.1788C329.802 27.7371 329.908 29.0001 329.965 30.9681L329.997 32.1102C330.526 31.7433 330.81 31.02 330.849 29.9403C330.886 29.1773 330.899 28.6024 330.888 28.2159Z" fill="#50A0FF"/>
<path d="M354.528 35.9869C353.993 36.3672 353.379 36.5608 352.688 36.5676C352.008 36.5744 351.497 36.4271 351.154 36.1258C350.823 35.8243 350.656 35.533 350.653 35.2518C350.649 34.8651 350.728 34.5596 350.89 34.3353C351.15 34.532 351.479 34.6283 351.878 34.6244C352.557 34.6177 353.04 34.2203 353.325 33.4323L353.271 28.0361C353.266 27.5205 353.157 27.1465 352.944 26.9142C352.612 26.5542 351.999 26.1618 351.104 25.7371C351.921 25.354 352.439 25.05 352.66 24.8252C353.042 24.4346 353.231 23.9581 353.226 23.3957L353.127 13.4469C353.114 12.1111 352.562 11.4485 351.473 11.4593C351.074 11.4632 350.747 11.5661 350.491 11.7679C350.325 11.5468 350.241 11.3191 350.238 11.0848C350.236 10.8387 350.292 10.6038 350.407 10.3799C350.534 10.156 350.725 9.94905 350.981 9.759C351.528 9.35513 352.223 9.14902 353.067 9.14067C353.911 9.13232 354.567 9.17856 355.037 9.27938C355.674 8.46445 356.396 8.05298 357.205 8.04498C358.412 8.03303 359.021 8.65984 359.034 9.9254L359.18 24.6376L364.213 19.8942C364.978 19.0897 365.359 18.5117 365.356 18.1601C365.352 17.8086 365.128 17.635 364.683 17.6394C364.237 17.6438 363.823 17.7593 363.438 17.9857C363.307 17.7761 363.24 17.5072 363.237 17.1791C363.233 16.8393 363.406 16.5094 363.754 16.1895C364.103 15.8697 364.599 15.7065 365.244 15.7002C365.888 15.6938 366.458 15.8874 366.955 16.2809C367.408 15.878 367.904 15.6738 368.443 15.6685C368.982 15.6632 369.452 15.8167 369.854 16.1292C370.249 15.8088 370.716 15.646 371.255 15.6407C371.794 15.6353 372.241 15.7715 372.595 16.0493C372.961 16.3269 373.147 16.7001 373.151 17.1688C373.155 17.6024 373.1 17.9018 372.984 18.067C372.665 17.7538 372.271 17.5995 371.802 17.6041C371.345 17.6086 370.971 17.6826 370.679 17.8262C370.399 17.9578 370.09 18.1543 369.753 18.4154C369.416 18.6649 369.044 18.9733 368.637 19.3406L365.745 21.9006L371.21 32.3939C371.545 33.0937 371.837 33.6065 372.087 33.9322C372.348 34.2577 372.672 34.4186 373.058 34.4148C373.457 34.4108 373.784 34.308 374.04 34.1062C374.206 34.3272 374.291 34.6076 374.294 34.9475C374.297 35.2756 374.13 35.5937 373.794 35.9017C373.469 36.2096 372.943 36.3672 372.216 36.3744C371.49 36.3815 370.785 36.1893 370.101 35.7976C369.554 36.2015 368.947 36.4067 368.279 36.4133C367.623 36.4198 367.047 36.2497 366.551 35.9031C366.098 36.2591 365.584 36.44 365.01 36.4457C364.447 36.4513 363.995 36.321 363.652 36.0548C363.309 35.7769 363.136 35.4271 363.132 35.0052C363.128 34.5834 363.213 34.2954 363.387 34.1413C363.848 34.4883 364.305 34.5424 364.76 34.3035C364.923 34.2199 365.068 34.0602 365.195 33.8246L361.388 25.7583L359.21 27.696L359.269 33.6371C359.497 34.2091 359.869 34.4926 360.384 34.4875C360.654 34.4848 360.922 34.3767 361.19 34.1631C361.367 34.3137 361.458 34.6057 361.462 35.0393C361.466 35.4612 361.3 35.8085 360.963 36.0814C360.626 36.3543 360.17 36.4936 359.596 36.4993C359.022 36.505 358.504 36.3343 358.044 35.9873C357.567 36.3436 357 36.525 356.344 36.5315C355.688 36.538 355.082 36.3564 354.528 35.9869ZM355.899 25.3029L355.893 22.9649L355.859 19.5198C355.838 17.3402 355.784 16.0692 355.698 15.7067C355.527 14.9936 355.223 14.4985 354.787 14.2216L354.846 20.1451C354.87 22.5708 354.854 23.9245 354.798 24.2063C354.754 24.4763 354.715 24.6759 354.681 24.8052C354.579 25.1695 354.184 25.4722 353.495 25.7134C354.2 25.9525 354.601 26.2416 354.699 26.5805C354.845 27.1415 354.928 28.4064 354.947 30.3751L354.958 31.5176C355.575 31.113 355.893 30.0551 355.911 28.3439L355.901 27.2893C355.909 26.9376 355.912 26.627 355.909 26.3575L355.899 25.3029ZM366.12 31.4247C366.27 31.224 366.344 30.9537 366.341 30.6139C366.337 30.274 366.305 29.9697 366.244 29.7007C366.194 29.4317 366.127 29.1628 366.042 28.8941C365.886 28.462 365.658 27.9486 365.359 27.3539L363.653 23.7495L362.869 24.4604L366.12 31.4247Z" fill="#50A0FF"/>
<path d="M397.669 36.5425C396.017 36.5251 395.139 35.3731 395.034 33.0867C394.425 34.1585 393.607 35.0053 392.581 35.6273C391.567 36.2494 390.473 36.5543 389.302 36.5419C388.142 36.5296 387.2 36.3615 386.477 36.0374C385.754 35.7133 385.155 35.2499 384.681 34.6472C383.756 33.4655 383.305 31.7965 383.327 29.6404L383.339 28.5506C383.353 27.1913 382.649 26.176 381.227 25.5047C382.075 25.1035 382.617 24.7635 382.855 24.4847C383.211 24.0549 383.392 23.5704 383.397 23.0314L383.423 20.6585C383.433 19.6625 383.099 19.1198 382.42 19.0306C382.221 19.0051 381.969 18.9907 381.665 18.9875C381.36 18.9842 381.078 19.0809 380.818 19.2774C380.656 19.053 380.577 18.8236 380.579 18.5892C380.582 18.3432 380.643 18.0743 380.763 17.7825C380.895 17.4792 381.092 17.1942 381.352 16.9274C381.969 16.3011 382.681 15.9922 383.489 16.0007C384.298 16.0093 385.058 16.1521 385.77 16.4292C386.294 15.6964 386.907 15.3337 387.61 15.3412C388.817 15.3539 389.414 15.9931 389.4 17.2587L389.279 28.7014C389.256 30.9278 389.757 32.2691 390.784 32.7253C391.11 32.8694 391.473 32.9436 391.871 32.9478C392.281 32.9521 392.651 32.874 392.981 32.7134C393.311 32.5411 393.601 32.3098 393.85 32.0195C394.313 31.4501 394.614 30.6681 394.754 29.6734L394.848 20.7794C394.862 19.4435 394.324 18.7698 393.234 18.7583C392.836 18.7541 392.507 18.8502 392.247 19.0467C392.085 18.8223 392.005 18.5929 392.008 18.3586C392.01 18.1125 392.072 17.8612 392.192 17.6046C392.323 17.3365 392.519 17.0924 392.779 16.8725C393.359 16.363 394.059 16.1126 394.879 16.1213C395.711 16.1301 396.483 16.273 397.195 16.5501C397.719 15.8173 398.332 15.4546 399.035 15.4621C400.242 15.4748 400.839 16.114 400.825 17.3795L400.764 23.2152C400.758 23.7542 400.859 24.1537 401.067 24.4138C401.438 24.8747 402.042 25.3147 402.882 25.7338C401.445 26.3749 400.72 27.3751 400.705 28.7344L400.657 33.2693C400.87 34.1739 401.352 34.6302 402.102 34.6382C402.5 34.6424 402.829 34.5462 403.089 34.3498C403.251 34.5741 403.33 34.8562 403.326 35.1961C403.323 35.5242 403.15 35.8388 402.807 36.1398C402.475 36.441 401.952 36.5879 401.237 36.5803C400.534 36.5729 399.868 36.3783 399.24 35.9966C398.767 36.3666 398.244 36.5486 397.669 36.5425ZM396.404 31.5191C397.087 31.2568 397.458 29.9657 397.517 27.6459C397.523 27.1537 397.529 26.5913 397.535 25.9585C397.542 25.3257 397.542 24.7866 397.535 24.3412C397.54 23.8842 397.538 23.4506 397.531 23.0403C397.5 21.5633 397.374 20.6831 397.155 20.3995C396.935 20.1042 396.726 19.9086 396.528 19.8127L396.404 31.5191ZM385.955 25.5547L386.032 23.2351C386.043 22.1922 386.015 21.5004 385.949 21.1599C385.759 20.2672 385.483 19.7779 385.12 19.692L385.108 20.8345C385.087 22.8149 385.028 23.9804 384.931 24.3309C384.845 24.6699 384.702 24.9262 384.501 25.0998C384.311 25.2619 384.029 25.4054 383.652 25.5303C384.353 25.7839 384.748 26.0869 384.838 26.4394C384.973 27.0034 385.03 28.2755 385.009 30.2559L384.996 31.3984C385.349 31.3201 385.641 30.8017 385.874 29.8432C385.936 29.5743 385.972 28.9184 385.983 27.8754L385.955 25.5547Z" fill="#50A0FF"/>
<path d="M414.661 36.1165C413.843 36.8547 413.064 37.2132 412.326 37.1918C411.916 37.1799 411.64 37.0194 411.496 36.7104C411.773 36.4488 411.916 36.1833 411.924 35.9139C411.932 35.6445 411.897 35.4383 411.819 35.2954L411.602 34.8846L411.868 35.4199C411.59 35.2829 411.38 35.0599 411.237 34.7509C411.093 34.4419 411.028 34.0707 411.04 33.6373C411.053 33.1922 411.314 32.6957 411.822 32.1477C411.597 31.8129 411.491 31.4464 411.502 31.0481C411.514 30.6498 411.588 30.3237 411.724 30.0697C411.873 29.8044 412.055 29.5694 412.272 29.3646C412.754 28.9331 413.258 28.725 413.785 28.7403C414.136 28.7505 414.385 28.8808 414.53 29.1312C414.204 29.4617 414.03 29.996 414.009 30.7339C413.987 31.4602 414.092 32.0846 414.323 32.6071C414.566 33.13 414.899 33.5793 415.322 33.955C416.213 34.7546 417.326 35.1738 418.662 35.2126C420.15 35.2558 421.196 34.741 421.802 33.6682C421.975 33.345 422.067 33.0194 422.076 32.6914C422.086 32.3517 422.019 32.0508 421.874 31.7887C421.729 31.5149 421.538 31.2514 421.299 30.9982C420.9 30.5881 420.287 30.113 419.459 29.5732C418.667 28.9757 417.721 28.661 416.62 28.6291C415.905 28.6084 415.423 28.653 415.174 28.763C415.336 28.416 415.422 28.0668 415.433 27.7154C415.443 27.364 415.22 26.9765 414.763 26.5529C414.307 26.1176 413.897 25.6837 413.535 25.2511C413.184 24.8188 412.903 24.3886 412.693 23.9605C412.271 23.151 412.073 22.3012 412.098 21.4109C412.124 20.5207 412.329 19.7411 412.711 19.0723C413.106 18.392 413.645 17.8156 414.327 17.343C415.751 16.3409 417.552 15.8715 419.731 15.9347C420.785 15.9653 421.505 16.0331 421.888 16.138C422.284 16.2433 422.598 16.3403 422.83 16.4291C423.142 16.5554 423.527 16.6252 423.984 16.6384C424.441 16.6517 424.76 16.5613 424.942 16.3673C425.135 16.1736 425.234 15.9947 425.239 15.8307C425.244 15.655 425.23 15.5198 425.198 15.4251C425.269 15.4037 425.374 15.395 425.515 15.3991C425.655 15.4032 425.812 15.4488 425.986 15.5359C426.171 15.6233 426.331 15.7394 426.468 15.884C426.74 16.2084 426.871 16.5522 426.86 16.9153C426.85 17.2668 426.772 17.5341 426.626 17.7175C426.945 18.0316 427.096 18.4697 427.08 19.032C427.064 19.5943 426.816 20.0619 426.336 20.4348C426.435 20.6487 426.48 20.908 426.472 21.2125C426.463 21.5171 426.29 21.8052 425.954 22.0768C425.618 22.3484 425.303 22.48 425.011 22.4715C424.507 22.4568 424.169 22.3826 423.997 22.2486C424.16 21.8782 424.248 21.4763 424.261 21.0429C424.274 20.5977 424.169 20.1726 423.946 19.7676C423.723 19.3625 423.434 19.0317 423.078 18.7752C422.412 18.2869 421.611 18.0292 420.674 18.002C419.491 17.9676 418.683 18.3194 418.251 19.0572C418.116 19.2877 418.044 19.5435 418.036 19.8247C418.028 20.0941 418.056 20.347 418.119 20.5833C418.195 20.8082 418.317 21.0404 418.486 21.2797C418.812 21.7464 419.28 22.1938 419.889 22.6218C420.682 23.1724 421.236 23.4522 421.553 23.4614C422.232 23.4811 422.828 23.3343 423.342 23.0209C423.185 23.5791 423.103 23.9695 423.097 24.1921C423.087 24.5318 423.345 24.932 423.871 25.3927C425.352 26.4791 426.355 27.4637 426.88 28.3465C427.383 29.2052 427.619 30.15 427.589 31.1808C427.559 32.2116 427.305 33.0894 426.827 33.8141C426.349 34.5271 425.71 35.1357 424.91 35.6401C423.25 36.6822 421.26 37.1696 418.941 37.1023C417.36 37.0565 415.933 36.7278 414.661 36.1165ZM414.513 20.0038C414.169 20.158 413.986 20.6099 413.964 21.3596C413.943 22.0975 414.162 22.8132 414.623 23.5065C415.084 24.1881 415.823 24.9658 416.841 25.8394C417.082 26.034 417.199 26.2191 417.194 26.3948C417.187 26.6642 417.157 26.8803 417.105 27.0429C417.247 27.0118 417.494 26.9838 417.846 26.9589C418.704 26.9017 419.752 27.3307 420.992 28.246C422.971 29.5461 423.94 30.8814 423.9 32.252C423.885 32.7674 423.804 33.1519 423.656 33.4055C424.08 33.3358 424.412 32.9878 424.653 32.3617C424.717 32.176 424.752 31.9836 424.758 31.7845C424.786 30.8356 424.298 29.8601 423.295 28.858C422.305 27.8445 420.862 26.853 418.968 25.8835C415.828 24.1746 414.344 22.2147 414.513 20.0038Z" fill="#50A0FF"/>
<path d="M453.589 37.3822C452.6 38.2655 451.684 38.6834 450.842 38.6359C450.304 38.6055 449.952 38.3862 449.787 37.9778C450.075 37.6654 450.237 37.1816 450.274 36.5264L450.289 36.2631C450.293 36.1929 450.291 36.1282 450.282 36.0691C449.727 35.5096 449.469 34.873 449.51 34.1593C449.551 33.4339 449.931 32.7159 450.652 32.0053C450.476 31.5963 450.4 31.1695 450.425 30.7249C450.451 30.2686 450.539 29.851 450.689 29.4721C450.852 29.0823 451.059 28.7477 451.309 28.4683C451.837 27.8525 452.335 27.5578 452.803 27.5842C453.283 27.6113 453.611 27.8176 453.789 28.2032C453.343 28.6241 453.093 29.3083 453.04 30.2561C452.986 31.2038 453.074 32.0362 453.304 32.7534C453.545 33.4712 453.903 34.0959 454.378 34.6274C455.392 35.7879 456.736 36.4153 458.409 36.5096C459.532 36.5729 460.504 36.3049 461.324 35.7056C462.205 35.0628 462.68 34.1447 462.747 32.9512C462.795 32.1088 462.634 31.4132 462.266 30.8642C461.692 30.0103 460.77 29.0897 459.499 28.1025C458.522 27.3315 457.728 26.9288 457.12 26.8945C456.5 26.8595 455.801 27.0725 455.024 27.5334C455.257 26.9479 455.387 26.3977 455.416 25.8829C455.423 25.7659 455.32 25.6075 455.109 25.4078L454.492 24.792C452.551 22.7929 451.438 20.9754 451.155 19.3397C451.058 18.7708 451.033 18.0652 451.081 17.2228C451.129 16.3687 451.382 15.5203 451.84 14.6775C452.311 13.8238 452.926 13.1131 453.686 12.5456C455.268 11.3437 457.223 10.8083 459.551 10.9396C460.967 11.0194 462.253 11.3208 463.409 11.8437C463.901 12.071 464.468 12.2027 465.112 12.239C465.381 12.2542 465.621 12.256 465.833 12.2445C466.058 12.2219 466.258 12.1099 466.433 11.9086C466.598 11.6948 466.685 11.5002 466.695 11.3247C466.705 11.1492 466.69 11.0016 466.65 10.882C466.734 10.8515 466.846 10.8402 466.986 10.8482C467.138 10.8567 467.299 10.9186 467.469 11.0338C467.639 11.1373 467.789 11.2808 467.92 11.4642C468.213 11.8798 468.346 12.3392 468.317 12.8423C468.29 13.3337 468.128 13.7002 467.833 13.9417C468.211 14.3152 468.379 14.8704 468.338 15.6075C468.297 16.333 468.017 16.9275 467.498 17.3912C467.573 17.7124 467.604 18.0017 467.589 18.2591C467.576 18.5048 467.515 18.742 467.409 18.9707C467.314 19.1884 467.186 19.3749 467.025 19.5301C466.665 19.8737 466.333 20.0369 466.029 20.0198C465.549 19.9927 465.15 19.8881 464.832 19.7058C465.057 19.249 465.185 18.7515 465.215 18.2133C465.246 17.6751 465.154 17.1182 464.94 16.5428C464.738 15.9563 464.433 15.4402 464.023 14.9946C463.16 14.0774 461.991 13.5772 460.516 13.4941C459.58 13.4413 458.798 13.6848 458.169 14.2244C457.577 14.731 457.259 15.3645 457.217 16.125C457.184 16.6983 457.298 17.1859 457.557 17.5879C458.01 18.2825 458.75 19.0167 459.774 19.7904L460.585 20.3995C461.036 20.7184 461.344 20.8824 461.508 20.8917C461.672 20.9009 461.836 20.8926 462.002 20.8667C462.168 20.8409 462.352 20.8043 462.554 20.757C462.983 20.6403 463.404 20.4645 463.816 20.2295L463.533 21.1995C463.444 21.5231 463.395 21.761 463.387 21.9131C463.373 22.1588 463.483 22.3881 463.718 22.6008C465.799 24.6196 467.172 26.2874 467.837 27.6043C468.418 28.7521 468.672 29.9695 468.6 31.2565C468.527 32.5435 468.254 33.6373 467.781 34.5379C467.308 35.4384 466.647 36.2228 465.8 36.891C463.932 38.382 461.576 39.0473 458.733 38.8871C456.732 38.7743 455.017 38.2727 453.589 37.3822ZM453.593 16.0616C453.138 16.2237 452.888 16.6968 452.844 17.4807C452.754 19.0836 453.725 20.9048 455.758 22.9444L456.758 23.9514C457.102 24.2995 457.246 24.5599 457.189 24.7328C457.144 24.9063 457.101 25.0448 457.06 25.1481C457.031 25.2521 456.996 25.3499 456.955 25.4415C456.915 25.5331 456.888 25.602 456.873 25.6481C457.297 25.4255 457.637 25.3215 457.895 25.336C458.409 25.365 458.887 25.5328 459.327 25.8393C461.506 27.3706 462.969 28.7089 463.714 29.8543C464.253 30.6946 464.501 31.7179 464.456 32.9244C464.432 33.3573 464.382 33.7183 464.307 34.0075C464.95 33.6447 465.295 33.0304 465.344 32.1645C465.392 31.3221 465.311 30.6662 465.103 30.1967C464.907 29.7278 464.666 29.3093 464.382 28.9412C464.098 28.5613 463.722 28.1469 463.254 27.698C462.799 27.2498 462.228 26.7598 461.542 26.2282L459.145 24.3853C457.174 22.9244 455.698 21.4151 454.717 19.8574C453.856 18.4826 453.481 17.2173 453.593 16.0616Z" fill="#50A0FF"/>
<path d="M483.501 16.6469C482.905 16.6039 482.337 16.4044 481.799 16.0484C481.273 15.6931 480.882 15.242 480.628 14.6949C480.351 14.1345 479.96 13.6951 479.454 13.3766C479.296 13.283 479.116 13.1818 478.912 13.0731L479.535 12.748C480.121 12.4378 480.567 12.0411 480.872 11.5579C481.177 11.0747 481.608 10.7122 482.166 10.4705C482.737 10.2179 483.338 10.1144 483.969 10.1599C485.278 10.2543 486.185 10.872 486.69 12.0129C487.035 12.7662 487.61 13.3481 488.415 13.7586C488.232 13.8512 488.05 13.9321 487.868 14.0012C487.699 14.0712 487.534 14.1534 487.375 14.2476C487.019 14.4569 486.69 14.7798 486.389 15.2163C486.099 15.6535 485.691 16.0119 485.165 16.2912C484.652 16.5714 484.097 16.6899 483.501 16.6469ZM482.726 14.4409C482.665 14.3073 482.617 14.157 482.582 13.99C482.56 13.8121 482.564 13.507 482.595 13.0745C482.627 12.642 482.888 12.1087 483.38 11.4745C482.948 11.4433 482.638 11.5032 482.451 11.6542C482.265 11.7935 482.121 11.9182 482.019 12.0283C481.929 12.1276 481.845 12.2332 481.767 12.345C481.701 12.446 481.616 12.5574 481.514 12.6792C481.269 12.9788 481.074 13.1586 480.928 13.2186C481.108 13.3373 481.265 13.519 481.4 13.7637C481.548 13.9976 481.718 14.2449 481.91 14.5055C482.198 14.914 482.599 15.1368 483.114 15.1739C483.053 15.0402 482.985 14.9179 482.911 14.8068C482.849 14.6848 482.788 14.5629 482.726 14.4409ZM480.089 39.5057C479.525 39.8409 478.898 39.9837 478.208 39.9339C477.53 39.885 477.033 39.6964 476.716 39.368C476.41 39.0405 476.268 38.7365 476.288 38.456C476.316 38.0703 476.419 37.7723 476.599 37.562C476.842 37.7792 477.215 37.906 477.717 37.9423C478.22 37.9785 478.676 37.6824 479.085 37.054L479.489 31.4611C479.526 30.9468 479.448 30.5652 479.254 30.3163C478.941 29.9412 478.361 29.5058 477.516 29.0101C478.361 28.6951 478.902 28.4345 479.141 28.2285C479.554 27.8706 479.781 27.4111 479.822 26.8501L480.006 24.2903C480.078 23.2968 479.778 22.7347 479.106 22.604C478.909 22.5663 478.658 22.5364 478.354 22.5145C478.05 22.4926 477.763 22.5717 477.491 22.7519C477.344 22.518 477.278 22.2842 477.295 22.0504C477.313 21.8049 477.391 21.5403 477.529 21.2565C477.679 20.9619 477.893 20.6895 478.169 20.4392C478.823 19.8518 479.547 19.5869 480.341 19.6442C481.136 19.7015 481.845 19.8936 482.468 20.2205C483.094 19.5138 483.776 19.187 484.512 19.2401C485.716 19.327 486.272 20.0016 486.181 21.2639L485.748 27.2776C485.707 27.8386 485.801 28.2507 486.028 28.5139C486.365 28.9024 486.928 29.3131 487.72 29.7462C486.812 30.1154 486.239 30.403 486.001 30.6091C485.647 30.9478 485.452 31.3743 485.415 31.8886L485.008 37.5341C485.349 38.1814 485.765 38.5228 486.256 38.5582C486.746 38.5936 487.128 38.5212 487.399 38.3411C487.547 38.575 487.608 38.8614 487.584 39.2004C487.56 39.5276 487.368 39.831 487.007 40.1104C486.658 40.3907 486.15 40.5068 485.484 40.4588C484.818 40.4107 484.212 40.179 483.666 39.7637C483.16 40.1031 482.568 40.2484 481.89 40.1995C481.212 40.1506 480.612 39.9193 480.089 39.5057ZM482.197 31.304C482.237 30.9074 482.267 30.5747 482.286 30.3059C482.317 30.0379 482.339 29.8221 482.351 29.6585L482.385 29.1851C482.397 29.0098 482.408 28.7814 482.417 28.5001C482.437 28.2195 482.453 27.9094 482.466 27.5696C482.491 27.2306 482.509 26.8971 482.521 26.5689C482.532 25.7591 482.514 25.1997 482.465 24.8907C482.374 24.2027 482.139 23.7157 481.76 23.4299L481.678 24.5695C481.535 26.5449 481.405 27.7045 481.286 28.0484C481.18 28.3815 481.021 28.6285 480.81 28.7895C480.611 28.9396 480.32 29.0655 479.936 29.1671C480.62 29.4631 480.996 29.7898 481.064 30.1472C481.164 30.7184 481.143 31.9916 481 33.967L480.918 35.1066C481.481 34.7947 481.837 34.0978 481.985 33.0159C482.097 32.272 482.168 31.7014 482.197 31.304Z" fill="#50A0FF"/>
<path d="M497.974 40.8775C497.404 41.2044 496.775 41.338 496.086 41.2781C495.398 41.2182 494.909 41.017 494.621 40.6744C494.346 40.3211 494.221 39.9985 494.247 39.7067C494.28 39.3214 494.369 39.0468 494.513 38.8828C494.752 39.1036 495.07 39.2313 495.467 39.2658C496.214 39.3307 496.73 39.0109 497.015 38.3063L497.476 33.0002C497.523 32.4631 497.452 32.0571 497.265 31.782C496.931 31.2942 496.361 30.8094 495.556 30.3278C497.037 29.7978 497.837 28.8556 497.954 27.5014L498.114 25.6626C498.2 24.6702 497.908 24.1038 497.238 23.9632C497.042 23.9226 496.792 23.8891 496.488 23.8627C496.185 23.8364 495.896 23.9112 495.622 24.0874C495.478 23.8514 495.416 23.6166 495.436 23.3831C495.457 23.1379 495.539 22.8745 495.681 22.5928C495.836 22.3004 496.054 22.0311 496.334 21.7849C496.996 21.2072 497.729 20.9534 498.535 21.0234C499.352 21.0944 500.018 21.2817 500.533 21.5852C501.238 20.9172 501.958 20.6151 502.694 20.6791C503.838 20.7785 504.355 21.4586 504.245 22.7195L504.037 25.1187C505.454 22.3481 507.435 21.0735 509.98 21.2947C511.124 21.3941 512.022 21.825 512.673 22.5874C513.347 23.3635 513.629 24.3819 513.519 25.6428L513.498 25.888C513.491 25.9697 513.464 26.138 513.419 26.3928C513.374 26.6359 513.358 26.8874 513.371 27.1473C513.395 27.4082 513.447 27.6245 513.526 27.796C513.633 28.0524 513.856 28.2658 514.194 28.4363C514.085 28.7444 513.867 29.0137 513.542 29.2442C513.228 29.464 512.891 29.5582 512.529 29.5267L512.196 29.4978C511.691 30.0303 511.02 30.3778 510.182 30.5403C509.943 30.59 509.683 30.6027 509.403 30.5784C509.134 30.555 508.9 30.4758 508.7 30.3408C508.513 30.1952 508.413 30.0513 508.402 29.9091C508.633 29.8233 508.762 29.6228 508.79 29.3076L508.797 29.2201C508.702 29.2353 508.619 29.2399 508.549 29.2338L508.374 29.2186C507.989 29.1851 507.651 29.0087 507.361 28.6894C507.083 28.3712 506.917 27.9862 506.862 27.5344C507.49 27.6126 508.059 27.4268 508.569 26.977C509.027 26.5816 509.275 26.1562 509.315 25.7009C509.408 24.6268 508.988 24.0492 508.054 23.968C507.248 23.898 506.381 24.4696 505.452 25.6828C504.579 26.795 503.989 27.9729 503.681 29.2165L502.857 38.6906C502.95 39.1103 503.122 39.4311 503.374 39.6529C503.625 39.8747 503.984 40.0059 504.451 40.0465C504.918 40.0871 505.289 40.0193 505.563 39.8432C505.676 40.0295 505.718 40.2919 505.688 40.6305C505.659 40.969 505.472 41.2881 505.129 41.5876C504.798 41.8764 504.265 41.9888 503.529 41.9249C502.805 41.862 502.128 41.6032 501.497 41.1484C500.995 41.5048 500.412 41.654 499.746 41.5962C499.081 41.5384 498.49 41.2988 497.974 40.8775ZM500.201 32.7077C500.248 32.3117 500.282 31.9795 500.306 31.711C500.341 31.4435 500.365 31.228 500.379 31.0646L500.421 30.5917C500.436 30.4166 500.449 30.1943 500.461 29.9248C500.485 29.6446 500.506 29.3347 500.524 28.9951C500.554 28.6449 500.578 28.3058 500.595 27.9779C500.63 26.7576 500.563 25.9696 500.394 25.6138C500.238 25.2473 500.066 24.9912 499.879 24.8455L499.78 25.9838C499.609 27.9452 499.462 29.0969 499.339 29.439C499.227 29.7705 499.065 30.0152 498.851 30.1731C498.65 30.3203 498.357 30.4418 497.973 30.5378C498.652 30.8438 499.023 31.1761 499.086 31.5344C499.177 32.107 499.138 33.3739 498.967 35.3353L498.868 36.4736C499.436 36.17 499.801 35.4842 499.965 34.4162C500.089 33.6625 500.168 33.0929 500.201 32.7077Z" fill="#50A0FF"/>
<path d="M526.886 20.4201C526.291 20.3596 525.73 20.1435 525.203 19.7718C524.687 19.4013 524.31 18.9389 524.072 18.3846C523.811 17.8163 523.433 17.3656 522.937 17.0324C522.782 16.9342 522.605 16.8278 522.404 16.7132L523.036 16.4064C523.631 16.1136 524.088 15.7301 524.408 15.2561C524.727 14.782 525.169 14.4324 525.733 14.2071C526.311 13.9714 526.915 13.8855 527.544 13.9496C528.85 14.0824 529.739 14.7264 530.21 15.8816C530.533 16.6448 531.09 17.2433 531.883 17.6773C531.697 17.7644 531.513 17.8399 531.329 17.9037C531.158 17.9687 530.991 18.046 530.829 18.1355C530.467 18.3343 530.129 18.6474 529.815 19.0748C529.512 19.5034 529.094 19.8496 528.56 20.1134C528.039 20.3783 527.481 20.4806 526.886 20.4201ZM526.176 18.1923C526.119 18.0569 526.076 17.9053 526.046 17.7373C526.029 17.5589 526.042 17.254 526.086 16.8226C526.13 16.3912 526.407 15.8658 526.918 15.2463C526.486 15.2025 526.175 15.2532 525.983 15.3987C525.793 15.5325 525.645 15.6529 525.54 15.76C525.448 15.8566 525.361 15.9597 525.279 16.0691C525.21 16.1681 525.122 16.277 525.016 16.3958C524.763 16.688 524.562 16.862 524.415 16.9177C524.591 17.0416 524.743 17.2279 524.871 17.4765C525.012 17.7146 525.174 17.9667 525.359 18.2329C525.635 18.6496 526.029 18.8841 526.542 18.9363C526.485 18.8009 526.421 18.6766 526.35 18.5634C526.292 18.4397 526.234 18.316 526.176 18.1923ZM522.805 43.1689C522.231 43.4874 521.6 43.6117 520.912 43.5417C520.236 43.4729 519.744 43.2698 519.437 42.9323C519.141 42.5959 519.008 42.2879 519.036 42.0081C519.075 41.6233 519.188 41.3285 519.374 41.1236C519.61 41.3479 519.979 41.4855 520.48 41.5365C520.981 41.5875 521.446 41.3049 521.874 40.6888L522.441 35.1102C522.493 34.5972 522.426 34.2134 522.24 33.9589C521.938 33.5748 521.371 33.1226 520.541 32.6023C521.395 32.3122 521.944 32.0677 522.188 31.8687C522.612 31.5231 522.852 31.0705 522.909 30.5109L523.169 27.9576C523.269 26.9666 522.986 26.396 522.318 26.2456C522.122 26.2021 521.873 26.1649 521.57 26.1341C521.266 26.1033 520.977 26.1739 520.7 26.346C520.559 26.1079 520.501 25.8723 520.524 25.6391C520.549 25.3943 520.635 25.132 520.781 24.8524C520.94 24.5624 521.162 24.2963 521.445 24.0542C522.116 23.4863 522.847 23.2427 523.64 23.3233C524.433 23.404 525.136 23.6168 525.748 23.9618C526.396 23.2738 527.086 22.9671 527.821 23.0418C529.022 23.164 529.558 23.8546 529.43 25.1137L528.82 31.1121C528.763 31.6717 528.844 32.0864 529.064 32.3561C529.389 32.7543 529.94 33.1814 530.719 33.6375C529.8 33.9799 529.219 34.2506 528.975 34.4496C528.612 34.7778 528.404 35.1984 528.352 35.7114L527.779 41.3425C528.101 41.9995 528.507 42.353 528.997 42.4028C529.486 42.4526 529.869 42.3914 530.146 42.2193C530.287 42.4574 530.34 42.7455 530.306 43.0836C530.272 43.4101 530.071 43.7077 529.702 43.9764C529.345 44.2463 528.834 44.3475 528.17 44.2799C527.505 44.2123 526.906 43.9629 526.373 43.5317C525.857 43.8562 525.261 43.984 524.585 43.9152C523.908 43.8465 523.315 43.5977 522.805 43.1689ZM525.152 35.0326C525.204 34.6374 525.244 34.3057 525.271 34.0375C525.31 33.7706 525.338 33.5555 525.355 33.3923L525.403 32.9201C525.42 32.7452 525.438 32.5173 525.454 32.2363C525.483 31.9565 525.509 31.6469 525.531 31.3076C525.566 30.9695 525.594 30.6367 525.615 30.3091C525.65 29.4999 525.648 28.9402 525.609 28.6299C525.538 27.9395 525.317 27.4459 524.947 27.1491L524.832 28.2858C524.631 30.2561 524.466 31.4114 524.338 31.7516C524.222 32.0814 524.056 32.3237 523.84 32.4784C523.637 32.6227 523.342 32.7399 522.956 32.8302C523.63 33.1462 523.997 33.4838 524.054 33.8431C524.137 34.4169 524.078 35.689 523.878 37.6593L523.762 38.796C524.334 38.5008 524.71 37.8146 524.891 36.7375C525.025 35.9973 525.112 35.429 525.152 35.0326Z" fill="#50A0FF"/>
<path d="M540.636 45.0531C540.056 45.3622 539.423 45.4761 538.737 45.3949C538.062 45.315 537.574 45.1039 537.272 44.7614C536.982 44.4202 536.853 44.11 536.886 43.8307C536.932 43.4467 537.049 43.1537 537.238 42.9519C537.471 43.18 537.785 43.3175 538.181 43.3643C538.856 43.4441 539.385 43.1114 539.768 42.3661L540.402 37.007C540.462 36.4949 540.402 36.1101 540.22 35.8526C539.936 35.4533 539.378 34.986 538.545 34.4508C539.403 34.1748 539.956 33.9393 540.204 33.7443C540.633 33.4057 540.881 32.9571 540.947 32.3985L542.116 22.5182C542.273 21.1915 541.81 20.4641 540.728 20.3361C540.332 20.2893 539.994 20.3497 539.715 20.5172C539.578 20.2768 539.524 20.0403 539.551 19.8075C539.58 19.5631 539.666 19.3372 539.808 19.1299C539.962 18.9239 540.179 18.743 540.457 18.5871C541.05 18.2561 541.766 18.1402 542.604 18.2393C543.442 18.3384 544.088 18.4679 544.541 18.6277C545.276 17.9004 546.045 17.5842 546.848 17.6792C548.046 17.821 548.571 18.5204 548.423 19.7772L546.694 34.3882L552.291 30.3242C553.152 29.6237 553.604 29.0989 553.645 28.7497C553.686 28.4006 553.486 28.1999 553.044 28.1476C552.601 28.0952 552.175 28.1569 551.765 28.3326C551.662 28.108 551.629 27.8328 551.668 27.5069C551.708 27.1694 551.921 26.8642 552.307 26.5913C552.694 26.3184 553.207 26.2198 553.847 26.2955C554.487 26.3712 555.028 26.6358 555.47 27.0893C555.971 26.7473 556.489 26.608 557.024 26.6713C557.559 26.7347 558.006 26.9468 558.365 27.3079C558.798 27.0404 559.282 26.9384 559.817 27.0017C560.352 27.0651 560.778 27.257 561.094 27.5776C561.422 27.8996 561.558 28.2933 561.503 28.7589C561.452 29.1894 561.359 29.4793 561.223 29.6285C560.946 29.2771 560.575 29.0739 560.109 29.0188C559.656 28.9651 559.275 28.9909 558.967 29.0961C558.673 29.1911 558.342 29.3466 557.974 29.5627C557.608 29.7672 557.199 30.0257 556.749 30.3383L553.554 32.5092L557.64 43.6129C557.883 44.3497 558.107 44.8955 558.313 45.2503C558.531 45.6064 558.831 45.8072 559.215 45.8526C559.611 45.8994 559.949 45.839 560.228 45.6715C560.365 45.9119 560.413 46.2008 560.373 46.5383C560.335 46.8642 560.129 47.1584 559.756 47.4211C559.394 47.6851 558.852 47.7744 558.131 47.6891C557.409 47.6037 556.735 47.3233 556.106 46.8478C555.513 47.1787 554.884 47.305 554.221 47.2265C553.569 47.1494 553.019 46.9074 552.572 46.5005C552.077 46.7959 551.544 46.9099 550.974 46.8424C550.415 46.7764 549.983 46.5895 549.677 46.2819C549.373 45.9627 549.245 45.5936 549.295 45.1747C549.344 44.7557 549.465 44.4809 549.658 44.3503C550.07 44.7531 550.517 44.865 550.999 44.6859C551.171 44.6237 551.335 44.4838 551.491 44.2662L548.742 35.781L546.335 37.4257L545.637 43.3259C545.791 43.9223 546.124 44.2508 546.636 44.3114C546.903 44.343 547.183 44.27 547.476 44.0922C547.632 44.2641 547.685 44.5654 547.634 44.996C547.585 45.4149 547.375 45.7383 547.006 45.966C546.637 46.1937 546.167 46.2739 545.597 46.2064C545.027 46.139 544.536 45.9038 544.123 45.501C543.605 45.7937 543.019 45.9015 542.368 45.8244C541.716 45.7473 541.139 45.4902 540.636 45.0531ZM543.356 34.6305L543.648 32.3109L544.052 28.8894C544.309 26.7248 544.417 25.4573 544.378 25.0869C544.299 24.3578 544.061 23.8281 543.664 23.4978L542.968 29.3806C542.683 31.7896 542.495 33.1303 542.403 33.4027C542.325 33.6649 542.261 33.8579 542.211 33.9818C542.064 34.3302 541.633 34.5801 540.919 34.7317C541.588 35.0586 541.949 35.3964 542.002 35.7449C542.076 36.32 541.997 37.5851 541.766 39.5403L541.632 40.6749C542.295 40.3522 542.745 39.3434 542.981 37.6484L543.105 36.601C543.158 36.2533 543.2 35.9456 543.232 35.6779L543.356 34.6305ZM552.714 42.0037C552.889 41.8237 552.996 41.565 553.036 41.2275C553.076 40.89 553.083 40.584 553.056 40.3094C553.042 40.0363 553.009 39.761 552.959 39.4837C552.859 39.0352 552.699 38.497 552.478 37.8691L551.245 34.0769L550.377 34.6822L552.714 42.0037Z" fill="#50A0FF"/>
<path d="M583.355 51.0964C581.719 50.8687 580.994 49.6143 581.181 47.3332C580.441 48.3187 579.522 49.0546 578.425 49.5409C577.34 50.0288 576.217 50.192 575.056 50.0305C573.907 49.8707 572.994 49.584 572.318 49.1705C571.642 48.757 571.107 48.2212 570.714 47.563C569.947 46.2732 569.712 44.5604 570.009 42.4247L570.159 41.3452C570.346 39.9988 569.777 38.9021 568.452 38.0552C569.344 37.7652 569.925 37.497 570.196 37.2508C570.604 36.8697 570.845 36.4123 570.92 35.8784L571.247 33.5279C571.384 32.5413 571.121 31.9606 570.46 31.7857C570.265 31.735 570.018 31.6887 569.716 31.6467C569.414 31.6048 569.122 31.6647 568.839 31.8265C568.707 31.5833 568.657 31.3457 568.69 31.1135C568.723 30.8698 568.819 30.6109 568.975 30.3369C569.145 30.0529 569.376 29.7951 569.668 29.5637C570.359 29.0209 571.105 28.8052 571.906 28.9166C572.707 29.028 573.443 29.2664 574.113 29.6319C574.726 28.9717 575.38 28.69 576.077 28.7869C577.272 28.9532 577.783 29.6632 577.608 30.9167L576.032 42.2509C575.725 44.4563 576.052 45.8505 577.012 46.4337C577.317 46.6182 577.667 46.7378 578.062 46.7927C578.468 46.8493 578.845 46.8189 579.193 46.7016C579.542 46.5727 579.859 46.3801 580.143 46.1238C580.675 45.6181 581.073 44.8808 581.338 43.9119L582.563 35.1022C582.747 33.7791 582.3 33.0424 581.22 32.8922C580.826 32.8373 580.487 32.8908 580.204 33.0526C580.072 32.8094 580.023 32.5718 580.055 32.3396C580.089 32.0959 580.181 31.8544 580.333 31.6152C580.498 31.366 580.723 31.1489 581.009 30.9639C581.649 30.5323 582.375 30.373 583.188 30.4861C584.012 30.6007 584.759 30.8407 585.43 31.2062C586.043 30.546 586.697 30.2643 587.394 30.3612C588.589 30.5275 589.1 31.2375 588.925 32.491L588.121 38.2713C588.047 38.8052 588.096 39.2144 588.27 39.4988C588.578 40.0032 589.122 40.5166 589.901 41.0391C588.395 41.4921 587.548 42.3918 587.361 43.7382L586.736 48.2301C586.832 49.1545 587.251 49.6684 587.994 49.7717C588.389 49.8266 588.728 49.7732 589.01 49.6114C589.142 49.8545 589.185 50.1444 589.138 50.481C589.093 50.806 588.881 51.096 588.502 51.3509C588.135 51.6075 587.598 51.6865 586.89 51.588C586.193 51.4911 585.558 51.2134 584.982 50.7548C584.467 51.0616 583.924 51.1755 583.355 51.0964ZM582.74 45.9527C583.45 45.7794 583.983 44.5461 584.337 42.2528C584.405 41.7653 584.483 41.2081 584.57 40.5813C584.657 39.9546 584.725 39.4198 584.775 38.9772C584.838 38.5245 584.892 38.0942 584.937 37.6864C585.094 36.2174 585.082 35.3283 584.9 35.0191C584.72 34.6982 584.537 34.4777 584.353 34.3574L582.74 45.9527ZM573.135 38.7067L573.507 36.4158C573.651 35.3827 573.711 34.6931 573.688 34.3468C573.614 33.4372 573.402 32.9168 573.054 32.7855L572.896 33.9171C572.623 35.8787 572.416 37.0272 572.275 37.3625C572.147 37.6878 571.972 37.9237 571.75 38.0704C571.542 38.2071 571.243 38.3134 570.854 38.3894C571.517 38.73 571.87 39.0809 571.915 39.442C571.976 40.0185 571.871 41.2876 571.598 43.2492L571.441 44.3808C571.8 44.348 572.156 43.8711 572.509 42.95C572.604 42.6911 572.724 42.0451 572.868 41.0121L573.135 38.7067Z" fill="#50A0FF"/>
<path d="M599.929 52.9847C599.337 53.2698 598.7 53.3577 598.017 53.2485C597.346 53.141 596.867 52.9101 596.579 52.5555C596.304 52.2028 596.188 51.8876 596.232 51.6098C596.293 51.228 596.423 50.9401 596.62 50.7462C596.843 50.9836 597.151 51.1338 597.544 51.1968C598.216 51.3042 598.758 50.9934 599.171 50.2644L600.024 44.9358C600.106 44.4266 600.061 44.0397 599.889 43.7749C599.623 43.3643 599.084 42.8746 598.273 42.3057C599.143 42.0651 599.705 41.8524 599.96 41.6677C600.403 41.347 600.669 40.9089 600.758 40.3535L602.33 30.5293C602.541 29.2101 602.108 28.4644 601.032 28.2922C600.639 28.2292 600.299 28.2757 600.013 28.4317C599.886 28.1859 599.841 27.9473 599.878 27.7159C599.917 27.4729 600.012 27.2507 600.163 27.0494C600.326 26.8499 600.549 26.6779 600.833 26.5335C601.44 26.2272 602.16 26.1406 602.993 26.274C603.826 26.4073 604.466 26.5631 604.912 26.7413C605.676 26.0448 606.458 25.7604 607.256 25.8882C608.448 26.0789 608.944 26.7992 608.744 28.0489L606.419 42.5769L612.177 38.7453C613.066 38.0807 613.539 37.5748 613.594 37.2277C613.65 36.8805 613.458 36.6718 613.018 36.6014C612.579 36.531 612.15 36.5752 611.733 36.7339C611.639 36.5053 611.618 36.229 611.67 35.905C611.724 35.5694 611.949 35.2732 612.346 35.0163C612.743 34.7594 613.26 34.6819 613.897 34.7838C614.533 34.8856 615.063 35.1722 615.486 35.6434C616 35.3222 616.523 35.2042 617.056 35.2894C617.588 35.3746 618.026 35.6049 618.369 35.9803C618.813 35.7308 619.3 35.6487 619.833 35.7339C620.365 35.819 620.783 36.0283 621.085 36.3616C621.4 36.6967 621.52 37.0957 621.446 37.5585C621.377 37.9867 621.272 38.2725 621.13 38.416C620.868 38.0535 620.505 37.8353 620.042 37.7612C619.591 37.689 619.21 37.6991 618.898 37.7917C618.6 37.8745 618.263 38.0164 617.887 38.2173C617.512 38.4065 617.094 38.6481 616.631 38.942L613.35 40.9803L616.977 52.242C617.19 52.9881 617.392 53.5426 617.583 53.9055C617.786 54.2703 618.078 54.4832 618.46 54.5443C618.853 54.6073 619.193 54.5608 619.479 54.4048C619.606 54.6506 619.643 54.9413 619.589 55.2768C619.537 55.6008 619.319 55.8864 618.935 56.1336C618.563 56.3826 618.019 56.4497 617.301 56.3348C616.584 56.22 615.921 55.9122 615.313 55.4113C614.706 55.7177 614.073 55.8181 613.413 55.7126C612.765 55.6088 612.226 55.3445 611.795 54.9196C611.289 55.1945 610.752 55.2866 610.185 55.1958C609.629 55.107 609.205 54.9026 608.912 54.5827C608.621 54.2513 608.509 53.8773 608.575 53.4607C608.642 53.0442 608.774 52.7745 608.972 52.6519C609.368 53.0713 609.81 53.2014 610.298 53.0422C610.473 52.9871 610.643 52.854 610.807 52.643L608.408 44.0523L605.935 45.597L604.996 51.4638C605.125 52.066 605.445 52.4078 605.954 52.4893C606.22 52.5319 606.503 52.4703 606.802 52.3046C606.952 52.4829 606.992 52.786 606.924 53.2142C606.857 53.6308 606.635 53.9453 606.256 54.1577C605.878 54.3701 605.406 54.431 604.839 54.3402C604.272 54.2495 603.79 53.9944 603.395 53.575C602.865 53.8463 602.276 53.93 601.628 53.8263C600.98 53.7226 600.413 53.4421 599.929 52.9847ZM603.073 42.6822L603.46 40.3765L604.004 36.9745C604.349 34.8222 604.509 33.5602 604.486 33.1885C604.436 32.4567 604.22 31.9177 603.836 31.5715L602.9 37.4209C602.517 39.8162 602.274 41.148 602.172 41.4165C602.083 41.6752 602.011 41.8655 601.956 41.9872C601.794 42.3293 601.354 42.5614 600.634 42.6835C601.289 43.0376 601.636 43.3899 601.675 43.7403C601.725 44.3179 601.595 45.5788 601.283 47.5228L601.103 48.651C601.779 48.3557 602.27 47.3661 602.575 45.6823L602.742 44.6408C602.809 44.2955 602.864 43.9898 602.906 43.7237L603.073 42.6822ZM612.122 50.4324C612.304 50.2597 612.422 50.0056 612.475 49.6701C612.529 49.3345 612.548 49.029 612.533 48.7536C612.529 48.4801 612.508 48.2037 612.47 47.9246C612.388 47.4724 612.25 46.9281 612.055 46.2916L610.978 42.4521L610.086 43.0214L612.122 50.4324Z" fill="#50A0FF"/>
<path d="M629.779 57.7182C628.86 58.3276 628.037 58.5673 627.311 58.4372C626.907 58.3649 626.657 58.1654 626.561 57.8386C626.873 57.6208 627.053 57.3792 627.101 57.1139C627.148 56.8486 627.144 56.6395 627.088 56.4866L626.935 56.0484L627.118 56.617C626.864 56.4406 626.689 56.189 626.593 55.8622C626.497 55.5355 626.487 55.1587 626.563 54.7319C626.642 54.2935 626.973 53.8409 627.556 53.3739C627.383 53.0096 627.332 52.6314 627.402 52.2391C627.472 51.8469 627.594 51.5353 627.766 51.3042C627.952 51.0637 628.167 50.8582 628.412 50.6877C628.952 50.332 629.481 50.2006 630.001 50.2935C630.347 50.3555 630.573 50.521 630.679 50.7901C630.308 51.0688 630.057 51.5716 629.927 52.2983C629.799 53.0135 629.811 53.6466 629.962 54.1975C630.125 54.7505 630.388 55.244 630.751 55.678C631.514 56.6004 632.554 57.1793 633.869 57.4147C635.334 57.6769 636.445 57.3222 637.202 56.3506C637.421 56.0565 637.56 55.748 637.618 55.425C637.678 55.0905 637.655 54.7829 637.551 54.5023C637.448 54.2101 637.298 53.9213 637.099 53.6356C636.765 53.1712 636.229 52.6108 635.489 51.9546C634.794 51.2469 633.905 50.796 632.82 50.6019C632.117 50.4759 631.633 50.4489 631.371 50.5209C631.582 50.2017 631.719 49.869 631.781 49.523C631.843 49.1769 631.68 48.7607 631.291 48.2744C630.903 47.7765 630.563 47.2869 630.268 46.8055C629.984 46.3263 629.77 45.8594 629.626 45.4049C629.328 44.542 629.257 43.6722 629.414 42.7955C629.571 41.9188 629.888 41.178 630.366 40.5729C630.857 39.9584 631.474 39.4678 632.218 39.101C633.775 38.3201 635.626 38.1216 637.771 38.5057C638.81 38.6916 639.511 38.8647 639.875 39.0251C640.251 39.1876 640.547 39.3299 640.763 39.4519C641.054 39.623 641.424 39.7489 641.874 39.8294C642.324 39.9099 642.653 39.8676 642.861 39.7025C643.081 39.5394 643.205 39.3772 643.234 39.2157C643.265 39.0426 643.271 38.9069 643.253 38.8084C643.326 38.7977 643.432 38.8048 643.571 38.8295C643.709 38.8543 643.858 38.9226 644.016 39.0343C644.186 39.1481 644.328 39.2866 644.442 39.4498C644.663 39.8108 644.742 40.1701 644.678 40.5277C644.616 40.8738 644.499 41.1267 644.327 41.2865C644.597 41.6442 644.682 42.0999 644.583 42.6536C644.484 43.2073 644.169 43.6332 643.64 43.9313C643.706 44.1575 643.713 44.4206 643.659 44.7205C643.605 45.0204 643.392 45.2799 643.02 45.4989C642.647 45.7179 642.317 45.8016 642.028 45.75C641.532 45.6612 641.209 45.5379 641.059 45.38C641.275 45.0378 641.421 44.6532 641.498 44.2264C641.576 43.7881 641.535 43.3521 641.374 42.9186C641.214 42.4851 640.977 42.1152 640.662 41.809C640.076 41.2278 639.321 40.8546 638.398 40.6894C637.233 40.4809 636.383 40.7096 635.847 41.3756C635.679 41.5836 635.57 41.826 635.52 42.1028C635.473 42.3682 635.463 42.6224 635.491 42.8655C635.533 43.0991 635.619 43.3467 635.751 43.6084C636.005 44.1182 636.401 44.6297 636.941 45.1428C637.644 45.8044 638.151 46.1631 638.462 46.2188C639.131 46.3386 639.743 46.2814 640.297 46.0472C640.059 46.5761 639.921 46.9501 639.881 47.1693C639.822 47.5038 640.018 47.9378 640.47 48.4711C641.774 49.7641 642.621 50.886 643.01 51.8366C643.381 52.7601 643.475 53.7294 643.293 54.7445C643.112 55.7596 642.731 56.5903 642.151 57.2365C641.573 57.8711 640.851 58.3788 639.985 58.7596C638.19 59.5454 636.15 59.7338 633.866 59.3249C632.309 59.0462 630.946 58.5106 629.779 57.7182ZM632.01 41.7602C631.647 41.8618 631.399 42.2818 631.267 43.02C631.137 43.7467 631.248 44.487 631.601 45.2407C631.957 45.9829 632.573 46.8611 633.451 47.8754C633.66 48.1034 633.75 48.3039 633.719 48.4769C633.671 48.7422 633.61 48.9515 633.535 49.1047C633.679 49.0949 633.928 49.1036 634.28 49.131C635.137 49.201 636.11 49.7801 637.201 50.8682C638.967 52.4461 639.728 53.9099 639.487 55.2596C639.396 55.7671 639.259 56.1354 639.075 56.3644C639.504 56.358 639.885 56.0629 640.215 55.4793C640.306 55.305 640.369 55.1199 640.404 54.9238C640.571 53.9894 640.233 52.9526 639.389 51.8135C638.559 50.6649 637.279 49.4713 635.548 48.2329C632.695 46.0794 631.516 43.9218 632.01 41.7602Z" fill="#50A0FF"/>
<path d="M665.863 59.5444C666.211 59.1113 666.725 58.9616 667.403 59.0952C667.863 59.1859 668.182 59.4458 668.36 59.8751C668.508 60.2148 668.539 60.6031 668.453 61.04C668.369 61.4654 668.175 61.8751 667.871 62.2689C667.566 62.6628 667.189 63.0006 666.739 63.2822C666.29 63.5639 665.79 63.794 665.242 63.9725C664.704 64.1533 664.142 64.2814 663.554 64.3566C662.341 64.5117 661.119 64.4681 659.889 64.2257C658.658 63.9833 657.543 63.5544 656.541 62.9391C655.553 62.3145 654.747 61.5583 654.121 60.6707C652.901 58.9252 652.373 56.7549 652.538 54.1597C652.568 53.5805 652.515 53.152 652.379 52.8743C652.118 52.3809 651.629 51.8606 650.913 51.3134C652.001 51.0621 652.781 50.4692 653.252 49.5347C653.387 49.2747 653.504 49.0112 653.605 48.7443C654.291 46.7773 655.654 45.2543 657.694 44.1752C659.668 43.1307 661.706 42.8158 663.81 43.2304C665.995 43.6608 667.735 44.8038 669.029 46.6594C670.372 48.5723 670.816 50.6843 670.361 52.9953C670.345 53.0758 670.323 53.1551 670.296 53.2334C670.28 53.3138 670.271 53.3897 670.269 53.461C670.263 53.615 670.338 53.7193 670.494 53.774C670.649 54.0792 670.697 54.3813 670.638 54.6803C670.502 55.3701 670.054 55.7058 669.293 55.6873C669.102 55.6855 668.806 55.6749 668.403 55.6554L658.37 55.291L658.044 56.9467C657.781 58.2804 657.975 59.4175 658.626 60.3579C659.238 61.2548 660.124 61.8176 661.286 62.0464C662.516 62.2888 663.554 62.2307 664.401 61.8721C665.198 61.5273 665.673 60.9641 665.827 60.1822C665.864 59.9983 665.876 59.7856 665.863 59.5444ZM663.943 53.379L664.894 48.55C665.044 47.7912 665.004 47.2041 664.776 46.7888C664.367 46.0752 663.904 45.6674 663.386 45.5655C662.869 45.4635 662.422 45.459 662.045 45.552C661.671 45.6336 661.324 45.8161 661.006 46.0997C660.338 46.6969 659.859 47.737 659.567 49.2202L658.782 53.2042L663.943 53.379ZM666.58 53.4508L666.686 52.9162C667.107 50.7776 667.184 49.449 666.916 48.9303C666.793 48.7032 666.643 48.5243 666.466 48.3938L665.477 53.4126L666.58 53.4508ZM654.907 58.0485C655.093 57.9537 655.202 57.8258 655.233 57.6649C655.283 57.4119 655.295 57.0798 655.268 56.6685C655.153 54.7705 655.164 53.4708 655.302 52.7694C655.442 52.0566 655.574 51.5092 655.697 51.1273C655.822 50.734 655.965 50.344 656.125 49.9575C656.417 49.2028 656.702 48.5424 656.981 47.9762C657.161 47.6057 657.265 47.3514 657.292 47.2135C657.347 46.9375 657.306 46.7205 657.17 46.5623C656.574 47.042 656.054 47.7399 655.611 48.6558C655.168 49.5718 654.793 50.3818 654.487 51.086C654.368 51.3851 653.97 51.6172 653.293 51.7823C653.857 52.1921 654.14 52.5464 654.14 52.8451C654.183 54.8721 654.29 56.1772 654.462 56.7604C654.634 57.3437 654.782 57.773 654.907 58.0485Z" fill="#50A0FF"/>
<path d="M692.297 65.1184C692.653 64.6918 693.169 64.5516 693.845 64.6977C694.303 64.7968 694.617 65.0626 694.787 65.495C694.929 65.8374 694.953 66.2263 694.859 66.6615C694.767 67.0853 694.565 67.4913 694.254 67.8795C693.942 68.2677 693.559 68.5984 693.104 68.8718C692.649 69.1451 692.146 69.366 691.594 69.5344C691.053 69.7052 690.488 69.8228 689.899 69.8872C688.683 70.02 687.462 69.9539 686.237 69.6888C685.011 69.4238 683.904 68.9744 682.914 68.3407C681.937 67.698 681.145 66.9272 680.536 66.0281C679.348 64.2605 678.86 62.0808 679.073 59.4891C679.114 58.9105 679.069 58.4811 678.938 58.2009C678.686 57.7028 678.207 57.1736 677.5 56.6133C678.594 56.3821 679.384 55.8036 679.872 54.8781C680.012 54.6205 680.134 54.3592 680.239 54.0942C680.962 52.1403 682.353 50.6426 684.412 49.6013C686.405 48.5934 688.449 48.3161 690.545 48.7693C692.721 49.24 694.439 50.4148 695.7 52.2939C697.007 54.2313 697.412 56.3511 696.914 58.6533C696.897 58.7335 696.874 58.8124 696.845 58.8901C696.828 58.9703 696.817 59.046 696.814 59.1172C696.805 59.2711 696.878 59.3768 697.033 59.4344C697.182 59.7424 697.225 60.0453 697.16 60.3431C697.012 61.0303 696.557 61.3577 695.797 61.3252C695.606 61.3199 695.31 61.3038 694.908 61.2769L684.884 60.7277L684.527 62.3771C684.24 63.7057 684.413 64.8462 685.046 65.7984C685.641 66.7064 686.517 67.2855 687.674 67.5357C688.899 67.8007 689.939 67.7617 690.792 67.4187C691.595 67.0888 692.081 66.5343 692.249 65.7555C692.289 65.5722 692.305 65.3598 692.297 65.1184ZM690.49 58.9187L691.531 54.108C691.694 53.3521 691.665 52.7644 691.444 52.3449C691.049 51.6239 690.593 51.2077 690.078 51.0962C689.562 50.9847 689.115 50.972 688.737 51.0581C688.361 51.1327 688.011 51.3088 687.688 51.5865C687.01 52.1712 686.511 53.2024 686.191 54.68L685.333 58.6488L690.49 58.9187ZM693.126 59.0391L693.241 58.5065C693.702 56.376 693.803 55.0491 693.544 54.5256C693.426 54.2962 693.28 54.1146 693.105 53.9809L692.024 58.9805L693.126 59.0391ZM681.37 63.4208C681.557 63.3295 681.668 63.2037 681.703 63.0433C681.758 62.7913 681.775 62.4595 681.757 62.0477C681.676 60.1479 681.711 58.8486 681.862 58.15C682.016 57.4398 682.157 56.895 682.287 56.5154C682.42 56.1245 682.57 55.7372 682.737 55.3536C683.042 54.6045 683.34 53.9495 683.629 53.3885C683.816 53.0214 683.925 52.7691 683.955 52.6316C684.014 52.3567 683.977 52.139 683.844 51.9783C683.239 52.447 682.707 53.1351 682.247 54.0428C681.787 54.9504 681.397 55.7534 681.078 56.4518C680.954 56.7487 680.552 56.9734 679.871 57.126C680.428 57.5461 680.704 57.9055 680.699 58.2042C680.705 60.2316 680.788 61.5385 680.949 62.1248C681.11 62.7111 681.25 63.1431 681.37 63.4208Z" fill="#50A0FF"/>
<path d="M705.697 73.3628C705.086 73.6036 704.444 73.6443 703.771 73.4851C703.099 73.3258 702.645 73.0558 702.41 72.675C702.189 72.2856 702.112 71.9483 702.179 71.6632C702.269 71.2869 702.396 71.028 702.562 70.8867C702.767 71.1399 703.063 71.3124 703.451 71.4042C704.181 71.5769 704.738 71.3354 705.122 70.6797L706.381 65.3599C706.5 64.8581 706.478 64.4676 706.315 64.1882C706.074 63.7336 705.579 63.2012 704.833 62.5909C705.717 62.4149 706.294 62.2443 706.562 62.0789C707.027 61.7916 707.324 61.3743 707.454 60.8269L708.045 58.3296C708.275 57.3602 708.068 56.7574 707.425 56.521C707.237 56.4523 706.995 56.3829 706.698 56.3127C706.402 56.2425 706.105 56.2747 705.808 56.4091C705.7 56.1547 705.673 55.9134 705.727 55.6853C705.783 55.4459 705.902 55.1971 706.084 54.939C706.28 54.6722 706.528 54.436 706.83 54.2304C707.58 53.7576 708.348 53.6144 709.135 53.8007C709.933 53.9896 710.565 54.2716 711.03 54.6466C711.825 54.0881 712.547 53.8857 713.197 54.0396C713.847 54.1934 714.261 54.454 714.439 54.8213C714.62 55.1772 714.636 55.6687 714.488 56.2959L714.107 57.9038C714.951 56.9836 715.959 56.3371 717.131 55.9643C718.306 55.58 719.469 55.5242 720.621 55.7968C721.773 56.0694 722.66 56.442 723.283 56.9146C723.92 57.3784 724.4 57.9437 724.724 58.6105C725.351 59.9271 725.416 61.6403 724.916 63.75L724.649 64.879C724.519 65.4263 724.546 65.8481 724.729 66.1443C724.996 66.5929 725.485 67.0941 726.197 67.648C725.242 67.8674 724.631 68.0599 724.363 68.2253C723.96 68.5032 723.699 68.8931 723.58 69.3948L722.313 74.7488C722.362 75.5071 722.752 75.9727 723.482 76.1454C723.869 76.2372 724.211 76.2158 724.508 76.0814C724.593 76.2821 724.597 76.5478 724.518 76.8785C724.44 77.2092 724.209 77.4978 723.826 77.7442C723.456 77.982 722.958 78.0266 722.331 77.8781C721.704 77.7297 721.175 77.4179 720.746 76.943C720.206 77.1885 719.628 77.2384 719.012 77.0926C718.408 76.9496 717.907 76.6503 717.509 76.1948C716.926 76.4182 716.35 76.4624 715.779 76.3274C715.209 76.1924 714.792 75.9433 714.529 75.5799C714.266 75.2165 714.198 74.7669 714.325 74.2309C714.384 73.98 714.517 73.8007 714.723 73.6929C714.937 73.9603 715.175 74.125 715.437 74.1871C715.939 74.3058 716.364 74.1115 716.713 73.604L719.126 63.4091C719.65 61.1968 719.412 59.7857 718.412 59.1758C718.086 58.978 717.717 58.8306 717.307 58.7334C716.896 58.6363 716.494 58.6314 716.1 58.7187C715.708 58.7947 715.335 58.9472 714.98 59.1762C714.196 59.6892 713.639 60.3883 713.309 61.2736L710.726 72.1869C710.811 72.7969 711.104 73.1614 711.605 73.2801C711.868 73.3422 712.154 73.3017 712.465 73.1585C712.601 73.3472 712.622 73.6411 712.527 74.0403C712.436 74.428 712.191 74.7253 711.792 74.9321C711.394 75.1389 710.921 75.1775 710.374 75.048C709.838 74.9211 709.388 74.634 709.024 74.1866C708.51 74.4261 707.939 74.4717 707.312 74.3232C706.685 74.1747 706.147 73.8546 705.697 73.3628ZM718.849 71.9058C719.471 71.8241 719.961 71.1514 720.32 69.8877C720.691 68.6267 721.01 67.4317 721.277 66.3027C721.545 65.1738 721.719 64.2336 721.8 63.4821C721.885 62.7193 721.89 62.1124 721.816 61.6614C721.745 61.1989 721.611 60.8482 721.415 60.609C721.233 60.3612 721.021 60.1364 720.779 59.9348C720.97 61.0637 720.999 62.0582 720.868 62.9183C720.737 63.7783 720.578 64.6018 720.392 65.3886L718.849 71.9058ZM709.087 65.6031C709.188 65.2294 709.268 64.9172 709.327 64.6663C709.401 64.4067 709.456 64.1971 709.494 64.0375C709.532 63.8778 709.57 63.7181 709.607 63.5585C709.648 63.3874 709.695 63.1637 709.748 62.8873C709.813 62.6136 709.879 62.3101 709.946 61.9767C710.024 61.646 710.089 61.3183 710.142 60.9936C710.294 60.1986 710.371 59.6448 710.373 59.3321C710.393 58.6383 710.238 58.1201 709.91 57.7774L709.647 58.8893C709.193 60.8051 708.88 61.9233 708.708 62.2438C708.55 62.5556 708.354 62.7741 708.12 62.8993C707.897 63.0271 707.588 63.1106 707.193 63.1497C707.821 63.5511 708.141 63.928 708.154 64.2802C708.161 64.86 707.938 66.1078 707.485 68.0236L707.221 69.1355C707.827 68.9175 708.294 68.2934 708.622 67.2632C708.843 66.5328 708.998 65.9794 709.087 65.6031Z" fill="#50A0FF"/>
<path d="M749.623 56.2662C749.388 56.0008 749.112 55.8276 748.794 55.7466C748.487 55.6685 748.24 55.6418 748.052 55.6665C747.876 55.6941 747.725 55.7645 747.599 55.8776C747.4 56.0444 747.182 56.4243 746.946 57.0173L741.473 71.876C741.215 72.4632 740.887 72.8695 740.491 73.0951C740.095 73.3207 739.716 73.3872 739.352 73.2946C739 73.2049 738.696 72.952 738.439 72.5359C738.194 72.1227 738.099 71.6149 738.156 71.0126L740.269 55.3159C740.346 54.6824 740.349 54.2661 740.279 54.0668C740.141 53.7052 739.845 53.4665 739.391 53.3508C738.948 53.238 738.577 53.2462 738.278 53.3756C738.194 53.1848 738.195 52.9191 738.282 52.5784C738.368 52.2377 738.593 51.9502 738.955 51.716C739.328 51.4846 739.805 51.4427 740.384 51.5902C740.963 51.7378 741.532 51.9734 742.09 52.2971C742.895 52.0791 743.735 52.0814 744.61 52.3042C745.484 52.527 746.206 52.9225 746.774 53.4907C747.374 53.4621 747.975 53.5245 748.577 53.6779C749.19 53.8341 749.598 54.1074 749.801 54.4977C750.018 54.8795 750.091 55.2124 750.018 55.4963C749.923 55.871 749.791 56.1277 749.623 56.2662ZM739.583 70.3241C739.865 70.2629 740.205 69.4487 740.604 67.8816C740.775 67.2116 740.928 66.4946 741.062 65.7306L741.507 63.3409C742.303 58.9845 742.596 56.3382 742.387 55.4022C742.318 55.1063 742.186 54.9821 741.993 55.0295L739.583 70.3241ZM733.566 77.3529C734.303 77.1174 734.781 76.9007 735.001 76.7028C735.235 76.4963 735.428 76.3096 735.579 76.1426C735.982 75.701 736.481 75.4049 737.075 75.2541C737.684 75.0948 738.295 75.0933 738.908 75.2495C740.18 75.5736 740.964 76.3417 741.26 77.5538C741.5 78.5099 741.899 79.1981 742.457 79.6184C742.261 79.6772 742.079 79.7276 741.911 79.7694C741.743 79.8113 741.584 79.8674 741.433 79.9378C741.116 80.087 740.77 80.3555 740.393 80.7432C740.019 81.1195 739.544 81.4158 738.969 81.6321C738.408 81.8399 737.838 81.87 737.259 81.7224C736.68 81.5748 736.16 81.267 735.699 80.7987C735.252 80.3221 734.951 79.7921 734.798 79.2087C734.613 78.557 734.403 78.1226 734.168 77.9055C733.948 77.68 733.747 77.4958 733.566 77.3529ZM737.078 79.3725C737.042 79.2302 737.021 79.0738 737.016 78.9032C737.025 78.7242 737.087 78.4133 737.199 77.9704C737.315 77.5161 737.671 77.0204 738.268 76.483C738.018 76.4194 737.783 76.414 737.564 76.4671C737.348 76.5087 737.142 76.6073 736.945 76.7627C736.748 76.9181 736.601 77.0439 736.504 77.1401C736.421 77.2279 736.32 77.317 736.2 77.4074C735.903 77.6704 735.678 77.8186 735.524 77.852C735.68 78.0005 735.803 78.2071 735.893 78.4718C735.997 78.7281 736.119 79.0072 736.26 79.3091C736.474 79.7506 736.831 80.035 737.33 80.1623C737.294 80.0201 737.249 79.8877 737.196 79.7652C737.156 79.6343 737.117 79.5034 737.078 79.3725Z" fill="#50A0FF"/>
</svg>
