<svg width="163" height="150" viewBox="0 0 183 150" fill="none" xmlns="http://www.w3.org/2000/svg">
<path d="M82.1165 15.4644L92 6.24542L101.884 15.4644C106.883 20.1272 113.464 22.7202 120.3 22.7202H142.776C152.268 22.7202 159.962 30.4146 159.962 39.9061C159.962 45.0323 162.25 49.891 166.203 53.1558L178.322 63.1673C180.839 65.2469 181.04 69.0347 178.755 71.3681C176.633 73.536 176.633 77.0025 178.755 79.1704C181.039 81.5038 180.839 85.2916 178.322 87.3712L166.203 97.3827C162.25 100.648 159.962 105.506 159.962 110.632C159.962 120.124 152.268 127.818 142.776 127.818H120.3C113.464 127.818 106.882 130.411 101.884 135.074L92 144.293L82.1165 135.074C77.1175 130.411 70.536 127.818 63.6999 127.818H41.2238C31.7323 127.818 24.038 120.124 24.038 110.632C24.038 105.506 21.7496 100.648 17.7974 97.3827L5.67815 87.3712C3.16076 85.2916 2.96051 81.5038 5.24461 79.1704C7.36669 77.0025 7.3667 73.536 5.24462 71.3681C2.96053 69.0347 3.16078 65.2469 5.67817 63.1673L17.7975 53.1558C21.7496 49.891 24.038 45.0323 24.038 39.9061C24.038 30.4146 31.7324 22.7202 41.2239 22.7202H63.7C70.536 22.7202 77.1175 20.1272 82.1165 15.4644Z" fill="white"/>
<path d="M122.769 128.039L122.468 133.03L122.769 128.039ZM134.326 128.736L134.025 133.727L134.326 128.736ZM165.037 103.63L161.168 100.463L165.037 103.63ZM174.925 91.5443L178.795 94.7105L174.925 91.5443ZM91.8308 141.45L87.983 144.643L91.8311 149.281L95.6788 144.643L91.8308 141.45ZM87.5744 136.321L83.7266 139.514L83.7266 139.514L87.5744 136.321ZM67.5431 127.639L67.8438 132.63L67.5431 127.639ZM46.6981 128.894L46.9988 133.885L46.6981 128.894ZM22.8517 112.497L18.0838 114.003L18.0838 114.003L22.8517 112.497ZM21.9174 109.538L26.6853 108.033L26.6853 108.033L21.9174 109.538ZM18.9151 103.987L15.0453 107.154L15.0453 107.154L18.9151 103.987ZM8.73442 91.5443L12.6042 88.3781L8.73442 91.5443ZM13.2619 78.4205C15.2764 76.5318 15.3785 73.3677 13.4898 71.3531C11.6011 69.3386 8.43694 69.2365 6.4224 71.1252L13.2619 78.4205ZM177.237 71.1252C175.223 69.2365 172.059 69.3386 170.17 71.3531C168.281 73.3677 168.383 76.5318 170.398 78.4205L177.237 71.1252ZM161.603 109.979L166.371 111.485L161.603 109.979ZM61.0598 21.3267L61.3605 16.3357L61.0598 21.3267ZM49.5028 20.6305L49.8035 15.6395L49.5028 20.6305ZM91.998 7.91571L95.8458 4.72284L91.9978 0.0854278L88.15 4.72311L91.998 7.91571ZM96.2544 13.0452L100.102 9.85234L100.102 9.85233L96.2544 13.0452ZM116.286 21.7274L115.985 16.7365L116.286 21.7274ZM137.131 20.4717L136.83 15.4807L136.83 15.4807L137.131 20.4717ZM160.977 36.8692L165.745 35.3635V35.3635L160.977 36.8692ZM161.911 39.8279L157.144 41.3335V41.3335L161.911 39.8279ZM164.914 45.3788L161.044 48.545L164.914 45.3788ZM175.094 57.8218L178.964 54.6556L175.094 57.8218ZM170.567 70.9456C168.552 72.8343 168.45 75.9984 170.339 78.013C172.228 80.0275 175.392 80.1296 177.406 78.2409L170.567 70.9456ZM18.7914 45.7365L14.9216 42.5703L14.9216 42.5704L18.7914 45.7365ZM11.3689 54.8085L7.49907 51.6424L7.49906 51.6424L11.3689 54.8085ZM8.9035 57.8218L12.7733 60.9879L12.7733 60.9879L8.9035 57.8218ZM6.59149 78.2409C8.60603 80.1296 11.7702 80.0275 13.6589 78.013C15.5476 75.9984 15.4455 72.8343 13.431 70.9456L6.59149 78.2409ZM22.2257 39.387L17.4577 37.8814L17.4577 37.8814L22.2257 39.387ZM122.468 133.03L134.025 133.727L134.627 123.745L123.07 123.048L122.468 133.03ZM168.907 106.796L178.795 94.7105L171.056 88.3781L161.168 100.463L168.907 106.796ZM95.6786 138.258L91.4222 133.128L83.7266 139.514L87.983 144.643L95.6786 138.258ZM67.2425 122.648L46.3974 123.903L46.9988 133.885L67.8438 132.63L67.2425 122.648ZM27.6196 110.991L26.6853 108.033L17.1494 111.044L18.0838 114.003L27.6196 110.991ZM22.7848 100.821L12.6042 88.3781L4.86463 94.7105L15.0453 107.154L22.7848 100.821ZM12.6042 88.3781C10.1698 85.4027 10.4573 81.0499 13.2619 78.4205L6.4224 71.1252C-0.220476 77.3531 -0.901447 87.6631 4.86463 94.7105L12.6042 88.3781ZM26.6853 108.033C25.8548 105.403 24.5311 102.955 22.7848 100.821L15.0453 107.154C15.9873 108.305 16.7015 109.625 17.1494 111.044L26.6853 108.033ZM46.3974 123.903C37.9179 124.414 30.1777 119.092 27.6196 110.991L18.0838 114.003C22.0228 126.476 33.9416 134.672 46.9988 133.885L46.3974 123.903ZM91.4222 133.128C85.4924 125.982 76.5118 122.089 67.2425 122.648L67.8438 132.63C73.9325 132.263 79.8315 134.82 83.7266 139.514L91.4222 133.128ZM178.795 94.7105C184.561 87.6631 183.88 77.353 177.237 71.1252L170.398 78.4205C173.202 81.0499 173.49 85.4027 171.056 88.3781L178.795 94.7105ZM166.371 111.485C166.911 109.775 167.772 108.184 168.907 106.796L161.168 100.463C159.228 102.834 157.758 105.553 156.835 108.473L166.371 111.485ZM134.025 133.727C148.632 134.606 161.965 125.438 166.371 111.485L156.835 108.473C153.81 118.054 144.655 124.349 134.627 123.745L134.025 133.727ZM95.6788 144.643C102.248 136.725 112.198 132.412 122.468 133.03L123.07 123.048C109.619 122.238 96.587 127.887 87.9828 138.258L95.6788 144.643ZM61.3605 16.3357L49.8035 15.6395L49.2022 25.6214L60.7592 26.3176L61.3605 16.3357ZM88.1502 11.1086L92.4066 16.2381L100.102 9.85233L95.8458 4.72284L88.1502 11.1086ZM116.586 26.7184L137.431 25.4626L136.83 15.4807L115.985 16.7365L116.586 26.7184ZM156.209 38.3748L157.144 41.3335L166.679 38.3222L165.745 35.3635L156.209 38.3748ZM161.044 48.545L171.225 60.988L178.964 54.6556L168.784 42.2126L161.044 48.545ZM171.225 60.988C173.659 63.9634 173.371 68.3162 170.567 70.9456L177.406 78.2409C184.049 72.013 184.73 61.703 178.964 54.6556L171.225 60.988ZM157.144 41.3335C157.974 43.9632 159.298 46.4106 161.044 48.545L168.784 42.2126C167.841 41.0612 167.127 39.7408 166.679 38.3222L157.144 41.3335ZM137.431 25.4626C145.911 24.9518 153.651 30.2742 156.209 38.3748L165.745 35.3635C161.806 22.8898 149.887 14.6942 136.83 15.4807L137.431 25.4626ZM92.4066 16.2381C98.3365 23.3843 107.317 27.2768 116.586 26.7184L115.985 16.7365C109.896 17.1033 103.997 14.5464 100.102 9.85234L92.4066 16.2381ZM14.9216 42.5704L7.49907 51.6424L15.2386 57.9747L22.6612 48.9027L14.9216 42.5704ZM7.49906 51.6424L5.03371 54.6556L12.7733 60.9879L15.2386 57.9747L7.49906 51.6424ZM13.431 70.9456C10.6264 68.3162 10.3389 63.9633 12.7733 60.9879L5.03372 54.6556C-0.732367 61.703 -0.0513916 72.013 6.59149 78.2409L13.431 70.9456ZM17.4577 37.8814C16.9178 39.5912 16.0571 41.1826 14.9216 42.5703L22.6612 48.9027C24.6009 46.532 26.0712 43.8136 26.9936 40.8927L17.4577 37.8814ZM49.8035 15.6395C35.1971 14.7596 21.8642 23.9277 17.4577 37.8814L26.9936 40.8927C30.019 31.3121 39.1734 25.0173 49.2022 25.6214L49.8035 15.6395ZM88.15 4.72311C81.5805 12.6413 71.6305 16.9544 61.3605 16.3357L60.7592 26.3176C74.2101 27.1279 87.2418 21.479 95.8461 11.1083L88.15 4.72311Z" fill="#EC2C2C"/>
<circle cx="91.9999" cy="9.34066" r="3.09524" fill="white"/>
<circle cx="91.9999" cy="141.198" r="3.09524" fill="white"/>
<circle cx="111.809" cy="21.7216" r="3.09524" fill="white"/>
<circle cx="124.809" cy="21.1026" r="3.09524" fill="white"/>
<circle cx="147.095" cy="21.7216" r="3.09524" fill="white"/>
<circle cx="160.095" cy="33.4835" r="3.09524" fill="white"/>
<circle cx="166.286" cy="47.7216" r="3.09524" fill="white"/>
<circle cx="176.809" cy="60.7216" r="3.09524" fill="white"/>
<circle cx="174.952" cy="74.9597" r="3.09524" fill="white"/>
<circle r="3.09524" transform="matrix(1 0 0 -1 111.809 128.198)" fill="white"/>
<circle r="3.09524" transform="matrix(1 0 0 -1 124.81 128.817)" fill="white"/>
<circle r="3.09524" transform="matrix(1 0 0 -1 147.095 128.198)" fill="white"/>
<circle r="3.09524" transform="matrix(1 0 0 -1 160.095 116.436)" fill="white"/>
<circle r="3.09524" transform="matrix(1 0 0 -1 166.286 102.198)" fill="white"/>
<circle r="3.09524" transform="matrix(1 0 0 -1 176.809 89.1978)" fill="white"/>
<circle cx="72.1904" cy="127.579" r="3.09524" transform="rotate(-180 72.1904 127.579)" fill="white"/>
<circle cx="59.1905" cy="128.198" r="3.09524" transform="rotate(-180 59.1905 128.198)" fill="white"/>
<circle cx="36.9048" cy="127.579" r="3.09524" transform="rotate(-180 36.9048 127.579)" fill="white"/>
<circle cx="23.9048" cy="115.817" r="3.09524" transform="rotate(-180 23.9048 115.817)" fill="white"/>
<circle cx="17.7143" cy="101.579" r="3.09524" transform="rotate(-180 17.7143 101.579)" fill="white"/>
<circle cx="7.19041" cy="88.5787" r="3.09524" transform="rotate(-180 7.19041 88.5787)" fill="white"/>
<circle r="3.09524" transform="matrix(-1 0 0 1 73.0952 21.0952)" fill="white"/>
<circle r="3.09524" transform="matrix(-1 0 0 1 59.1905 21.1026)" fill="white"/>
<circle r="3.09524" transform="matrix(-1 0 0 1 36.9048 21.7216)" fill="white"/>
<circle r="3.09524" transform="matrix(-1 0 0 1 23.9048 33.4835)" fill="white"/>
<circle r="3.09524" transform="matrix(-1 0 0 1 17.7143 47.7216)" fill="white"/>
<circle r="3.09524" transform="matrix(-1 0 0 1 7.19041 60.7216)" fill="white"/>
<circle r="3.09524" transform="matrix(-1 0 0 1 8.42869 74.9597)" fill="white"/>
<path d="M35.1172 74.4668C34.388 75.196 33.6953 75.5605 33.0391 75.5605C32.6198 75.5605 32.3372 75.4056 32.1914 75.0957C32.401 74.8405 32.5059 74.4577 32.5059 73.9473V73.7422C32.5059 73.6875 32.5013 73.6374 32.4922 73.5918C32.0365 73.1816 31.8086 72.6986 31.8086 72.1426C31.8086 71.5775 32.0729 71.0033 32.6016 70.4199C32.4466 70.11 32.3691 69.7819 32.3691 69.4355C32.3691 69.0801 32.4193 68.752 32.5195 68.4512C32.6289 68.1413 32.7747 67.8724 32.957 67.6445C33.3398 67.1432 33.7135 66.8926 34.0781 66.8926C34.4518 66.8926 34.7161 67.0384 34.8711 67.3301C34.543 67.6764 34.3789 68.2188 34.3789 68.957C34.3789 69.6953 34.4837 70.3379 34.6934 70.8848C34.9121 71.4316 35.2174 71.901 35.6094 72.293C36.4479 73.1497 37.5189 73.5781 38.8223 73.5781C39.6973 73.5781 40.4401 73.3275 41.0508 72.8262C41.707 72.2884 42.0352 71.5547 42.0352 70.625C42.0352 69.9688 41.8802 69.4355 41.5703 69.0254C41.0872 68.3874 40.3307 67.7129 39.3008 67.002C38.5078 66.446 37.8743 66.168 37.4004 66.168C36.9173 66.168 36.3841 66.3639 35.8008 66.7559C35.9557 66.291 36.0332 65.8581 36.0332 65.457C36.0332 65.3659 35.9466 65.2474 35.7734 65.1016L35.2676 64.6504C33.6725 63.1829 32.7292 61.8203 32.4375 60.5625C32.3372 60.125 32.2871 59.5781 32.2871 58.9219C32.2871 58.2565 32.4466 57.5866 32.7656 56.9121C33.0938 56.2285 33.5404 55.6497 34.1055 55.1758C35.2812 54.1732 36.776 53.6719 38.5898 53.6719C39.6927 53.6719 40.7044 53.8496 41.625 54.2051C42.0169 54.36 42.4635 54.4375 42.9648 54.4375C43.1745 54.4375 43.3613 54.4284 43.5254 54.4102C43.6986 54.3828 43.849 54.2871 43.9766 54.123C44.0951 53.9499 44.1543 53.7949 44.1543 53.6582C44.1543 53.5215 44.1361 53.4076 44.0996 53.3164C44.1634 53.2891 44.25 53.2754 44.3594 53.2754C44.4779 53.2754 44.6055 53.3164 44.7422 53.3984C44.8789 53.4714 45.002 53.5762 45.1113 53.7129C45.3574 54.0228 45.4805 54.3737 45.4805 54.7656C45.4805 55.1484 45.3711 55.4401 45.1523 55.6406C45.4622 55.9141 45.6172 56.3379 45.6172 56.9121C45.6172 57.4772 45.4258 57.9512 45.043 58.334C45.1159 58.5801 45.1523 58.8034 45.1523 59.0039C45.1523 59.1953 45.1159 59.3822 45.043 59.5645C44.9792 59.7376 44.888 59.888 44.7695 60.0156C44.5052 60.2982 44.2546 60.4395 44.0176 60.4395C43.6439 60.4395 43.3294 60.3757 43.0742 60.248C43.2292 59.8835 43.3066 59.4915 43.3066 59.0723C43.3066 58.653 43.2109 58.2246 43.0195 57.7871C42.8372 57.3405 42.5775 56.9531 42.2402 56.625C41.5293 55.9505 40.5996 55.6133 39.4512 55.6133C38.722 55.6133 38.125 55.8366 37.6602 56.2832C37.2227 56.7025 37.0039 57.2083 37.0039 57.8008C37.0039 58.2474 37.1133 58.6211 37.332 58.9219C37.7148 59.4414 38.321 59.9792 39.1504 60.5352L39.8066 60.9727C40.1712 61.2005 40.4173 61.3145 40.5449 61.3145C40.6725 61.3145 40.8001 61.3008 40.9277 61.2734C41.0553 61.2461 41.1966 61.2096 41.3516 61.1641C41.6797 61.0547 41.9987 60.8997 42.3086 60.6992L42.1309 61.4648C42.0762 61.7201 42.0488 61.9069 42.0488 62.0254C42.0488 62.2168 42.1445 62.39 42.3359 62.5449C44.0404 64.0215 45.1797 65.2565 45.7539 66.25C46.2552 67.1159 46.5059 68.0501 46.5059 69.0527C46.5059 70.0553 46.3418 70.9167 46.0137 71.6367C45.6855 72.3568 45.207 72.9948 44.5781 73.5508C43.1927 74.7904 41.3926 75.4102 39.1777 75.4102C37.6191 75.4102 36.2656 75.0957 35.1172 74.4668ZM34.1875 57.9102C33.8411 58.056 33.668 58.4342 33.668 59.0449C33.668 60.2936 34.502 61.6654 36.1699 63.1602L36.9902 63.8984C37.2728 64.1536 37.3958 64.3496 37.3594 64.4863C37.332 64.623 37.3047 64.7324 37.2773 64.8145C37.2591 64.8965 37.2363 64.974 37.209 65.0469C37.1816 65.1198 37.1634 65.1745 37.1543 65.2109C37.4733 65.0195 37.7331 64.9238 37.9336 64.9238C38.3346 64.9238 38.7129 65.0332 39.0684 65.252C40.8275 66.3457 42.0215 67.321 42.6504 68.1777C43.1061 68.8066 43.3431 69.5905 43.3613 70.5293C43.3613 70.8665 43.3385 71.1491 43.293 71.377C43.776 71.0671 44.0176 70.5749 44.0176 69.9004C44.0176 69.2441 43.9264 68.7383 43.7441 68.3828C43.571 68.0273 43.3659 67.7129 43.1289 67.4395C42.8919 67.1569 42.582 66.8516 42.1992 66.5234C41.8255 66.1953 41.3607 65.8398 40.8047 65.457L38.8633 64.1309C37.2682 63.0827 36.056 61.9753 35.2266 60.8086C34.4974 59.7786 34.151 58.8125 34.1875 57.9102ZM55.2012 74.8359C54.7363 75.1276 54.2077 75.2734 53.6152 75.2734C53.0228 75.2734 52.4941 75.1276 52.0293 74.8359C51.5645 75.1276 51.1315 75.2734 50.7305 75.2734C50.3385 75.2734 50.015 75.237 49.7598 75.1641C49.5046 75.1003 49.2812 75.0091 49.0898 74.8906C48.6979 74.6536 48.502 74.3574 48.502 74.002C48.502 73.8197 48.5521 73.6602 48.6523 73.5234C48.8529 73.6784 49.1081 73.7559 49.418 73.7559C50.2292 73.7559 50.7897 73.4095 51.0996 72.7168V66.0312C51.0996 65.612 51.013 65.3021 50.8398 65.1016C50.5664 64.7643 50.097 64.4316 49.4316 64.1035C50.0514 63.821 50.4525 63.5703 50.6348 63.3516C50.9447 62.9961 51.0996 62.5951 51.0996 62.1484V56.3789C50.7897 55.6771 50.2292 55.3262 49.418 55.3262C49.1081 55.3262 48.8529 55.4036 48.6523 55.5586C48.5521 55.4219 48.502 55.2669 48.502 55.0938C48.502 54.9115 48.5521 54.7428 48.6523 54.5879C48.7617 54.4329 48.9076 54.3008 49.0898 54.1914C49.5091 53.9362 49.9876 53.8086 50.5254 53.8086C51.0723 53.8086 51.5736 53.959 52.0293 54.2598C52.5033 53.959 53.0319 53.8086 53.6152 53.8086C54.1986 53.8086 54.7272 53.959 55.2012 54.2598C55.6569 53.959 56.0853 53.8086 56.4863 53.8086C56.8874 53.8086 57.2155 53.8451 57.4707 53.918C57.7259 53.9818 57.9492 54.0729 58.1406 54.1914C58.5326 54.4284 58.7285 54.7246 58.7285 55.0801C58.7285 55.2624 58.6784 55.4219 58.5781 55.5586C58.3776 55.4036 58.1224 55.3262 57.8125 55.3262C57.0013 55.3262 56.4408 55.6771 56.1309 56.3789V62.1484C56.1309 62.5951 56.2266 62.9277 56.418 63.1465C56.7188 63.502 57.179 63.821 57.7988 64.1035C57.1335 64.4316 56.7096 64.7005 56.5273 64.9102C56.263 65.2383 56.1309 65.612 56.1309 66.0312V72.7168C56.4408 73.4095 57.0013 73.7559 57.8125 73.7559C58.1224 73.7559 58.3776 73.6784 58.5781 73.5234C58.6784 73.6602 58.7285 73.8197 58.7285 74.002C58.7285 74.1751 58.6738 74.3392 58.5645 74.4941C58.4642 74.6491 58.3229 74.7812 58.1406 74.8906C57.7214 75.1458 57.2428 75.2734 56.7051 75.2734C56.1673 75.2734 55.666 75.1276 55.2012 74.8359ZM52.4121 71.377C52.8678 71.2038 53.1185 70.6068 53.1641 69.5859C53.2188 68.5651 53.2461 67.1523 53.2461 65.3477C53.2461 63.543 53.2415 62.3444 53.2324 61.752C53.2324 61.1504 53.2279 60.6673 53.2188 60.3027C53.1914 59.2272 53.0866 58.5801 52.9043 58.3613C52.7311 58.1335 52.5671 57.9831 52.4121 57.9102C52.4121 61.082 52.3574 62.8867 52.248 63.3242C52.1204 63.6888 51.8105 63.9486 51.3184 64.1035C51.8652 64.2949 52.1751 64.5273 52.248 64.8008C52.3574 65.2383 52.4121 66.8379 52.4121 69.5996V71.377ZM67.4785 74.8359C67.0137 75.1276 66.485 75.2734 65.8926 75.2734C65.3001 75.2734 64.7715 75.1276 64.3066 74.8359C63.8418 75.1276 63.4089 75.2734 63.0078 75.2734C62.6159 75.2734 62.2923 75.237 62.0371 75.1641C61.7819 75.1003 61.5586 75.0091 61.3672 74.8906C60.9753 74.6536 60.7793 74.3574 60.7793 74.002C60.7793 73.8197 60.8294 73.6602 60.9297 73.5234C61.1302 73.6784 61.3854 73.7559 61.6953 73.7559C62.5065 73.7559 63.0671 73.4095 63.377 72.7168V66.0312C63.377 65.612 63.2904 65.3021 63.1172 65.1016C62.8438 64.7643 62.3743 64.4316 61.709 64.1035C62.3288 63.821 62.7298 63.5703 62.9121 63.3516C63.222 62.9961 63.377 62.5951 63.377 62.1484V56.3789C63.0671 55.6771 62.5065 55.3262 61.6953 55.3262C61.3854 55.3262 61.1302 55.4036 60.9297 55.5586C60.8294 55.4219 60.7793 55.2669 60.7793 55.0938C60.7793 54.9115 60.8294 54.7428 60.9297 54.5879C61.0391 54.4329 61.1849 54.3008 61.3672 54.1914C61.7865 53.9362 62.265 53.8086 62.8027 53.8086C63.3496 53.8086 63.8509 53.959 64.3066 54.2598C64.7806 53.959 65.3092 53.8086 65.8926 53.8086C66.4759 53.8086 67.0046 53.959 67.4785 54.2598C68.5085 53.8678 69.6478 53.6719 70.8965 53.6719C72.1543 53.6719 73.207 53.7858 74.0547 54.0137C74.9023 54.2415 75.6315 54.5651 76.2422 54.9844C77.4727 55.832 78.2383 57.0124 78.5391 58.5254C78.6576 59.1999 79.0905 59.7103 79.8379 60.0566C79.127 60.4577 78.6621 61.0957 78.4434 61.9707C77.9967 63.7754 76.8802 64.901 75.0938 65.3477C76.0143 65.5938 76.7663 66.0996 77.3496 66.8652C77.9512 67.6582 78.252 68.5924 78.252 69.668V71.0352C78.252 72.3477 78.6758 73.1953 79.5234 73.5781C79.7786 73.6966 80.0566 73.7559 80.3574 73.7559C80.6582 73.7559 80.9089 73.6784 81.1094 73.5234C81.2096 73.6602 81.2598 73.8197 81.2598 74.002C81.2598 74.1751 81.2142 74.3392 81.123 74.4941C81.0319 74.6491 80.9089 74.7812 80.7539 74.8906C80.4258 75.1458 80.043 75.2734 79.6055 75.2734C79.168 75.2734 78.7396 75.1549 78.3203 74.918C77.5547 75.3372 76.8392 75.3783 76.1738 75.041C75.9186 75.196 75.6497 75.2734 75.3672 75.2734C75.0846 75.2734 74.8112 75.2096 74.5469 75.082C74.2917 74.9544 74.0638 74.7448 73.8633 74.4531C73.4349 73.8242 73.2207 72.8581 73.2207 71.5547V70.543C73.2207 68.4375 72.6191 67.0703 71.416 66.4414C71.015 66.2318 70.5456 66.127 70.0078 66.127H68.4082V72.7852C68.6543 73.4323 69.1237 73.7559 69.8164 73.7559C70.1263 73.7559 70.3815 73.6784 70.582 73.5234C70.6823 73.6602 70.7324 73.8607 70.7324 74.125C70.7324 74.3893 70.5866 74.6491 70.2949 74.9043C70.0124 75.1504 69.584 75.2734 69.0098 75.2734C68.4355 75.2734 67.9251 75.1276 67.4785 74.8359ZM71.0332 55.4902C69.2832 55.4902 68.4082 56.1693 68.4082 57.5273V63.1191C68.4082 63.5931 68.5951 63.9121 68.9688 64.0762C69.3242 64.2311 69.8483 64.3086 70.541 64.3086C71.2428 64.3086 71.7305 64.2721 72.0039 64.1992C72.2865 64.1172 72.528 63.9805 72.7285 63.7891C73.1387 63.3971 73.3438 62.7409 73.3438 61.8203V57.8281C73.3438 56.6888 72.8698 55.9596 71.9219 55.6406C71.6393 55.5404 71.3431 55.4902 71.0332 55.4902ZM74.2598 56.3652C74.5423 57.0033 74.6836 58.0241 74.6836 59.4277C74.6836 61.8431 74.5697 63.2878 74.3418 63.7617C74.8431 63.6615 75.2031 62.9915 75.4219 61.752L75.5312 61.1914C75.6315 60.599 75.9232 60.2207 76.4062 60.0566C76.0508 59.9382 75.8229 59.7969 75.7227 59.6328C75.6133 59.4414 75.513 59.1178 75.4219 58.6621C75.3398 58.1973 75.2533 57.8236 75.1621 57.541C75.071 57.2585 74.9753 57.0352 74.875 56.8711C74.7018 56.5794 74.4967 56.4108 74.2598 56.3652ZM64.6895 71.377C65.1452 71.2038 65.3958 70.6068 65.4414 69.5859C65.4961 68.5651 65.5234 67.1523 65.5234 65.3477C65.5234 63.543 65.5189 62.3444 65.5098 61.752C65.5098 61.1504 65.5052 60.6673 65.4961 60.3027C65.4688 59.2272 65.3639 58.5801 65.1816 58.3613C65.0085 58.1335 64.8444 57.9831 64.6895 57.9102C64.6895 61.082 64.6348 62.8867 64.5254 63.3242C64.3978 63.6888 64.0879 63.9486 63.5957 64.1035C64.1426 64.2949 64.4525 64.5273 64.5254 64.8008C64.6348 65.2383 64.6895 66.8379 64.6895 69.5996V71.377ZM74.123 67.6309C74.4876 68.041 74.6699 68.5423 74.6699 69.1348V70.9395C74.6699 72.4525 74.9707 73.2591 75.5723 73.3594C75.7363 73.3867 75.8958 73.3822 76.0508 73.3457C75.7227 72.8353 75.5586 72.2975 75.5586 71.7324V69.8184C75.5586 69.0983 75.4583 68.5879 75.2578 68.2871C74.9115 67.7767 74.5332 67.5579 74.123 67.6309ZM88.7246 74.8359C88.2598 75.1276 87.7311 75.2734 87.1387 75.2734C86.5462 75.2734 86.0176 75.1276 85.5527 74.8359C85.0879 75.1276 84.6549 75.2734 84.2539 75.2734C83.862 75.2734 83.5384 75.237 83.2832 75.1641C83.028 75.1003 82.8047 75.0091 82.6133 74.8906C82.2214 74.6536 82.0254 74.3574 82.0254 74.002C82.0254 73.8197 82.0755 73.6602 82.1758 73.5234C82.3763 73.6784 82.6315 73.7559 82.9414 73.7559C83.7526 73.7559 84.3132 73.4095 84.623 72.7168V66.0312C84.623 65.612 84.5365 65.3021 84.3633 65.1016C84.0898 64.7643 83.6204 64.4316 82.9551 64.1035C83.5749 63.821 83.9759 63.5703 84.1582 63.3516C84.4681 62.9961 84.623 62.5951 84.623 62.1484V56.3789C84.3132 55.6771 83.7526 55.3262 82.9414 55.3262C82.6315 55.3262 82.3763 55.4036 82.1758 55.5586C82.0755 55.4219 82.0254 55.2669 82.0254 55.0938C82.0254 54.9115 82.0755 54.7428 82.1758 54.5879C82.2852 54.4329 82.431 54.3008 82.6133 54.1914C83.0326 53.9362 83.5111 53.8086 84.0488 53.8086C84.5957 53.8086 85.097 53.959 85.5527 54.2598C86.0267 53.959 86.5553 53.8086 87.1387 53.8086C87.722 53.8086 88.2507 53.959 88.7246 54.2598C89.1803 53.959 89.6087 53.8086 90.0098 53.8086C90.4108 53.8086 90.7389 53.8451 90.9941 53.918C91.2493 53.9818 91.4727 54.0729 91.6641 54.1914C92.056 54.4284 92.252 54.7246 92.252 55.0801C92.252 55.2624 92.2018 55.4219 92.1016 55.5586C91.901 55.4036 91.6458 55.3262 91.3359 55.3262C90.5247 55.3262 89.9642 55.6771 89.6543 56.3789V62.1484C89.6543 62.5951 89.75 62.9277 89.9414 63.1465C90.2422 63.502 90.7025 63.821 91.3223 64.1035C90.6569 64.4316 90.2331 64.7005 90.0508 64.9102C89.7865 65.2383 89.6543 65.612 89.6543 66.0312V72.7168C89.9642 73.4095 90.5247 73.7559 91.3359 73.7559C91.6458 73.7559 91.901 73.6784 92.1016 73.5234C92.2018 73.6602 92.252 73.8197 92.252 74.002C92.252 74.1751 92.1973 74.3392 92.0879 74.4941C91.9876 74.6491 91.8464 74.7812 91.6641 74.8906C91.2448 75.1458 90.7663 75.2734 90.2285 75.2734C89.6908 75.2734 89.1895 75.1276 88.7246 74.8359ZM85.9355 71.377C86.3913 71.2038 86.6419 70.6068 86.6875 69.5859C86.7422 68.5651 86.7695 67.1523 86.7695 65.3477C86.7695 63.543 86.765 62.3444 86.7559 61.752C86.7559 61.1504 86.7513 60.6673 86.7422 60.3027C86.7148 59.2272 86.61 58.5801 86.4277 58.3613C86.2546 58.1335 86.0905 57.9831 85.9355 57.9102C85.9355 61.082 85.8809 62.8867 85.7715 63.3242C85.6439 63.6888 85.334 63.9486 84.8418 64.1035C85.3887 64.2949 85.6986 64.5273 85.7715 64.8008C85.8809 65.2383 85.9355 66.8379 85.9355 69.5996V71.377ZM100.838 74.8496C100.382 75.1322 99.8672 75.2734 99.293 75.2734C98.7188 75.2734 98.2266 75.1276 97.8164 74.8359C97.3516 75.1276 96.9232 75.2734 96.5312 75.2734C96.1393 75.2734 95.8158 75.237 95.5605 75.1641C95.3053 75.1003 95.082 75.0091 94.8906 74.8906C94.4987 74.6536 94.3027 74.3574 94.3027 74.002C94.3027 73.8197 94.3529 73.6602 94.4531 73.5234C94.6536 73.6784 94.9089 73.7559 95.2188 73.7559C96.0299 73.7559 96.5905 73.4095 96.9004 72.7168V66.0312C96.9004 65.3203 96.5449 64.7826 95.834 64.418L95.2324 64.1035C96.0436 63.7298 96.5495 63.3242 96.75 62.8867C96.8503 62.6862 96.9004 62.4401 96.9004 62.1484V56.3789C96.5905 55.6771 96.0299 55.3262 95.2188 55.3262C94.9089 55.3262 94.6536 55.4036 94.4531 55.5586C94.3529 55.4219 94.3027 55.2669 94.3027 55.0938C94.3027 54.9115 94.3529 54.7428 94.4531 54.5879C94.5625 54.4329 94.7083 54.3008 94.8906 54.1914C95.3099 53.9362 95.7839 53.8086 96.3125 53.8086C96.8503 53.8086 97.3516 53.9544 97.8164 54.2461C98.2266 53.9544 98.7188 53.8086 99.293 53.8086C99.8763 53.8086 100.391 53.9544 100.838 54.2461C101.266 53.9544 101.745 53.8086 102.273 53.8086C103.048 53.8086 103.604 54.0684 103.941 54.5879C104.042 54.752 104.092 54.9251 104.092 55.1074C104.092 55.2897 104.037 55.4401 103.928 55.5586C103.727 55.4036 103.477 55.3262 103.176 55.3262C102.474 55.3262 102.005 55.668 101.768 56.3516V63.3789L108.057 55.9277C108.057 55.5176 107.829 55.3125 107.373 55.3125C106.917 55.3125 106.539 55.3991 106.238 55.5723C106.138 55.4082 106.088 55.1986 106.088 54.9434C106.088 54.679 106.225 54.4238 106.498 54.1777C106.771 53.9316 107.15 53.8086 107.633 53.8086C108.125 53.8086 108.531 53.9271 108.85 54.1641C109.169 53.9271 109.524 53.8086 109.916 53.8086C110.308 53.8086 110.659 53.9316 110.969 54.1777C111.279 53.9316 111.593 53.8086 111.912 53.8086C112.231 53.8086 112.482 53.8405 112.664 53.9043C112.855 53.959 113.02 54.0365 113.156 54.1367C113.475 54.3737 113.635 54.638 113.635 54.9297C113.635 55.2214 113.589 55.4355 113.498 55.5723C113.307 55.5085 113.088 55.4766 112.842 55.4766C112.34 55.4766 111.971 55.5267 111.734 55.627C111.507 55.7272 111.283 55.8411 111.064 55.9688C110.855 56.0964 110.641 56.2422 110.422 56.4062L109.793 56.8711C109.583 57.0352 109.415 57.1855 109.287 57.3223L106.156 61L111.912 71.4727C112.623 72.7487 113.193 73.4779 113.621 73.6602C113.776 73.724 113.977 73.7559 114.223 73.7559C114.469 73.7559 114.692 73.6784 114.893 73.5234C114.993 73.6602 115.043 73.8197 115.043 74.002C115.043 74.1751 114.993 74.3392 114.893 74.4941C114.792 74.6491 114.66 74.7812 114.496 74.8906C114.122 75.1458 113.648 75.2734 113.074 75.2734C112.5 75.2734 111.98 75.1276 111.516 74.8359C111.051 75.1276 110.522 75.2734 109.93 75.2734C109.337 75.2734 108.809 75.1276 108.344 74.8359C107.879 75.1276 107.368 75.2734 106.812 75.2734C106.266 75.2734 105.837 75.1504 105.527 74.9043C105.227 74.6491 105.076 74.3483 105.076 74.002C105.076 73.8197 105.126 73.6602 105.227 73.5234C105.427 73.6784 105.682 73.7559 105.992 73.7559C106.566 73.7559 106.99 73.5326 107.264 73.0859L103.039 64.6367L101.768 66.127V72.7305C102.005 73.4141 102.474 73.7559 103.176 73.7559C103.477 73.7559 103.727 73.6784 103.928 73.5234C104.037 73.6419 104.092 73.7923 104.092 73.9746C104.092 74.1569 104.037 74.3301 103.928 74.4941C103.827 74.6582 103.695 74.7995 103.531 74.918C103.185 75.1549 102.766 75.2734 102.273 75.2734C101.754 75.2734 101.275 75.1322 100.838 74.8496ZM98.1855 71.377C98.6413 71.2038 98.8919 70.6068 98.9375 69.5859C98.9922 68.5651 99.0195 67.1523 99.0195 65.3477C99.0195 63.543 99.015 62.3444 99.0059 61.752C99.0059 61.1504 99.0013 60.6673 98.9922 60.3027C98.9648 59.2272 98.86 58.5801 98.6777 58.3613C98.5046 58.1335 98.3405 57.9831 98.1855 57.9102C98.1855 61.082 98.1309 62.8867 98.0215 63.3242C97.8939 63.6888 97.584 63.9486 97.0918 64.1035C97.6387 64.2949 97.9486 64.5273 98.0215 64.8008C98.1309 65.2383 98.1855 66.8379 98.1855 69.5996V71.377ZM107.824 71.377C107.934 71.2311 107.988 71.0169 107.988 70.7344C107.988 70.1146 107.774 69.4082 107.346 68.6152L104.68 63.1465L104.064 63.7891L107.824 71.377ZM132.447 70.5566C132.611 70.9577 132.944 71.3405 133.445 71.7051C133.126 71.8327 132.725 72.1335 132.242 72.6074C131.768 73.0814 131.235 73.5052 130.643 73.8789C130.05 74.2526 129.462 74.5534 128.879 74.7812C127.822 75.2005 126.678 75.4102 125.447 75.4102C124.226 75.4102 123.114 75.2643 122.111 74.9727C121.118 74.681 120.293 74.2845 119.637 73.7832C118.352 72.7897 117.709 71.4681 117.709 69.8184V66.0312C117.709 65.612 117.622 65.3021 117.449 65.1016C117.176 64.7643 116.706 64.4316 116.041 64.1035C116.661 63.821 117.062 63.5703 117.244 63.3516C117.554 62.9961 117.709 62.5951 117.709 62.1484V56.3789C117.399 55.6771 116.839 55.3262 116.027 55.3262C115.717 55.3262 115.462 55.4036 115.262 55.5586C115.161 55.4219 115.111 55.2669 115.111 55.0938C115.111 54.9115 115.161 54.7428 115.262 54.5879C115.371 54.4329 115.517 54.3008 115.699 54.1914C116.118 53.9362 116.597 53.8086 117.135 53.8086C117.682 53.8086 118.183 53.959 118.639 54.2598C119.113 53.959 119.641 53.8086 120.225 53.8086C120.808 53.8086 121.337 53.959 121.811 54.2598C122.266 53.959 122.695 53.8086 123.096 53.8086C123.497 53.8086 123.825 53.8451 124.08 53.918C124.335 53.9818 124.559 54.0729 124.75 54.1914C125.142 54.4284 125.338 54.7246 125.338 55.0801C125.338 55.2624 125.288 55.4219 125.188 55.5586C124.987 55.4036 124.732 55.3262 124.422 55.3262C123.611 55.3262 123.05 55.6771 122.74 56.3789V62.1484C122.74 62.5951 122.836 62.9277 123.027 63.1465C123.328 63.502 123.788 63.821 124.408 64.1035C123.743 64.4316 123.319 64.7005 123.137 64.9102C122.872 65.2383 122.74 65.612 122.74 66.0312V69.8457C122.74 70.9486 123.155 71.8555 123.984 72.5664C124.75 73.2135 125.62 73.5371 126.596 73.5371C127.617 73.5371 128.523 73.2227 129.316 72.5938C130.128 71.9557 130.533 71.181 130.533 70.2695V65.9082C130.533 65.5072 130.447 65.2109 130.273 65.0195C130.009 64.737 129.54 64.4316 128.865 64.1035C129.494 63.7936 129.9 63.543 130.082 63.3516C130.383 63.0326 130.533 62.6771 130.533 62.2852V56.2012C130.141 55.6178 129.663 55.3262 129.098 55.3262C128.533 55.3262 128.118 55.4036 127.854 55.5586C127.753 55.3945 127.703 55.1712 127.703 54.8887C127.703 54.597 127.844 54.3464 128.127 54.1367C128.41 53.918 128.779 53.8086 129.234 53.8086C129.69 53.8086 130.096 53.9271 130.451 54.1641C130.77 53.9271 131.135 53.8086 131.545 53.8086C131.964 53.8086 132.333 53.9316 132.652 54.1777C133.008 53.9316 133.4 53.8086 133.828 53.8086C134.257 53.8086 134.598 53.9225 134.854 54.1504C135.118 54.3691 135.25 54.6243 135.25 54.916C135.25 55.2077 135.204 55.4219 135.113 55.5586C134.849 55.4036 134.425 55.3262 133.842 55.3262C133.268 55.3262 132.803 55.6178 132.447 56.2012V62.2852C132.447 62.6862 132.534 62.9779 132.707 63.1602C132.98 63.4427 133.495 63.7572 134.252 64.1035C133.45 64.4954 132.971 64.7689 132.816 64.9238C132.57 65.1699 132.447 65.498 132.447 65.9082V70.5566ZM119.732 71.377C119.814 70.8848 119.855 69.3079 119.855 66.6465C119.855 63.9759 119.851 62.3444 119.842 61.752C119.842 61.1504 119.837 60.6673 119.828 60.3027C119.801 59.2272 119.696 58.5801 119.514 58.3613C119.34 58.1335 119.176 57.9831 119.021 57.9102C119.021 61.082 118.967 62.8867 118.857 63.3242C118.73 63.6888 118.42 63.9486 117.928 64.1035C118.475 64.2949 118.785 64.5273 118.857 64.8008C118.967 65.2383 119.021 66.1816 119.021 67.6309C119.021 69.0801 119.04 69.9368 119.076 70.2012C119.122 70.4655 119.181 70.6797 119.254 70.8438C119.372 71.1354 119.532 71.3132 119.732 71.377ZM140.336 74.4668C139.607 75.196 138.914 75.5605 138.258 75.5605C137.839 75.5605 137.556 75.4056 137.41 75.0957C137.62 74.8405 137.725 74.4577 137.725 73.9473V73.7422C137.725 73.6875 137.72 73.6374 137.711 73.5918C137.255 73.1816 137.027 72.6986 137.027 72.1426C137.027 71.5775 137.292 71.0033 137.82 70.4199C137.665 70.11 137.588 69.7819 137.588 69.4355C137.588 69.0801 137.638 68.752 137.738 68.4512C137.848 68.1413 137.993 67.8724 138.176 67.6445C138.559 67.1432 138.932 66.8926 139.297 66.8926C139.671 66.8926 139.935 67.0384 140.09 67.3301C139.762 67.6764 139.598 68.2188 139.598 68.957C139.598 69.6953 139.702 70.3379 139.912 70.8848C140.131 71.4316 140.436 71.901 140.828 72.293C141.667 73.1497 142.738 73.5781 144.041 73.5781C144.916 73.5781 145.659 73.3275 146.27 72.8262C146.926 72.2884 147.254 71.5547 147.254 70.625C147.254 69.9688 147.099 69.4355 146.789 69.0254C146.306 68.3874 145.549 67.7129 144.52 67.002C143.727 66.446 143.093 66.168 142.619 66.168C142.136 66.168 141.603 66.3639 141.02 66.7559C141.174 66.291 141.252 65.8581 141.252 65.457C141.252 65.3659 141.165 65.2474 140.992 65.1016L140.486 64.6504C138.891 63.1829 137.948 61.8203 137.656 60.5625C137.556 60.125 137.506 59.5781 137.506 58.9219C137.506 58.2565 137.665 57.5866 137.984 56.9121C138.312 56.2285 138.759 55.6497 139.324 55.1758C140.5 54.1732 141.995 53.6719 143.809 53.6719C144.911 53.6719 145.923 53.8496 146.844 54.2051C147.236 54.36 147.682 54.4375 148.184 54.4375C148.393 54.4375 148.58 54.4284 148.744 54.4102C148.917 54.3828 149.068 54.2871 149.195 54.123C149.314 53.9499 149.373 53.7949 149.373 53.6582C149.373 53.5215 149.355 53.4076 149.318 53.3164C149.382 53.2891 149.469 53.2754 149.578 53.2754C149.697 53.2754 149.824 53.3164 149.961 53.3984C150.098 53.4714 150.221 53.5762 150.33 53.7129C150.576 54.0228 150.699 54.3737 150.699 54.7656C150.699 55.1484 150.59 55.4401 150.371 55.6406C150.681 55.9141 150.836 56.3379 150.836 56.9121C150.836 57.4772 150.645 57.9512 150.262 58.334C150.335 58.5801 150.371 58.8034 150.371 59.0039C150.371 59.1953 150.335 59.3822 150.262 59.5645C150.198 59.7376 150.107 59.888 149.988 60.0156C149.724 60.2982 149.473 60.4395 149.236 60.4395C148.863 60.4395 148.548 60.3757 148.293 60.248C148.448 59.8835 148.525 59.4915 148.525 59.0723C148.525 58.653 148.43 58.2246 148.238 57.7871C148.056 57.3405 147.796 56.9531 147.459 56.625C146.748 55.9505 145.818 55.6133 144.67 55.6133C143.941 55.6133 143.344 55.8366 142.879 56.2832C142.441 56.7025 142.223 57.2083 142.223 57.8008C142.223 58.2474 142.332 58.6211 142.551 58.9219C142.934 59.4414 143.54 59.9792 144.369 60.5352L145.025 60.9727C145.39 61.2005 145.636 61.3145 145.764 61.3145C145.891 61.3145 146.019 61.3008 146.146 61.2734C146.274 61.2461 146.415 61.2096 146.57 61.1641C146.898 61.0547 147.217 60.8997 147.527 60.6992L147.35 61.4648C147.295 61.7201 147.268 61.9069 147.268 62.0254C147.268 62.2168 147.363 62.39 147.555 62.5449C149.259 64.0215 150.398 65.2565 150.973 66.25C151.474 67.1159 151.725 68.0501 151.725 69.0527C151.725 70.0553 151.561 70.9167 151.232 71.6367C150.904 72.3568 150.426 72.9948 149.797 73.5508C148.411 74.7904 146.611 75.4102 144.396 75.4102C142.838 75.4102 141.484 75.0957 140.336 74.4668ZM139.406 57.9102C139.06 58.056 138.887 58.4342 138.887 59.0449C138.887 60.2936 139.721 61.6654 141.389 63.1602L142.209 63.8984C142.492 64.1536 142.615 64.3496 142.578 64.4863C142.551 64.623 142.523 64.7324 142.496 64.8145C142.478 64.8965 142.455 64.974 142.428 65.0469C142.4 65.1198 142.382 65.1745 142.373 65.2109C142.692 65.0195 142.952 64.9238 143.152 64.9238C143.553 64.9238 143.932 65.0332 144.287 65.252C146.046 66.3457 147.24 67.321 147.869 68.1777C148.325 68.8066 148.562 69.5905 148.58 70.5293C148.58 70.8665 148.557 71.1491 148.512 71.377C148.995 71.0671 149.236 70.5749 149.236 69.9004C149.236 69.2441 149.145 68.7383 148.963 68.3828C148.79 68.0273 148.585 67.7129 148.348 67.4395C148.111 67.1569 147.801 66.8516 147.418 66.5234C147.044 66.1953 146.579 65.8398 146.023 65.457L144.082 64.1309C142.487 63.0827 141.275 61.9753 140.445 60.8086C139.716 59.7786 139.37 58.8125 139.406 57.9102Z" fill="black"/>
<path d="M71.5707 85.93C71.5707 86.3367 71.4807 86.7067 71.3007 87.04C71.1207 87.3667 70.834 87.6267 70.4407 87.82C70.054 88.0067 69.5574 88.1 68.9507 88.1C68.6374 88.1 68.364 88.0833 68.1307 88.05C67.904 88.0167 67.6907 87.97 67.4907 87.91C67.2974 87.8433 67.094 87.76 66.8807 87.66V86.11C67.2407 86.2767 67.604 86.4167 67.9707 86.53C68.344 86.6433 68.684 86.7 68.9907 86.7C69.1707 86.7 69.3174 86.6733 69.4307 86.62C69.544 86.56 69.6274 86.4833 69.6807 86.39C69.734 86.29 69.7607 86.1767 69.7607 86.05C69.7607 85.8967 69.7207 85.7667 69.6407 85.66C69.5674 85.5467 69.4407 85.44 69.2607 85.34C69.0807 85.2333 68.844 85.12 68.5507 85C68.304 84.8933 68.0807 84.78 67.8807 84.66C67.6807 84.5333 67.5107 84.39 67.3707 84.23C67.2307 84.0633 67.1207 83.8667 67.0407 83.64C66.9674 83.4067 66.9307 83.1333 66.9307 82.82C66.9307 82.3733 67.0374 82 67.2507 81.7C67.464 81.3933 67.7574 81.16 68.1307 81C68.5107 80.84 68.9507 80.76 69.4507 80.76C69.8907 80.76 70.284 80.8067 70.6307 80.9C70.984 80.9933 71.3007 81.1133 71.5807 81.26L71.0207 82.59C70.7407 82.45 70.4607 82.3433 70.1807 82.27C69.9007 82.19 69.6407 82.15 69.4007 82.15C69.2407 82.15 69.1107 82.1767 69.0107 82.23C68.9107 82.2767 68.8374 82.3467 68.7907 82.44C68.744 82.5267 68.7207 82.63 68.7207 82.75C68.7207 82.89 68.7607 83.0133 68.8407 83.12C68.9274 83.22 69.0674 83.3233 69.2607 83.43C69.454 83.5367 69.714 83.6733 70.0407 83.84C70.3674 83.9933 70.644 84.1633 70.8707 84.35C71.104 84.53 71.2774 84.7467 71.3907 85C71.5107 85.2467 71.5707 85.5567 71.5707 85.93ZM74.3009 82.51V88H72.5109V82.51H74.3009ZM73.4209 80.33C73.6742 80.33 73.8942 80.3833 74.0809 80.49C74.2675 80.5967 74.3609 80.8033 74.3609 81.11C74.3609 81.41 74.2675 81.6167 74.0809 81.73C73.8942 81.8367 73.6742 81.89 73.4209 81.89C73.1542 81.89 72.9275 81.8367 72.7409 81.73C72.5542 81.6167 72.4609 81.41 72.4609 81.11C72.4609 80.8033 72.5542 80.5967 72.7409 80.49C72.9275 80.3833 73.1542 80.33 73.4209 80.33ZM78.7977 82.41C79.3377 82.41 79.7777 82.57 80.1177 82.89C80.4577 83.2033 80.6277 83.7133 80.6277 84.42V88H78.8377V84.89C78.8377 84.51 78.7877 84.2233 78.6877 84.03C78.5877 83.8367 78.4244 83.74 78.1977 83.74C77.8577 83.74 77.6311 83.8933 77.5177 84.2C77.4044 84.5 77.3477 84.9333 77.3477 85.5V88H75.5477V82.51H76.8977L77.1477 83.22H77.2077C77.3277 83.04 77.4611 82.89 77.6077 82.77C77.7611 82.65 77.9377 82.56 78.1377 82.5C78.3377 82.44 78.5577 82.41 78.7977 82.41ZM84.2166 88.1C83.6899 88.1 83.2299 88.0033 82.8366 87.81C82.4499 87.61 82.1499 87.3033 81.9366 86.89C81.7299 86.47 81.6266 85.9333 81.6266 85.28C81.6266 84.6133 81.7432 84.07 81.9766 83.65C82.2166 83.2233 82.5432 82.91 82.9566 82.71C83.3699 82.51 83.8366 82.41 84.3566 82.41C84.6699 82.41 84.9732 82.4467 85.2666 82.52C85.5666 82.5933 85.8232 82.6867 86.0366 82.8L85.5466 84.05C85.3532 83.9567 85.1766 83.8833 85.0166 83.83C84.8566 83.7767 84.6866 83.75 84.5066 83.75C84.2999 83.75 84.1166 83.8067 83.9566 83.92C83.7966 84.0267 83.6699 84.1933 83.5766 84.42C83.4899 84.6467 83.4466 84.93 83.4466 85.27C83.4466 85.61 83.4899 85.89 83.5766 86.11C83.6699 86.3233 83.7966 86.4833 83.9566 86.59C84.1166 86.6967 84.2999 86.75 84.5066 86.75C84.7466 86.75 84.9832 86.7067 85.2166 86.62C85.4566 86.5333 85.6766 86.4167 85.8766 86.27V87.65C85.6632 87.7967 85.4199 87.91 85.1466 87.99C84.8799 88.0633 84.5699 88.1 84.2166 88.1ZM89.2649 82.41C89.7649 82.41 90.1983 82.5067 90.5649 82.7C90.9316 82.8867 91.2116 83.1667 91.4049 83.54C91.6049 83.9067 91.7049 84.3633 91.7049 84.91V85.69H88.5049C88.5183 86.05 88.6183 86.3367 88.8049 86.55C88.9983 86.7633 89.2749 86.87 89.6349 86.87C89.9683 86.87 90.2683 86.8367 90.5349 86.77C90.8083 86.7033 91.0883 86.5967 91.3749 86.45V87.7C91.1283 87.84 90.8549 87.94 90.5549 88C90.2549 88.0667 89.8783 88.1 89.4249 88.1C88.9049 88.1 88.4383 88 88.0249 87.8C87.6116 87.6 87.2849 87.2933 87.0449 86.88C86.8116 86.46 86.6949 85.93 86.6949 85.29C86.6949 84.6367 86.8016 84.1 87.0149 83.68C87.2283 83.2533 87.5283 82.9367 87.9149 82.73C88.3016 82.5167 88.7516 82.41 89.2649 82.41ZM89.3149 83.58C89.1016 83.58 88.9249 83.6633 88.7849 83.83C88.6449 83.99 88.5616 84.2467 88.5349 84.6H90.0849C90.0849 84.4067 90.0549 84.2333 89.9949 84.08C89.9349 83.9267 89.8483 83.8067 89.7349 83.72C89.6283 83.6267 89.4883 83.58 89.3149 83.58ZM99.6871 88H94.8171V86.85L96.4571 85.06C96.7971 84.6867 97.0604 84.38 97.2471 84.14C97.4404 83.9 97.5738 83.69 97.6471 83.51C97.7204 83.3233 97.7571 83.1267 97.7571 82.92C97.7571 82.6667 97.6938 82.4833 97.5671 82.37C97.4404 82.25 97.2871 82.19 97.1071 82.19C96.9004 82.19 96.6871 82.2533 96.4671 82.38C96.2538 82.5067 96.0104 82.69 95.7371 82.93L94.7471 81.84C94.9471 81.6533 95.1604 81.48 95.3871 81.32C95.6138 81.1533 95.8804 81.02 96.1871 80.92C96.5004 80.8133 96.8771 80.76 97.3171 80.76C97.7771 80.76 98.1738 80.8467 98.5071 81.02C98.8404 81.1867 99.0971 81.4167 99.2771 81.71C99.4638 81.9967 99.5571 82.3267 99.5571 82.7C99.5571 83 99.5104 83.2733 99.4171 83.52C99.3304 83.7667 99.2038 84.01 99.0371 84.25C98.8771 84.4833 98.6804 84.7333 98.4471 85C98.2204 85.26 97.9671 85.5567 97.6871 85.89L97.1471 86.52L97.1371 86.58H99.6871V88ZM105.205 84.43C105.205 85.01 105.162 85.5267 105.075 85.98C104.995 86.4267 104.858 86.81 104.665 87.13C104.472 87.4433 104.222 87.6833 103.915 87.85C103.608 88.0167 103.232 88.1 102.785 88.1C102.225 88.1 101.765 87.9533 101.405 87.66C101.052 87.3667 100.788 86.9467 100.615 86.4C100.448 85.8533 100.365 85.1967 100.365 84.43C100.365 83.6567 100.442 82.9967 100.595 82.45C100.748 81.9033 101.002 81.4833 101.355 81.19C101.715 80.8967 102.192 80.75 102.785 80.75C103.345 80.75 103.802 80.8967 104.155 81.19C104.515 81.4833 104.778 81.9033 104.945 82.45C105.118 82.9967 105.205 83.6567 105.205 84.43ZM102.165 84.43C102.165 84.9433 102.182 85.37 102.215 85.71C102.248 86.0433 102.308 86.2967 102.395 86.47C102.488 86.6433 102.618 86.73 102.785 86.73C102.952 86.73 103.078 86.6467 103.165 86.48C103.252 86.3067 103.312 86.05 103.345 85.71C103.385 85.37 103.405 84.9433 103.405 84.43C103.405 83.9233 103.385 83.5 103.345 83.16C103.312 82.8133 103.252 82.5533 103.165 82.38C103.078 82.2067 102.952 82.12 102.785 82.12C102.618 82.12 102.488 82.2067 102.395 82.38C102.308 82.5533 102.248 82.81 102.215 83.15C102.182 83.49 102.165 83.9167 102.165 84.43ZM109.853 88H108.013V84.15C108.013 84.0567 108.013 83.9267 108.013 83.76C108.013 83.5867 108.013 83.4033 108.013 83.21C108.02 83.01 108.027 82.8367 108.033 82.69C107.96 82.7567 107.89 82.8367 107.823 82.93C107.757 83.0167 107.687 83.0933 107.613 83.16L106.863 83.83L105.923 82.77L108.223 80.86H109.853V88ZM116.181 88H111.311V86.85L112.951 85.06C113.291 84.6867 113.555 84.38 113.741 84.14C113.935 83.9 114.068 83.69 114.141 83.51C114.215 83.3233 114.251 83.1267 114.251 82.92C114.251 82.6667 114.188 82.4833 114.061 82.37C113.935 82.25 113.781 82.19 113.601 82.19C113.395 82.19 113.181 82.2533 112.961 82.38C112.748 82.5067 112.505 82.69 112.231 82.93L111.241 81.84C111.441 81.6533 111.655 81.48 111.881 81.32C112.108 81.1533 112.375 81.02 112.681 80.92C112.995 80.8133 113.371 80.76 113.811 80.76C114.271 80.76 114.668 80.8467 115.001 81.02C115.335 81.1867 115.591 81.4167 115.771 81.71C115.958 81.9967 116.051 82.3267 116.051 82.7C116.051 83 116.005 83.2733 115.911 83.52C115.825 83.7667 115.698 84.01 115.531 84.25C115.371 84.4833 115.175 84.7333 114.941 85C114.715 85.26 114.461 85.5567 114.181 85.89L113.641 86.52L113.631 86.58H116.181V88Z" fill="#50A0FF"/>
<path d="M92 92L94.6517 100.161H103.233L96.2905 105.205L98.9422 113.366L92 108.322L85.0578 113.366L87.7095 105.205L80.7673 100.161H89.3483L92 92Z" fill="black"/>
<path d="M107.541 100.703L109.215 105.857H114.635L110.25 109.043L111.925 114.197L107.541 111.011L103.156 114.197L104.831 109.043L100.446 105.857H105.866L107.541 100.703Z" fill="black"/>
<path d="M76.4595 100.703L78.1342 105.857H83.5538L79.1693 109.043L80.844 114.197L76.4595 111.011L72.0749 114.197L73.7497 109.043L69.3651 105.857H74.7847L76.4595 100.703Z" fill="black"/>
</svg>
